<?xml version="1.0" encoding="utf-8"?>
<!-- Generator: Adobe Illustrator 24.2.3, SVG Export Plug-In . SVG Version: 6.00 Build 0)  -->
<svg version="1.1" id="Calque_1" xmlns="http://www.w3.org/2000/svg" xmlns:xlink="http://www.w3.org/1999/xlink" x="0px" y="0px"
	 viewBox="0 0 120 39" style="enable-background:new 0 0 120 39;" xml:space="preserve">
<style type="text/css">
	.st0{fill:#F07F23;}
	.st1{fill:#29ACE3;}
	.st2{fill:#FAF7F4;}
</style>
<g>
	<path class="st0" d="M25.6,21.9c-0.1-0.1-0.2-0.1-0.2-0.3c-0.1-2.3-1-4.3-2.5-6c-2.3-2.6-5.3-3.8-8.8-3.5c-2.1,0.2-3.9,1-5.5,2.4
		c-2.1,1.9-3.3,4.2-3.5,7c0,0.2-0.1,0.3-0.2,0.4c-0.5,0.4-0.8,0.9-0.8,1.5c0,0.5,0,1.1,0,1.6c0,0,0,0,0,0c0,0.6-0.1,1.3,0,2
		c0.1,0.9,0.9,1.5,1.9,1.4c0.9-0.1,1.5-0.8,1.6-1.7c0-1.1,0-2.1,0-3.2c0-0.5-0.1-1-0.5-1.3c-0.4-0.3-0.4-0.6-0.3-1
		c0-0.1,0-0.2,0.1-0.3c0.9-5.3,6.5-8.5,11.5-6.6c3.4,1.3,5.2,3.8,5.6,7.4c0,0.2,0,0.2-0.2,0.3c-0.5,0.3-0.7,0.8-0.8,1.3
		c0,0.8,0,1.7,0,2.5c0,0.4,0,0.9,0.1,1.3c0.1,0.2,0,0.3-0.2,0.4c-1,0.6-2.1,1-3.3,1.1c-0.3,0-0.5,0-0.7-0.2
		c-0.1-0.1-0.3-0.2-0.5-0.2c-0.5,0-1,0-1.5,0c-0.5,0-1,0.5-0.9,1c0,0.5,0.4,1,1,1c0.4,0,0.9,0,1.3,0c0.3,0,0.6-0.1,0.8-0.4
		c0.1-0.1,0.2-0.2,0.4-0.2c1.5-0.2,2.9-0.5,4.1-1.4c0.2-0.1,0.3-0.1,0.5,0c1.2,0.5,2.4-0.3,2.4-1.6c0-1.1,0-2.1,0-3.2
		C26.4,22.8,26.1,22.3,25.6,21.9z"/>
	<path class="st0" d="M20,22.9c0-1.2,0-2.5,0-3.7c0-0.2,0-0.3,0-0.5c-0.2-0.9-1-1.5-1.9-1.5c-1,0-1.9,0-2.9,0c-1,0-1.9,0-2.9,0
		c-1.1,0-1.9,0.8-1.9,1.9c0,1.3,0,2.6,0,3.9c0,1,0.8,1.8,1.8,1.9c0.1,0,0.1,0,0.1,0.1c0,0.3,0,0.6,0,0.8c0,0.2,0,0.3,0.1,0.5
		c0.3,0.6,1,0.7,1.5,0.2c0.5-0.5,1-1,1.6-1.5c0.1-0.1,0.2-0.1,0.3-0.1c0.7,0,1.5,0,2.3,0C19.2,24.9,20,24,20,22.9z M15.5,24
		c-0.2,0-0.4,0.1-0.6,0.2c-0.5,0.5-1,1-1.6,1.5c-0.1,0-0.1,0.1-0.2,0.2c0-0.5,0-0.9,0-1.3c0-0.5-0.1-0.6-0.6-0.6c-0.2,0-0.4,0-0.6,0
		c-0.4-0.1-0.7-0.5-0.7-1c0-1.3,0-2.6,0-3.9c0-0.6,0.4-1,1-1c1.1,0,2.2,0,3.3,0c0.8,0,1.6,0,2.4,0c0.6,0,1,0.4,1,1
		c0,1.3,0,2.5,0,3.8c0,0.6-0.4,1-1.1,1C17.2,24,16.4,24,15.5,24z"/>
	<path class="st0" d="M15.2,20.4c-0.4,0-0.7,0.3-0.7,0.7c0,0.4,0.3,0.7,0.7,0.7s0.7-0.3,0.7-0.7C15.9,20.7,15.5,20.4,15.2,20.4z"/>
	<path class="st0" d="M17.4,20.4c-0.4,0-0.7,0.3-0.7,0.7s0.3,0.7,0.7,0.7s0.7-0.3,0.7-0.7C18,20.7,17.7,20.4,17.4,20.4z"/>
	<path class="st0" d="M13,20.4c-0.4,0-0.7,0.3-0.7,0.7c0,0.4,0.3,0.7,0.7,0.7c0.4,0,0.7-0.3,0.7-0.7C13.7,20.8,13.4,20.4,13,20.4z"
		/>
</g>
<g>
	<g>
		<path class="st1" d="M36.5,6.7l-2.1,5.2c0,0.1-0.1,0.1-0.1,0.2s-0.1,0.1-0.2,0.1c-0.1,0-0.2,0-0.2-0.1s-0.1-0.1-0.1-0.2
			c0,0,0-0.1,0-0.1L36.1,6c0-0.1,0.1-0.2,0.2-0.2s0.1-0.1,0.2-0.1c0.1,0,0.2,0,0.2,0.1c0.1,0,0.1,0.1,0.1,0.2l2.3,5.7
			c0,0.1,0,0.1,0,0.1c0,0.1,0,0.2-0.1,0.3c-0.1,0.1-0.2,0.1-0.2,0.1c-0.1,0-0.2,0-0.2-0.1c-0.1,0-0.1-0.1-0.1-0.2l-2.2-5.2L36.5,6.7
			z M34.8,10.4l0.3-0.7h2.7l0.1,0.7H34.8z"/>
		<path class="st1" d="M40.4,6.8c-0.2,0-0.3,0-0.3-0.1c-0.1-0.1-0.1-0.2-0.1-0.3V6.3c0-0.1,0-0.2,0.1-0.3c0.1-0.1,0.2-0.1,0.3-0.1
			c0.2,0,0.2,0,0.3,0.1c0.1,0.1,0.1,0.2,0.1,0.3v0.1c0,0.1,0,0.2-0.1,0.3C40.6,6.8,40.5,6.8,40.4,6.8z M40.7,11.8
			c0,0.1,0,0.2-0.1,0.3c-0.1,0.1-0.2,0.1-0.3,0.1c-0.1,0-0.2,0-0.3-0.1S40,11.9,40,11.8v-4c0-0.1,0-0.2,0.1-0.3s0.2-0.1,0.3-0.1
			c0.1,0,0.2,0,0.3,0.1s0.1,0.2,0.1,0.3V11.8z"/>
		<path class="st1" d="M45.9,5.4c0.1,0,0.2,0,0.3,0.1c0.1,0.1,0.1,0.2,0.1,0.3v6c0,0.1,0,0.2-0.1,0.3c-0.1,0.1-0.2,0.1-0.3,0.1
			c-0.1,0-0.2,0-0.3-0.1s-0.1-0.2-0.1-0.3v-0.9l0.2-0.1c0,0.1,0,0.3-0.1,0.4s-0.2,0.3-0.4,0.4c-0.2,0.1-0.3,0.3-0.6,0.3
			c-0.2,0.1-0.4,0.1-0.7,0.1c-0.4,0-0.8-0.1-1.1-0.3s-0.6-0.5-0.8-0.9c-0.2-0.4-0.3-0.8-0.3-1.3c0-0.5,0.1-0.9,0.3-1.3
			c0.2-0.4,0.5-0.7,0.8-0.9s0.7-0.3,1.1-0.3c0.2,0,0.5,0,0.7,0.1c0.2,0.1,0.4,0.2,0.6,0.3c0.2,0.2,0.3,0.3,0.4,0.5s0.1,0.4,0.1,0.5
			l-0.2-0.1v-3c0-0.1,0-0.2,0.1-0.3C45.7,5.5,45.8,5.4,45.9,5.4z M44,11.6c0.3,0,0.6-0.1,0.8-0.2s0.4-0.4,0.5-0.6
			c0.1-0.3,0.2-0.6,0.2-0.9s-0.1-0.6-0.2-0.9c-0.1-0.3-0.3-0.5-0.5-0.6C44.6,8.1,44.3,8,44,8s-0.6,0.1-0.8,0.2s-0.4,0.4-0.5,0.6
			c-0.1,0.3-0.2,0.6-0.2,0.9c0,0.3,0.1,0.6,0.2,0.9c0.1,0.3,0.3,0.5,0.5,0.6S43.7,11.6,44,11.6z"/>
		<path class="st1" d="M49.8,12.2c-0.5,0-0.9-0.1-1.3-0.3s-0.6-0.5-0.8-0.9c-0.2-0.4-0.3-0.8-0.3-1.2c0-0.5,0.1-1,0.3-1.4
			s0.5-0.7,0.8-0.8c0.3-0.2,0.7-0.3,1.1-0.3c0.3,0,0.5,0.1,0.8,0.2s0.5,0.2,0.7,0.4s0.4,0.4,0.5,0.7s0.2,0.6,0.2,0.9
			c0,0.1,0,0.2-0.1,0.2c-0.1,0.1-0.2,0.1-0.2,0.1h-3.6l-0.2-0.6h3.5L51,9.4V9.2c0-0.2-0.1-0.5-0.2-0.6c-0.1-0.2-0.3-0.3-0.5-0.4
			C50,8.1,49.8,8,49.6,8c-0.2,0-0.4,0-0.5,0.1c-0.2,0.1-0.3,0.2-0.5,0.3S48.3,8.8,48.2,9c-0.1,0.2-0.1,0.5-0.1,0.8
			c0,0.4,0.1,0.7,0.2,0.9c0.1,0.3,0.3,0.5,0.6,0.6c0.2,0.1,0.5,0.2,0.9,0.2c0.2,0,0.4,0,0.5-0.1c0.2-0.1,0.3-0.1,0.4-0.2
			s0.2-0.2,0.3-0.2c0.1-0.1,0.2-0.1,0.2-0.1s0.2,0,0.2,0.1s0.1,0.1,0.1,0.2c0,0.1,0,0.2-0.2,0.3c-0.2,0.2-0.4,0.4-0.7,0.5
			C50.4,12.2,50.1,12.2,49.8,12.2z"/>
		<path class="st1" d="M57.1,12.2c-0.4,0-0.8-0.1-1.1-0.3c-0.3-0.2-0.6-0.4-0.8-0.8s-0.3-0.6-0.3-1c0-0.3,0-0.5,0.2-0.8
			s0.3-0.5,0.5-0.7s0.5-0.4,0.8-0.5l0.5,0.5c-0.5,0.1-0.8,0.3-1,0.5s-0.3,0.5-0.3,0.8c0,0.2,0.1,0.5,0.2,0.7
			c0.1,0.2,0.3,0.4,0.5,0.5c0.2,0.1,0.5,0.2,0.9,0.2c0.4,0,0.7-0.1,0.9-0.2s0.5-0.3,0.7-0.5c0.2-0.2,0.3-0.5,0.4-0.7
			c0.1-0.3,0.2-0.5,0.2-0.8c0-0.1,0-0.1,0.1-0.2s0.1-0.1,0.2-0.1c0.1,0,0.2,0,0.3,0.1c0.1,0.1,0.1,0.2,0.1,0.3c0,0.3-0.2,0.7-0.3,1
			c-0.2,0.3-0.3,0.6-0.6,0.9s-0.5,0.5-0.9,0.6S57.6,12.2,57.1,12.2z M60.3,12.1c0,0-0.1,0-0.1,0s-0.1,0-0.1,0
			c-0.4-0.3-0.8-0.6-1.1-0.9c-0.3-0.3-0.7-0.6-1-0.9s-0.7-0.6-1-1c-0.2-0.2-0.4-0.5-0.6-0.7c-0.2-0.2-0.3-0.4-0.4-0.6
			s-0.2-0.4-0.2-0.7c0-0.3,0.1-0.5,0.2-0.8s0.3-0.4,0.6-0.6s0.6-0.2,1-0.2c0.4,0,0.8,0.1,1.1,0.2c0.3,0.2,0.5,0.3,0.6,0.6
			c0,0,0,0,0,0.1c0,0.1,0,0.1,0,0.2c0,0.1,0,0.1-0.1,0.2s-0.1,0.1-0.2,0.1c-0.1,0-0.1,0-0.2,0c0,0-0.1-0.1-0.1-0.1
			c-0.1-0.2-0.3-0.3-0.5-0.4S58,6.4,57.7,6.4c-0.3,0-0.6,0.1-0.8,0.3c-0.2,0.2-0.3,0.4-0.3,0.6c0,0.2,0.1,0.4,0.2,0.6
			c0.1,0.2,0.2,0.4,0.4,0.6c0.2,0.2,0.3,0.4,0.5,0.6c0.2,0.2,0.5,0.5,0.7,0.7s0.5,0.5,0.8,0.7s0.5,0.4,0.7,0.6
			c0.2,0.2,0.4,0.3,0.6,0.5c0,0.1,0.1,0.1,0.1,0.1c0,0.1,0,0.1,0,0.2s0,0.1-0.1,0.2C60.5,12.1,60.4,12.1,60.3,12.1z"/>
		<path class="st1" d="M66,12.2c-0.4,0-0.8-0.1-1.2-0.2c-0.3-0.1-0.7-0.3-1-0.6c0,0-0.1-0.1-0.1-0.1c0-0.1,0-0.1,0-0.2
			c0-0.1,0-0.2,0.1-0.3s0.2-0.1,0.3-0.1c0.1,0,0.2,0,0.2,0.1c0.2,0.2,0.5,0.4,0.8,0.5c0.3,0.1,0.6,0.2,0.9,0.2c0.3,0,0.5,0,0.7-0.1
			c0.2-0.1,0.4-0.2,0.5-0.4c0.1-0.1,0.2-0.3,0.2-0.5c0-0.2-0.1-0.4-0.2-0.6s-0.3-0.3-0.6-0.4s-0.5-0.2-0.8-0.3
			c-0.3-0.1-0.5-0.1-0.8-0.2c-0.2-0.1-0.4-0.2-0.6-0.4c-0.2-0.1-0.3-0.3-0.4-0.5C64,8,63.9,7.7,63.9,7.4c0-0.3,0.1-0.7,0.3-0.9
			c0.2-0.3,0.4-0.5,0.8-0.6s0.7-0.2,1.1-0.2c0.4,0,0.7,0.1,1.1,0.2s0.6,0.3,0.8,0.5c0.1,0.1,0.2,0.2,0.2,0.3c0,0.1,0,0.2-0.1,0.2
			s-0.2,0.1-0.3,0.1c-0.1,0-0.1,0-0.2-0.1c-0.1-0.1-0.2-0.2-0.4-0.3c-0.2-0.1-0.3-0.2-0.5-0.2c-0.2-0.1-0.4-0.1-0.6-0.1
			c-0.3,0-0.5,0-0.7,0.1c-0.2,0.1-0.4,0.2-0.5,0.3s-0.2,0.3-0.2,0.5c0,0.2,0.1,0.4,0.2,0.6s0.3,0.3,0.5,0.4s0.5,0.2,0.7,0.2
			c0.3,0.1,0.6,0.2,0.8,0.2s0.5,0.2,0.7,0.4c0.2,0.1,0.3,0.3,0.4,0.5s0.2,0.5,0.2,0.8c0,0.3-0.1,0.6-0.3,0.9s-0.4,0.5-0.8,0.6
			C66.8,12.2,66.4,12.2,66,12.2z"/>
		<path class="st1" d="M72.7,7.5c0.1,0,0.2,0,0.3,0.1s0.1,0.2,0.1,0.3v2.5c0,0.6-0.2,1.1-0.5,1.4c-0.3,0.3-0.8,0.5-1.4,0.5
			c-0.6,0-1.1-0.2-1.4-0.5s-0.5-0.8-0.5-1.4V7.8c0-0.1,0-0.2,0.1-0.3s0.2-0.1,0.3-0.1c0.1,0,0.2,0,0.3,0.1s0.1,0.2,0.1,0.3v2.5
			c0,0.4,0.1,0.7,0.3,0.9s0.5,0.3,0.9,0.3c0.4,0,0.7-0.1,0.9-0.3s0.3-0.5,0.3-0.9V7.8c0-0.1,0-0.2,0.1-0.3S72.6,7.5,72.7,7.5z"/>
		<path class="st1" d="M76.8,7.4c0.4,0,0.8,0.1,1.1,0.3s0.6,0.5,0.8,0.9c0.2,0.4,0.3,0.8,0.3,1.2s-0.1,0.9-0.3,1.2
			c-0.2,0.4-0.4,0.6-0.8,0.9s-0.7,0.3-1.1,0.3c-0.2,0-0.4,0-0.6-0.1s-0.4-0.2-0.5-0.3s-0.3-0.2-0.4-0.4S75,11.2,75,11l0.2-0.1v2.7
			c0,0.1,0,0.2-0.1,0.3c-0.1,0.1-0.2,0.1-0.3,0.1c-0.1,0-0.2,0-0.3-0.1c-0.1-0.1-0.1-0.2-0.1-0.3V7.8c0-0.1,0-0.2,0.1-0.3
			s0.2-0.1,0.3-0.1c0.1,0,0.2,0,0.3,0.1c0.1,0.1,0.1,0.2,0.1,0.3v0.8L75,8.5c0-0.1,0.1-0.3,0.2-0.4s0.2-0.3,0.4-0.4
			c0.2-0.1,0.3-0.2,0.5-0.2S76.6,7.4,76.8,7.4z M76.7,8.1c-0.3,0-0.6,0.1-0.8,0.2s-0.4,0.4-0.5,0.6s-0.2,0.6-0.2,0.9
			c0,0.3,0.1,0.6,0.2,0.9c0.1,0.3,0.3,0.5,0.5,0.6s0.5,0.2,0.8,0.2s0.6-0.1,0.8-0.2s0.4-0.4,0.5-0.6s0.2-0.6,0.2-0.9
			c0-0.3-0.1-0.6-0.2-0.9s-0.3-0.5-0.5-0.6C77.2,8.1,77,8.1,76.7,8.1z"/>
		<path class="st1" d="M82.3,7.4c0.4,0,0.8,0.1,1.1,0.3s0.6,0.5,0.8,0.9c0.2,0.4,0.3,0.8,0.3,1.2s-0.1,0.9-0.3,1.2
			c-0.2,0.4-0.4,0.6-0.8,0.9s-0.7,0.3-1.1,0.3c-0.2,0-0.4,0-0.6-0.1s-0.4-0.2-0.5-0.3s-0.3-0.2-0.4-0.4s-0.2-0.3-0.2-0.4l0.2-0.1
			v2.7c0,0.1,0,0.2-0.1,0.3c-0.1,0.1-0.2,0.1-0.3,0.1c-0.1,0-0.2,0-0.3-0.1c-0.1-0.1-0.1-0.2-0.1-0.3V7.8c0-0.1,0-0.2,0.1-0.3
			s0.2-0.1,0.3-0.1c0.1,0,0.2,0,0.3,0.1c0.1,0.1,0.1,0.2,0.1,0.3v0.8l-0.1-0.1c0-0.1,0.1-0.3,0.2-0.4s0.2-0.3,0.4-0.4
			c0.2-0.1,0.3-0.2,0.5-0.2S82.1,7.4,82.3,7.4z M82.2,8.1c-0.3,0-0.6,0.1-0.8,0.2S81,8.6,80.9,8.9s-0.2,0.6-0.2,0.9
			c0,0.3,0.1,0.6,0.2,0.9c0.1,0.3,0.3,0.5,0.5,0.6s0.5,0.2,0.8,0.2s0.6-0.1,0.8-0.2s0.4-0.4,0.5-0.6s0.2-0.6,0.2-0.9
			c0-0.3-0.1-0.6-0.2-0.9S83.3,8.4,83,8.3C82.8,8.1,82.5,8.1,82.2,8.1z"/>
		<path class="st1" d="M90,9.8c0,0.5-0.1,0.9-0.3,1.3s-0.5,0.7-0.8,0.9s-0.8,0.3-1.2,0.3s-0.8-0.1-1.2-0.3s-0.6-0.5-0.8-0.9
			s-0.3-0.8-0.3-1.3s0.1-0.9,0.3-1.3s0.5-0.7,0.8-0.9s0.8-0.3,1.2-0.3c0.4,0,0.8,0.1,1.2,0.3s0.6,0.5,0.8,0.9S90,9.3,90,9.8z
			 M89.3,9.8c0-0.4-0.1-0.7-0.2-0.9s-0.3-0.5-0.6-0.6C88.3,8.1,88,8,87.7,8c-0.3,0-0.6,0.1-0.8,0.2s-0.4,0.4-0.6,0.6
			C86.1,9.1,86,9.4,86,9.8c0,0.3,0.1,0.6,0.2,0.9c0.1,0.3,0.3,0.5,0.6,0.6c0.2,0.1,0.5,0.2,0.8,0.2c0.3,0,0.6-0.1,0.8-0.2
			c0.2-0.1,0.4-0.4,0.6-0.6S89.3,10.1,89.3,9.8z"/>
		<path class="st1" d="M91.5,12.1c-0.1,0-0.2,0-0.3-0.1s-0.1-0.2-0.1-0.3V7.8c0-0.1,0-0.2,0.1-0.3s0.2-0.1,0.3-0.1
			c0.1,0,0.2,0,0.3,0.1s0.1,0.2,0.1,0.3V9l-0.1-0.2c0-0.2,0.1-0.4,0.2-0.6s0.2-0.3,0.4-0.5c0.1-0.1,0.3-0.2,0.5-0.3s0.4-0.1,0.6-0.1
			c0.1,0,0.3,0,0.4,0.1s0.2,0.2,0.2,0.3c0,0.1,0,0.2-0.1,0.3s-0.1,0.1-0.2,0.1c-0.1,0-0.2,0-0.2-0.1C93.3,8,93.2,8,93.1,8
			c-0.2,0-0.3,0-0.4,0.1c-0.2,0.1-0.3,0.2-0.4,0.4S92,8.8,91.9,9c-0.1,0.2-0.1,0.4-0.1,0.6v2.2c0,0.1,0,0.2-0.1,0.3
			C91.7,12.1,91.6,12.1,91.5,12.1z"/>
		<path class="st1" d="M94.6,7.5h2.1c0.1,0,0.2,0,0.2,0.1C97,7.7,97,7.7,97,7.8c0,0.1,0,0.2-0.1,0.2s-0.1,0.1-0.2,0.1h-2.1
			c-0.1,0-0.2,0-0.2-0.1s-0.1-0.2-0.1-0.2c0-0.1,0-0.2,0.1-0.2S94.5,7.5,94.6,7.5z M95.5,6.2c0.1,0,0.2,0,0.2,0.1
			c0.1,0.1,0.1,0.2,0.1,0.3V11c0,0.1,0,0.2,0.1,0.3c0,0.1,0.1,0.1,0.2,0.1s0.1,0,0.2,0s0.1,0,0.2,0c0.1,0,0.1,0,0.2,0
			c0.1,0,0.1,0,0.2,0.1c0.1,0.1,0.1,0.1,0.1,0.2c0,0.1-0.1,0.2-0.2,0.3s-0.3,0.1-0.4,0.1c-0.1,0-0.2,0-0.3,0s-0.2-0.1-0.4-0.1
			s-0.2-0.2-0.3-0.3s-0.1-0.4-0.1-0.6V6.6c0-0.1,0-0.2,0.1-0.3C95.3,6.3,95.4,6.2,95.5,6.2z"/>
	</g>
</g>
<g>
	<path class="st2" d="M33.9,27.3c-0.7-0.7-1.1-1.7-1.1-2.7c0-0.6,0.2-1.3,0.5-1.8l0,0l3.2-5.4h3L37.3,21c0.7,0.2,1.3,0.5,1.9,1
		c0.7,0.7,1.1,1.7,1.1,2.7s-0.4,1.9-1.1,2.7c-0.7,0.7-1.7,1.1-2.7,1.1C35.5,28.4,34.6,28,33.9,27.3z M35.3,24.7
		c0,0.7,0.6,1.2,1.2,1.2c0.7,0,1.2-0.6,1.2-1.2c0-0.7-0.5-1.3-1.2-1.3C35.9,23.4,35.3,24,35.3,24.7z"/>
	<path class="st2" d="M41.3,28.3l3.8-8.3h-3.5v-2.5h6.7V19L44,28.3H41.3z"/>
	<path class="st2" d="M49.1,28.3l3.8-8.3h-3.5v-2.5h6.7V19l-4.3,9.3H49.1z"/>
	<path class="st2" d="M61.5,27.4c-0.7-0.7-1.1-1.7-1.1-2.7c0-0.6,0.2-1.3,0.5-1.8c0.2-0.3,0.4-0.7,0.7-0.9c-0.3-0.5-0.5-1-0.5-1.6
		c0-0.8,0.3-1.6,0.9-2.2c0.6-0.6,1.4-0.9,2.2-0.9c0.8,0,1.6,0.3,2.2,0.9c0.6,0.6,0.9,1.3,0.9,2.2c0,0.6-0.2,1.1-0.5,1.6
		c0.3,0.3,0.5,0.6,0.7,0.9c0.3,0.6,0.5,1.2,0.5,1.8c0,1-0.4,2-1.1,2.7c-0.7,0.7-1.7,1.1-2.7,1.1C63.2,28.5,62.2,28.1,61.5,27.4z
		 M62.9,24.7c0,0.7,0.6,1.3,1.3,1.3c0.7,0,1.3-0.6,1.3-1.3c0-0.7-0.6-1.3-1.3-1.3C63.5,23.4,62.9,24,62.9,24.7z M63.7,20.3
		c0,0.3,0.3,0.6,0.5,0.6c0.3,0,0.6-0.3,0.6-0.6s-0.3-0.6-0.6-0.6C63.9,19.8,63.7,20,63.7,20.3z"/>
	<path class="st2" d="M70,27.3c-0.7-0.7-1.1-1.7-1.1-2.7v-3.7c0-1,0.4-2,1.1-2.7c0.7-0.7,1.7-1.1,2.7-1.1c1,0,2,0.4,2.7,1.1
		c0.7,0.7,1.1,1.7,1.1,2.7v3.7c0,1-0.4,2-1.1,2.7c-0.7,0.7-1.7,1.1-2.7,1.1C71.7,28.4,70.8,28,70,27.3z M71.4,20.9v3.7
		c0,0.7,0.6,1.3,1.3,1.3c0.7,0,1.3-0.6,1.3-1.3v-3.7c0-0.7-0.6-1.3-1.3-1.3C72,19.6,71.4,20.2,71.4,20.9z"/>
	<path class="st2" d="M81.1,25.7h3.2v2.5h-6.9v-2.1l4.2-4.9c0.1-0.2,0.2-0.3,0.2-0.5c0-0.5-0.4-0.9-0.9-0.9c-0.4,0-0.8,0.3-0.9,0.6
		L79.8,21l-2.4-0.5l0.2-0.7c0.2-0.7,0.6-1.3,1.2-1.8c0.6-0.5,1.3-0.7,2.1-0.7c1.9,0,3.4,1.5,3.4,3.4c0,0.7-0.2,1.4-0.7,2l0,0
		L81.1,25.7z"/>
	<path class="st2" d="M89.8,27.3c-0.7-0.7-1.1-1.7-1.1-2.7c0-0.6,0.2-1.3,0.5-1.8l0,0l3.2-5.4h3L93.2,21c0.7,0.2,1.3,0.5,1.9,1
		c0.7,0.7,1.1,1.7,1.1,2.7s-0.4,1.9-1.1,2.7c-0.7,0.7-1.7,1.1-2.7,1.1C91.5,28.4,90.5,28,89.8,27.3z M91.2,24.7
		c0,0.7,0.6,1.2,1.2,1.2s1.2-0.6,1.2-1.2c0-0.7-0.5-1.3-1.2-1.3S91.2,24,91.2,24.7z"/>
	<path class="st2" d="M98.1,27.3c-0.2-0.2-0.3-0.3-0.4-0.5l-0.4-0.5l2.1-1.5l0.4,0.5c0.3,0.4,0.7,0.6,1.2,0.6c0.8,0,1.4-0.6,1.4-1.3
		c0-0.7-0.6-1.4-1.4-1.4c-0.2,0-0.4,0.1-0.6,0.2l-0.2,0.1l-2.2-0.6l1.5-5.4h5.3V20l-3.4,0l-0.2,0.8c1,0,1.9,0.4,2.6,1.1
		c0.8,0.7,1.2,1.7,1.2,2.7s-0.4,2-1.2,2.7c-0.7,0.7-1.7,1.1-2.8,1.1S98.8,28,98.1,27.3z"/>
	<path class="st2" d="M110,28.3v-2.5h-4.4v-1.7l4.7-6.6h2.2v5.8h1.6v2.5h-1.6v2.5H110z M110,23.3V22l-0.9,1.3H110z"/>
</g>
</svg>
