<?xml version="1.0" encoding="utf-8"?>
<!-- Generator: Adobe Illustrator 24.2.3, SVG Export Plug-In . SVG Version: 6.00 Build 0)  -->
<svg version="1.1" id="Calque_1" xmlns="http://www.w3.org/2000/svg" xmlns:xlink="http://www.w3.org/1999/xlink" x="0px" y="0px"
	 viewBox="0 0 120 39" style="enable-background:new 0 0 120 39;" xml:space="preserve">
<style type="text/css">
	.st0{fill:#F07F23;}
	.st1{fill:#FAF7F4;}
	.st2{fill:#29ACE3;}
</style>
<g>
	<path class="st0" d="M25.6,21.9c-0.1-0.1-0.2-0.1-0.2-0.3c-0.1-2.3-1-4.3-2.5-6c-2.3-2.6-5.3-3.8-8.8-3.5c-2.1,0.2-3.9,1-5.5,2.4
		c-2.1,1.9-3.3,4.2-3.5,7c0,0.2-0.1,0.3-0.2,0.4c-0.5,0.4-0.8,0.9-0.8,1.5c0,0.5,0,1.1,0,1.6l0,0c0,0.6-0.1,1.3,0,2
		C4.2,27.9,5,28.5,6,28.4c0.9-0.1,1.5-0.8,1.6-1.7c0-1.1,0-2.1,0-3.2c0-0.5-0.1-1-0.5-1.3s-0.4-0.6-0.3-1c0-0.1,0-0.2,0.1-0.3
		c0.9-5.3,6.5-8.5,11.5-6.6c3.4,1.3,5.2,3.8,5.6,7.4c0,0.2,0,0.2-0.2,0.3c-0.5,0.3-0.7,0.8-0.8,1.3c0,0.8,0,1.7,0,2.5
		c0,0.4,0,0.9,0.1,1.3c0.1,0.2,0,0.3-0.2,0.4c-1,0.6-2.1,1-3.3,1.1c-0.3,0-0.5,0-0.7-0.2c-0.1-0.1-0.3-0.2-0.5-0.2c-0.5,0-1,0-1.5,0
		s-1,0.5-0.9,1c0,0.5,0.4,1,1,1c0.4,0,0.9,0,1.3,0c0.3,0,0.6-0.1,0.8-0.4c0.1-0.1,0.2-0.2,0.4-0.2c1.5-0.2,2.9-0.5,4.1-1.4
		c0.2-0.1,0.3-0.1,0.5,0c1.2,0.5,2.4-0.3,2.4-1.6c0-1.1,0-2.1,0-3.2C26.4,22.8,26.1,22.3,25.6,21.9z"/>
	<path class="st0" d="M20,22.9c0-1.2,0-2.5,0-3.7c0-0.2,0-0.3,0-0.5c-0.2-0.9-1-1.5-1.9-1.5c-1,0-1.9,0-2.9,0s-1.9,0-2.9,0
		c-1.1,0-1.9,0.8-1.9,1.9c0,1.3,0,2.6,0,3.9c0,1,0.8,1.8,1.8,1.9c0.1,0,0.1,0,0.1,0.1c0,0.3,0,0.6,0,0.8c0,0.2,0,0.3,0.1,0.5
		c0.3,0.6,1,0.7,1.5,0.2s1-1,1.6-1.5c0.1-0.1,0.2-0.1,0.3-0.1c0.7,0,1.5,0,2.3,0C19.2,24.9,20,24,20,22.9z M15.5,24
		c-0.2,0-0.4,0.1-0.6,0.2c-0.5,0.5-1,1-1.6,1.5c-0.1,0-0.1,0.1-0.2,0.2c0-0.5,0-0.9,0-1.3c0-0.5-0.1-0.6-0.6-0.6c-0.2,0-0.4,0-0.6,0
		c-0.4-0.1-0.7-0.5-0.7-1c0-1.3,0-2.6,0-3.9c0-0.6,0.4-1,1-1c1.1,0,2.2,0,3.3,0c0.8,0,1.6,0,2.4,0c0.6,0,1,0.4,1,1
		c0,1.3,0,2.5,0,3.8c0,0.6-0.4,1-1.1,1C17.2,24,16.4,24,15.5,24z"/>
	<path class="st0" d="M15.2,20.4c-0.4,0-0.7,0.3-0.7,0.7c0,0.4,0.3,0.7,0.7,0.7s0.7-0.3,0.7-0.7C15.9,20.7,15.5,20.4,15.2,20.4z"/>
	<path class="st0" d="M17.4,20.4c-0.4,0-0.7,0.3-0.7,0.7s0.3,0.7,0.7,0.7s0.7-0.3,0.7-0.7C18,20.7,17.7,20.4,17.4,20.4z"/>
	<path class="st0" d="M13,20.4c-0.4,0-0.7,0.3-0.7,0.7c0,0.4,0.3,0.7,0.7,0.7s0.7-0.3,0.7-0.7C13.7,20.8,13.4,20.4,13,20.4z"/>
</g>
<g>
	<path class="st1" d="M33.9,27.3c-0.7-0.7-1.1-1.7-1.1-2.7c0-0.6,0.2-1.3,0.5-1.8l0,0l3.2-5.4h3L37.3,21c0.7,0.2,1.3,0.5,1.9,1
		c0.7,0.7,1.1,1.7,1.1,2.7s-0.4,1.9-1.1,2.7c-0.7,0.7-1.7,1.1-2.7,1.1C35.5,28.4,34.6,28,33.9,27.3z M35.3,24.7
		c0,0.7,0.6,1.2,1.2,1.2c0.7,0,1.2-0.6,1.2-1.2c0-0.7-0.5-1.3-1.2-1.3C35.9,23.4,35.3,24,35.3,24.7z"/>
	<path class="st1" d="M41.3,28.3l3.8-8.3h-3.5v-2.5h6.7V19L44,28.3H41.3z"/>
	<path class="st1" d="M49.1,28.3l3.8-8.3h-3.5v-2.5h6.7V19l-4.3,9.3H49.1z"/>
	<path class="st1" d="M61.5,27.4c-0.7-0.7-1.1-1.7-1.1-2.7c0-0.6,0.2-1.3,0.5-1.8c0.2-0.3,0.4-0.7,0.7-0.9c-0.3-0.5-0.5-1-0.5-1.6
		c0-0.8,0.3-1.6,0.9-2.2c0.6-0.6,1.4-0.9,2.2-0.9c0.8,0,1.6,0.3,2.2,0.9s0.9,1.3,0.9,2.2c0,0.6-0.2,1.1-0.5,1.6
		c0.3,0.3,0.5,0.6,0.7,0.9c0.3,0.6,0.5,1.2,0.5,1.8c0,1-0.4,2-1.1,2.7s-1.7,1.1-2.7,1.1C63.2,28.5,62.2,28.1,61.5,27.4z M62.9,24.7
		c0,0.7,0.6,1.3,1.3,1.3c0.7,0,1.3-0.6,1.3-1.3c0-0.7-0.6-1.3-1.3-1.3C63.5,23.4,62.9,24,62.9,24.7z M63.7,20.3
		c0,0.3,0.3,0.6,0.5,0.6c0.3,0,0.6-0.3,0.6-0.6s-0.3-0.6-0.6-0.6C63.9,19.8,63.7,20,63.7,20.3z"/>
	<path class="st1" d="M70,27.3c-0.7-0.7-1.1-1.7-1.1-2.7v-3.7c0-1,0.4-2,1.1-2.7s1.7-1.1,2.7-1.1s2,0.4,2.7,1.1s1.1,1.7,1.1,2.7v3.7
		c0,1-0.4,2-1.1,2.7s-1.7,1.1-2.7,1.1S70.8,28,70,27.3z M71.4,20.9v3.7c0,0.7,0.6,1.3,1.3,1.3c0.7,0,1.3-0.6,1.3-1.3v-3.7
		c0-0.7-0.6-1.3-1.3-1.3S71.4,20.2,71.4,20.9z"/>
	<path class="st1" d="M81.1,25.7h3.2v2.5h-6.9v-2.1l4.2-4.9c0.1-0.2,0.2-0.3,0.2-0.5c0-0.5-0.4-0.9-0.9-0.9c-0.4,0-0.8,0.3-0.9,0.6
		L79.8,21l-2.4-0.5l0.2-0.7c0.2-0.7,0.6-1.3,1.2-1.8s1.3-0.7,2.1-0.7c1.9,0,3.4,1.5,3.4,3.4c0,0.7-0.2,1.4-0.7,2l0,0L81.1,25.7z"/>
	<path class="st1" d="M89.8,27.3c-0.7-0.7-1.1-1.7-1.1-2.7c0-0.6,0.2-1.3,0.5-1.8l0,0l3.2-5.4h3L93.2,21c0.7,0.2,1.3,0.5,1.9,1
		c0.7,0.7,1.1,1.7,1.1,2.7s-0.4,1.9-1.1,2.7c-0.7,0.7-1.7,1.1-2.7,1.1C91.5,28.4,90.5,28,89.8,27.3z M91.2,24.7
		c0,0.7,0.6,1.2,1.2,1.2s1.2-0.6,1.2-1.2c0-0.7-0.5-1.3-1.2-1.3S91.2,24,91.2,24.7z"/>
	<path class="st1" d="M98.1,27.3c-0.2-0.2-0.3-0.3-0.4-0.5l-0.4-0.5l2.1-1.5l0.4,0.5c0.3,0.4,0.7,0.6,1.2,0.6c0.8,0,1.4-0.6,1.4-1.3
		c0-0.7-0.6-1.4-1.4-1.4c-0.2,0-0.4,0.1-0.6,0.2l-0.2,0.1L98,22.9l1.5-5.4h5.3V20h-3.4l-0.2,0.8c1,0,1.9,0.4,2.6,1.1
		c0.8,0.7,1.2,1.7,1.2,2.7s-0.4,2-1.2,2.7c-0.7,0.7-1.7,1.1-2.8,1.1S98.8,28,98.1,27.3z"/>
	<path class="st1" d="M110,28.3v-2.5h-4.4v-1.7l4.7-6.6h2.2v5.8h1.6v2.5h-1.6v2.5H110z M110,23.3V22l-0.9,1.3H110z"/>
</g>
<g>
	<path class="st2" d="M38,5.3c-0.1,0-0.2,0-0.3,0.1s-0.1,0.2-0.1,0.3v2.1h-3V5.8c0-0.1,0-0.2-0.1-0.3c-0.1-0.1-0.2-0.1-0.3-0.1
		c-0.1,0-0.3,0-0.3,0.1s-0.1,0.2-0.1,0.3V11c0,0.1,0,0.2,0.1,0.3c0.1,0.1,0.2,0.1,0.3,0.1c0.1,0,0.2,0,0.3-0.1s0.1-0.2,0.1-0.3V8.8
		h3V11c0,0.1,0,0.2,0.1,0.3s0.2,0.1,0.3,0.1c0.1,0,0.3,0,0.3-0.1s0.1-0.2,0.1-0.3V5.8c0-0.1,0-0.2-0.1-0.3S38.1,5.3,38,5.3z"/>
	<path class="st2" d="M43.2,7.4C43,7.2,42.8,7,42.5,6.9c-0.3-0.1-0.5-0.2-0.8-0.2c-0.4,0-0.7,0.1-1.1,0.3s-0.6,0.5-0.8,0.8
		c-0.2,0.4-0.3,0.8-0.3,1.3c0,0.5,0.1,0.9,0.3,1.2c0.2,0.4,0.5,0.6,0.8,0.8c0.4,0.2,0.8,0.3,1.3,0.3c0.3,0,0.6-0.1,0.9-0.2
		c0.3-0.1,0.5-0.2,0.6-0.4c0.1-0.1,0.2-0.2,0.2-0.3c0-0.1,0-0.2-0.1-0.3c-0.1-0.1-0.2-0.1-0.3-0.1c-0.1,0-0.2,0-0.3,0.1
		c-0.1,0.1-0.2,0.1-0.2,0.2s-0.2,0.1-0.3,0.2c-0.1,0-0.3,0.1-0.5,0.1c-0.3,0-0.5-0.1-0.7-0.2s-0.4-0.3-0.5-0.6
		c-0.1-0.2-0.1-0.4-0.2-0.6h3c0.1,0,0.2,0,0.3-0.1s0.1-0.2,0.1-0.3c0-0.3-0.1-0.6-0.2-0.9C43.6,7.8,43.4,7.6,43.2,7.4z M40.8,7.9
		c0.1-0.1,0.3-0.2,0.4-0.3c0.2-0.1,0.3-0.1,0.5-0.1c0.2,0,0.4,0,0.6,0.1c0.2,0.1,0.3,0.2,0.4,0.4c0.1,0.2,0.2,0.3,0.2,0.5v0.1h-2.5
		c0-0.1,0-0.2,0.1-0.2C40.6,8.2,40.7,8,40.8,7.9z"/>
	<path class="st2" d="M45.4,5c-0.1,0-0.2,0-0.3,0.1c-0.1,0.1-0.1,0.2-0.1,0.3V11c0,0.1,0,0.2,0.1,0.3s0.2,0.1,0.3,0.1
		c0.1,0,0.2,0,0.3-0.1s0.1-0.2,0.1-0.3V5.4c0-0.1,0-0.2-0.1-0.3C45.6,5,45.5,5,45.4,5z"/>
	<path class="st2" d="M50.5,7.1c-0.3-0.2-0.7-0.3-1.1-0.3c-0.2,0-0.4,0-0.6,0.1c-0.2,0.1-0.3,0.1-0.5,0.3S48.1,7.3,48,7.5
		c0,0,0,0,0,0V7.3c0-0.1,0-0.2-0.1-0.3c-0.1-0.1-0.2-0.1-0.3-0.1c-0.1,0-0.2,0-0.3,0.1c-0.1,0.1-0.1,0.2-0.1,0.3v5.4
		c0,0.1,0,0.2,0.1,0.3c0.1,0.1,0.2,0.1,0.3,0.1c0.1,0,0.2,0,0.3-0.1s0.1-0.2,0.1-0.3v-1.9c0.1,0.1,0.2,0.2,0.3,0.3
		c0.2,0.1,0.3,0.2,0.5,0.3c0.2,0.1,0.4,0.1,0.6,0.1c0.4,0,0.7-0.1,1.1-0.3c0.3-0.2,0.6-0.5,0.7-0.8c0.2-0.4,0.3-0.8,0.3-1.2
		s-0.1-0.9-0.3-1.2C51,7.6,50.8,7.3,50.5,7.1z M50.5,9.9c-0.1,0.2-0.3,0.4-0.5,0.6s-0.4,0.2-0.7,0.2c-0.3,0-0.5-0.1-0.7-0.2
		c-0.2-0.1-0.4-0.3-0.5-0.6c-0.1-0.2-0.2-0.5-0.2-0.8c0-0.3,0.1-0.6,0.2-0.8c0.1-0.2,0.3-0.4,0.5-0.6c0.2-0.1,0.4-0.2,0.7-0.2
		c0.3,0,0.5,0.1,0.7,0.2s0.4,0.3,0.5,0.6s0.2,0.5,0.2,0.8C50.6,9.4,50.6,9.7,50.5,9.9z"/>
	<path class="st2" d="M60,10.7c-0.1-0.1-0.3-0.3-0.5-0.4c-0.1-0.1-0.1-0.1-0.2-0.2c0-0.1,0.1-0.2,0.1-0.3c0.1-0.3,0.2-0.7,0.3-1
		c0-0.1,0-0.3-0.1-0.4c-0.1-0.1-0.2-0.1-0.3-0.1c-0.1,0-0.2,0-0.3,0.1s-0.1,0.1-0.1,0.2c0,0.3-0.1,0.5-0.2,0.8
		c0,0.1-0.1,0.1-0.1,0.2c-0.2-0.2-0.3-0.3-0.5-0.5c-0.2-0.2-0.5-0.5-0.6-0.7C57.3,8.2,57.2,8,57,7.9c-0.2-0.2-0.3-0.3-0.4-0.5
		c-0.1-0.2-0.2-0.4-0.2-0.5c0-0.2,0.1-0.4,0.2-0.6C56.8,6.1,57,6,57.3,6c0.3,0,0.5,0,0.6,0.1c0.2,0.1,0.3,0.2,0.4,0.4
		c0,0,0.1,0.1,0.1,0.1c0,0,0.1,0,0.2,0c0.1,0,0.2,0,0.3-0.1c0.1-0.1,0.1-0.2,0.1-0.2c0-0.1,0-0.1,0-0.2C59,6,59,6,59,6
		c-0.1-0.2-0.3-0.4-0.6-0.5c-0.3-0.1-0.7-0.2-1.1-0.2c-0.4,0-0.7,0.1-1,0.2c-0.3,0.1-0.5,0.3-0.6,0.6s-0.2,0.5-0.2,0.8
		c0,0.2,0.1,0.4,0.2,0.6c0.1,0.1,0.1,0.2,0.2,0.3c-0.3,0.1-0.5,0.3-0.7,0.4c-0.2,0.2-0.4,0.4-0.5,0.6c-0.1,0.2-0.2,0.5-0.2,0.8
		c0,0.3,0.1,0.6,0.3,0.9c0.2,0.3,0.4,0.5,0.8,0.7s0.7,0.3,1.1,0.3c0.5,0,0.9-0.1,1.2-0.2c0.3-0.1,0.6-0.3,0.8-0.6
		c0.3,0.2,0.5,0.4,0.8,0.7c0,0,0.1,0,0.1,0.1c0,0,0.1,0,0.1,0c0.1,0,0.2,0,0.3-0.1c0.1-0.1,0.1-0.2,0.1-0.2c0-0.1,0-0.2,0-0.2
		C60.1,10.8,60,10.7,60,10.7z M57.7,10.5c-0.2,0.1-0.5,0.2-0.8,0.2c-0.3,0-0.6-0.1-0.8-0.2c-0.2-0.1-0.4-0.3-0.5-0.5
		c-0.1-0.2-0.1-0.4-0.1-0.6c0-0.3,0.1-0.5,0.2-0.7c0.1-0.2,0.4-0.3,0.7-0.4c0.1,0.1,0.2,0.2,0.2,0.3c0.3,0.3,0.6,0.6,0.9,0.9
		c0.2,0.2,0.4,0.4,0.7,0.6C58,10.3,57.9,10.4,57.7,10.5z"/>
	<path class="st2" d="M67,8.5c-0.2-0.1-0.4-0.2-0.6-0.3S65.8,8,65.5,7.9c-0.3-0.1-0.5-0.1-0.7-0.2c-0.2-0.1-0.4-0.2-0.5-0.3
		c-0.1-0.1-0.2-0.3-0.2-0.5c0-0.2,0-0.3,0.1-0.4c0.1-0.1,0.2-0.2,0.4-0.3c0.2-0.1,0.4-0.1,0.7-0.1c0.2,0,0.3,0,0.5,0.1
		c0.2,0.1,0.3,0.1,0.5,0.2c0.2,0.1,0.3,0.2,0.4,0.3c0.1,0,0.1,0.1,0.2,0.1c0.1,0,0.2,0,0.3-0.1s0.1-0.2,0.1-0.3
		c0-0.1-0.1-0.3-0.2-0.4c-0.2-0.2-0.5-0.3-0.8-0.5c-0.3-0.1-0.7-0.2-1-0.2c-0.4,0-0.8,0.1-1.1,0.2s-0.6,0.3-0.8,0.6
		c-0.2,0.3-0.3,0.6-0.3,0.9c0,0.3,0,0.5,0.1,0.7c0.1,0.2,0.2,0.4,0.4,0.5s0.4,0.3,0.6,0.4c0.2,0.1,0.5,0.2,0.8,0.2
		c0.3,0.1,0.6,0.1,0.8,0.2s0.4,0.2,0.5,0.3s0.2,0.3,0.2,0.5c0,0.2-0.1,0.3-0.2,0.4s-0.3,0.2-0.5,0.3c-0.2,0.1-0.4,0.1-0.6,0.1
		c-0.3,0-0.6-0.1-0.8-0.2c-0.2-0.1-0.5-0.3-0.7-0.5C63.7,10,63.6,10,63.5,10c-0.1,0-0.2,0-0.3,0.1s-0.1,0.2-0.1,0.3
		c0,0.1,0,0.1,0,0.2c0,0.1,0.1,0.1,0.1,0.2c0.3,0.3,0.6,0.5,0.9,0.6c0.3,0.1,0.7,0.2,1.1,0.2c0.4,0,0.8-0.1,1.1-0.2
		c0.3-0.1,0.6-0.3,0.8-0.6c0.2-0.3,0.3-0.6,0.3-0.9c0-0.3,0-0.6-0.1-0.8C67.3,8.8,67.1,8.7,67,8.5z"/>
	<path class="st2" d="M71.9,6.9c-0.1,0-0.2,0-0.3,0.1s-0.1,0.2-0.1,0.3v2.3c0,0.4-0.1,0.7-0.3,0.8c-0.2,0.2-0.4,0.3-0.8,0.3
		c-0.3,0-0.6-0.1-0.8-0.3s-0.3-0.5-0.3-0.8V7.3c0-0.1,0-0.2-0.1-0.3S69,6.9,68.9,6.9c-0.1,0-0.2,0-0.3,0.1s-0.1,0.2-0.1,0.3v2.3
		c0,0.6,0.2,1.1,0.5,1.4c0.3,0.3,0.8,0.5,1.4,0.5c0.6,0,1.1-0.2,1.4-0.5c0.3-0.3,0.5-0.8,0.5-1.4V7.3c0-0.1,0-0.2-0.1-0.3
		S72,6.9,71.9,6.9z"/>
	<path class="st2" d="M76.9,7.1c-0.3-0.2-0.7-0.3-1.1-0.3c-0.2,0-0.4,0-0.6,0.1c-0.2,0.1-0.3,0.1-0.5,0.3c-0.1,0.1-0.3,0.2-0.4,0.3
		c0,0,0,0,0,0V7.3c0-0.1,0-0.2-0.1-0.3c-0.1-0.1-0.2-0.1-0.3-0.1c-0.1,0-0.2,0-0.3,0.1c-0.1,0.1-0.1,0.2-0.1,0.3v5.4
		c0,0.1,0,0.2,0.1,0.3s0.2,0.1,0.3,0.1c0.1,0,0.2,0,0.3-0.1s0.1-0.2,0.1-0.3v-1.9c0.1,0.1,0.2,0.2,0.3,0.3c0.2,0.1,0.3,0.2,0.5,0.3
		c0.2,0.1,0.4,0.1,0.6,0.1c0.4,0,0.7-0.1,1.1-0.3c0.3-0.2,0.6-0.5,0.7-0.8C77.9,10,78,9.6,78,9.1s-0.1-0.9-0.3-1.2
		C77.5,7.6,77.2,7.3,76.9,7.1z M76.9,9.9c-0.1,0.2-0.3,0.4-0.5,0.6c-0.2,0.1-0.4,0.2-0.7,0.2c-0.3,0-0.5-0.1-0.7-0.2
		s-0.4-0.3-0.5-0.6s-0.2-0.5-0.2-0.8c0-0.3,0.1-0.6,0.2-0.8s0.3-0.4,0.5-0.6s0.4-0.2,0.7-0.2c0.3,0,0.5,0.1,0.7,0.2
		c0.2,0.1,0.4,0.3,0.5,0.6c0.1,0.2,0.2,0.5,0.2,0.8C77.1,9.4,77.1,9.7,76.9,9.9z"/>
	<path class="st2" d="M82.3,7.1c-0.3-0.2-0.7-0.3-1.1-0.3c-0.2,0-0.4,0-0.6,0.1c-0.2,0.1-0.3,0.1-0.5,0.3c-0.1,0.1-0.3,0.2-0.4,0.3
		c0,0,0,0,0,0V7.3c0-0.1,0-0.2-0.1-0.3c-0.1-0.1-0.2-0.1-0.3-0.1c-0.1,0-0.2,0-0.3,0.1c-0.1,0.1-0.1,0.2-0.1,0.3v5.4
		c0,0.1,0,0.2,0.1,0.3s0.2,0.1,0.3,0.1c0.1,0,0.2,0,0.3-0.1s0.1-0.2,0.1-0.3v-1.9c0.1,0.1,0.2,0.2,0.3,0.3c0.2,0.1,0.3,0.2,0.5,0.3
		c0.2,0.1,0.4,0.1,0.6,0.1c0.4,0,0.7-0.1,1.1-0.3c0.3-0.2,0.6-0.5,0.7-0.8c0.2-0.4,0.3-0.8,0.3-1.2s-0.1-0.9-0.3-1.2
		C82.9,7.6,82.6,7.3,82.3,7.1z M82.3,9.9c-0.1,0.2-0.3,0.4-0.5,0.6c-0.2,0.1-0.4,0.2-0.7,0.2c-0.3,0-0.5-0.1-0.7-0.2
		s-0.4-0.3-0.5-0.6s-0.2-0.5-0.2-0.8c0-0.3,0.1-0.6,0.2-0.8s0.3-0.4,0.5-0.6s0.4-0.2,0.7-0.2c0.3,0,0.5,0.1,0.7,0.2
		c0.2,0.1,0.4,0.3,0.5,0.6c0.1,0.2,0.2,0.5,0.2,0.8C82.5,9.4,82.5,9.7,82.3,9.9z"/>
	<path class="st2" d="M87.6,7.1c-0.3-0.2-0.7-0.3-1.2-0.3c-0.4,0-0.8,0.1-1.2,0.3c-0.3,0.2-0.6,0.5-0.8,0.8
		c-0.2,0.4-0.3,0.8-0.3,1.2c0,0.5,0.1,0.9,0.3,1.2c0.2,0.4,0.5,0.6,0.8,0.8c0.3,0.2,0.7,0.3,1.2,0.3c0.4,0,0.8-0.1,1.2-0.3
		c0.3-0.2,0.6-0.5,0.8-0.8c0.2-0.4,0.3-0.8,0.3-1.2c0-0.5-0.1-0.9-0.3-1.2C88.2,7.5,87.9,7.3,87.6,7.1z M87.7,10
		c-0.1,0.2-0.3,0.4-0.5,0.6c-0.2,0.1-0.5,0.2-0.7,0.2c-0.3,0-0.5-0.1-0.7-0.2c-0.2-0.1-0.4-0.3-0.5-0.6C85,9.7,85,9.5,85,9.1
		c0-0.3,0.1-0.6,0.2-0.8c0.1-0.2,0.3-0.4,0.5-0.6c0.2-0.1,0.5-0.2,0.7-0.2c0.3,0,0.5,0.1,0.7,0.2c0.2,0.1,0.4,0.3,0.5,0.6
		c0.1,0.2,0.2,0.5,0.2,0.8C87.9,9.5,87.8,9.7,87.7,10z"/>
	<path class="st2" d="M92,6.8c-0.2,0-0.4,0-0.5,0.1C91.3,6.9,91.2,7,91,7.1c-0.1,0.1-0.2,0.2-0.3,0.4c-0.1,0.1-0.1,0.2-0.1,0.3V7.3
		c0-0.1,0-0.2-0.1-0.3s-0.2-0.1-0.3-0.1c-0.1,0-0.2,0-0.3,0.1s-0.1,0.2-0.1,0.3V11c0,0.1,0,0.2,0.1,0.3s0.2,0.1,0.3,0.1
		c0.1,0,0.2,0,0.3-0.1s0.1-0.2,0.1-0.3V8.9c0-0.2,0-0.4,0.1-0.6c0.1-0.2,0.1-0.3,0.2-0.4s0.2-0.2,0.3-0.3s0.3-0.1,0.4-0.1
		c0.1,0,0.2,0,0.3,0.1s0.2,0.1,0.3,0.1c0.1,0,0.2,0,0.3-0.1c0.1-0.1,0.1-0.2,0.1-0.3c0-0.1-0.1-0.2-0.2-0.3
		C92.3,6.8,92.2,6.8,92,6.8z"/>
	<path class="st2" d="M95.4,10.6c-0.1,0-0.1,0-0.2,0c0,0-0.1,0-0.2,0c-0.1,0-0.1,0-0.2,0c-0.1,0-0.1-0.1-0.1-0.1
		c0-0.1-0.1-0.1-0.1-0.3V7.7h0.7c0.1,0,0.2,0,0.3-0.1s0.1-0.2,0.1-0.3c0-0.1,0-0.2-0.1-0.3c-0.1-0.1-0.2-0.1-0.3-0.1h-0.7V6.2
		c0-0.1,0-0.2-0.1-0.3s-0.2-0.1-0.3-0.1c-0.1,0-0.2,0-0.3,0.1s-0.1,0.2-0.1,0.3v0.7h-0.5c-0.1,0-0.2,0-0.3,0.1
		c-0.1,0.1-0.1,0.2-0.1,0.3c0,0.1,0,0.2,0.1,0.3s0.2,0.1,0.3,0.1h0.5v2.6c0,0.3,0,0.5,0.1,0.6c0.1,0.2,0.2,0.3,0.3,0.3
		c0.1,0.1,0.3,0.1,0.4,0.1c0.1,0,0.2,0,0.3,0c0.2,0,0.3,0,0.5-0.1c0.2-0.1,0.2-0.2,0.2-0.3c0-0.1,0-0.2-0.1-0.3
		C95.5,10.6,95.4,10.6,95.4,10.6z"/>
</g>
</svg>
