<svg xmlns="http://www.w3.org/2000/svg" xmlns:xlink="http://www.w3.org/1999/xlink" id="Calque_1" x="0px" y="0px" viewBox="0 0 469.7 681.9" style="enable-background:new 0 0 469.7 681.9;" xml:space="preserve"><style type="text/css">	.st0{fill:#FFFFFF;}	.st1{fill:#EF7F23;}</style><g>	<path class="st0" d="M226.1,438.4c0,0,0-0.1-0.1-0.1c-1.9-2.7-33.9-48.1-53.1-100.2c0,0-2.9-8.8-4.6-13.4c-0.6-1.7-1.1-3.5-1.6-5.2  h-0.4c-8.6-23.7-14.6-48.7-14-71.8c1.9-71.2,23.3-146.9,26.1-156.4c0.1-0.3,0.2-0.6,0.2-0.7c0.1-0.2,0.1-0.3,0.1-0.3  c4-13.8-1.8-29-14.8-36.3c-12.6-7.1-28-4.5-37.8,5.2c0,0,0,0-0.1,0.1c-0.2,0.2-0.9,0.9-1.9,2.1C111.5,75.6,42.7,157.3,43,247.7  c0.1,26,27.6,100.6,33.4,111.8c36.5,70.6,97.9,126.1,97.9,126.1l0.5-0.5c1.8,1.6,3.9,3.1,6.1,4.4c16.8,9.4,38.1,3.5,47.5-13.3  C235.4,463.8,234,449.1,226.1,438.4z"></path>	<path class="st0" d="M410.6,427.8c-12.5-33.9-26.2-62-39.8-89.7h0.1c-16.5-34.1-33.3-66-47.8-104.9c-20.6-55.2,1-135.2,1.7-137.5  c0,0,0,0,0,0c4.1-13.8-1.7-29.1-14.8-36.5c-15.2-8.5-34.4-3.2-42.9,12c0,0,0,0,0,0c-0.1,0.3-0.8,1.8-2,4.3  c-10.7,23.5-59.4,137.1-30.5,200c6.9,14.9,14.6,29.2,22.4,43.1h-0.5c31.2,58.3,68.8,108.2,51.3,163.2  c-18.6,58.4-32.7,106.9-38.3,126.8c-1.4,3.1-2.3,6.4-2.7,9.6c0,0,0,0,0,0l0,0c-1.8,13.7,4.7,27.8,17.5,35  c16.8,9.5,38.2,3.5,47.6-13.4c0,0,0,0,0,0C333.3,638,435.6,495.4,410.6,427.8z"></path>	<g>		<path class="st1" d="M21.1,295.1c0.3,0,0.7-0.1,1-0.3c1-0.6,1.3-1.8,0.7-2.7C-4.5,246,33.2,170.2,33.5,169.4   c0.5-1,0.1-2.2-0.9-2.7c-1-0.5-2.2-0.1-2.7,0.9c-0.1,0.2-9.9,19.7-16.1,44.9c-8.2,33.5-6.4,61.7,5.4,81.6   C19.7,294.7,20.4,295.1,21.1,295.1z"></path>		<path class="st1" d="M356,168.5c0.2-1.1-0.5-2.1-1.5-2.4c-1.1-0.2-2.1,0.5-2.4,1.5c-0.3,1.6-8.1,38.8,11,77.4   c0.3,0.7,1.1,1.1,1.8,1.1c0.3,0,0.6-0.1,0.9-0.2c1-0.5,1.4-1.7,0.9-2.7C348.2,206,356,168.9,356,168.5z"></path>		<path class="st1" d="M310.3,34.9c-0.4-0.1-39.2-12.2-56.8,19.3c-0.5,1-0.2,2.2,0.8,2.7c0.3,0.2,0.6,0.3,1,0.3c0.7,0,1.4-0.4,1.7-1   c6.7-11.9,17.5-18.5,31.9-19.5c11-0.8,20.1,2.1,20.2,2.1c1.1,0.3,2.2-0.2,2.5-1.3S311.4,35.2,310.3,34.9z"></path>		<path class="st1" d="M250,404c-0.9,0.7-1,1.9-0.3,2.8c0.3,0.4,28.5,37,9.4,67.7c-0.6,0.9-0.3,2.2,0.6,2.8c0.3,0.2,0.7,0.3,1.1,0.3   c0.7,0,1.3-0.3,1.7-0.9c20.5-33.2-9.4-71.9-9.7-72.3C252.2,403.5,250.9,403.4,250,404z"></path>		<path class="st1" d="M33.7,335.5c-0.2-1.1-1.2-1.8-2.3-1.7c-1.1,0.2-1.9,1.2-1.7,2.3c0.1,0.4,5.6,37.8,28.1,70.7   c0.4,0.6,1,0.9,1.7,0.9c0.4,0,0.8-0.1,1.1-0.3c0.9-0.6,1.1-1.9,0.5-2.8C39.2,372.4,33.7,335.8,33.7,335.5z"></path>		<path class="st1" d="M18.4,351.6c-0.2-1.1-1.3-1.8-2.3-1.6c-1.1,0.2-1.8,1.3-1.6,2.3c0.2,0.8,4,20.5,11.6,33.9c0.4,0.6,1,1,1.7,1   c0.3,0,0.7-0.1,1-0.3c1-0.5,1.3-1.8,0.7-2.7C22.2,371.4,18.4,351.8,18.4,351.6z"></path>		<path class="st1" d="M435.5,404c-0.8-0.8-2.1-0.7-2.8,0.1c-0.8,0.8-0.7,2.1,0.1,2.8c29.7,27.9-6.9,89.2-7.3,89.8   c-0.6,0.9-0.3,2.2,0.7,2.7c0.3,0.2,0.7,0.3,1,0.3c0.7,0,1.3-0.3,1.7-1c0.4-0.7,9.8-16.2,15.4-35.6C452,437,448.9,416.6,435.5,404z   "></path>	</g></g></svg>