<svg xmlns="http://www.w3.org/2000/svg" xmlns:xlink="http://www.w3.org/1999/xlink" id="Calque_1" x="0px" y="0px" viewBox="0 0 469.7 681.9" style="enable-background:new 0 0 469.7 681.9;" xml:space="preserve"><style type="text/css">	.st0{clip-path:url(#SVGID_2_);}	.st1{fill:#EF7F23;}</style><g>	<defs>		<path id="SVGID_1_" d="M451.8,318.3c0,119.8-2.8,262.2-221.8,262.2c-183,0-212.1-142.4-212.1-262.2s60-216.9,276.1-216.9   C413.9,101.4,451.8,198.5,451.8,318.3z"></path>	</defs>	<clipPath id="SVGID_2_">		<use xlink:href="#SVGID_1_" style="overflow:visible;"></use>	</clipPath>	<g class="st0">		<path class="st1" d="M367.6,506.6c0.3,0,0.7-0.1,1-0.2c1.1-0.6,1.6-2,1-3.1c-17-34.4-9.9-68.6-9.8-68.9c0.3-1.2-0.5-2.5-1.8-2.8   c-1.2-0.3-2.5,0.5-2.8,1.8c-0.3,1.5-7.6,36.1,10.2,71.9C365.9,506.1,366.7,506.6,367.6,506.6z"></path>		<path class="st1" d="M84.8,413.6c0.7-1.1,0.4-2.5-0.7-3.2c-1.1-0.7-2.5-0.4-3.2,0.7c-0.5,0.7-11.2,17.2-19.5,39.7   c-11.1,30-12.3,56.3-3.5,76c0.3,0.6,0.8,1.1,1.5,1.3c0.5,0.2,1.1,0.1,1.6-0.1c1.2-0.5,1.7-1.9,1.2-3.1   C41.9,479.8,84.3,414.2,84.8,413.6z"></path>		<path class="st1" d="M279,343c0.4,0.2,0.7,0.3,1.1,0.3c0.8,0,1.6-0.4,2-1.2c6.1-10.9,15.9-16.9,29.1-17.8   c10.1-0.7,18.4,1.9,18.6,1.9c1.2,0.4,2.5-0.3,2.9-1.5c0.4-1.2-0.3-2.5-1.5-2.9c-0.4-0.1-36.6-11.4-53.2,18   C277.5,340.9,277.9,342.3,279,343z"></path>		<path class="st1" d="M195.6,339.9c-11.7-6.6-25.9-4.2-34.9,4.8c0,0,0,0-0.1,0.1c-0.2,0.2-0.8,0.9-1.8,2   c-11.7,13.2-75.5,88.8-75.1,172.5c0.1,28.4,9.4,57.1,22.6,83.7h98.4c-11.5-26.7-20.6-56.6-19.9-83.7c1.7-65.9,21.6-136,24.2-144.8   c0.1-0.3,0.2-0.5,0.2-0.7c0.1-0.2,0.1-0.3,0.1-0.3C213.1,360.7,207.7,346.6,195.6,339.9z"></path>		<path class="st1" d="M343,505.8c-19.1-51.1,1-125.1,1.5-127.3c0,0,0,0,0,0c3.8-12.8-1.5-27-13.7-33.8c-14-7.9-31.8-2.9-39.7,11.1   c0,0,0,0,0,0c-0.1,0.3-0.8,1.6-1.8,4c-9.9,21.7-55,126.9-28.2,185.2c9.4,20.4,20.6,39.5,30.9,57.9h95.2   C371.9,571.3,356.4,541.8,343,505.8z"></path>	</g></g></svg>