<svg xmlns="http://www.w3.org/2000/svg" xmlns:xlink="http://www.w3.org/1999/xlink" id="Calque_1" x="0px" y="0px" viewBox="0 0 469.7 681.9" style="enable-background:new 0 0 469.7 681.9;" xml:space="preserve"><style type="text/css">	.st0{fill:#6F6E97;}</style><g>	<path class="st0" d="M342.6,286.4c-4.6,0-8.4,3.9-8.4,8.5c0,4.6,3.7,8.4,8.4,8.4c4.6,0,8.4-3.7,8.4-8.4  C350.9,290.3,347.2,286.4,342.6,286.4z M342.6,299c-2.2,0-4.1-1.9-4.1-4.1c0-2.4,1.9-4.3,4.1-4.3c2.3,0,4.1,1.8,4.1,4.3  C346.6,297.2,344.8,299,342.6,299z"></path>	<path class="st0" d="M342.6,271.4c-13,0-23.6,10.6-23.6,23.6c0,13,10.6,23.6,23.6,23.6c13,0,23.6-10.6,23.6-23.6  C366.2,281.9,355.6,271.4,342.6,271.4z M342.6,304.4c-5.2,0-9.3-4.3-9.3-9.5c0-5.2,4.1-9.5,9.3-9.5c5.2,0,9.5,4.3,9.5,9.5  C352,300.1,347.8,304.4,342.6,304.4z"></path>	<path class="st0" d="M144.9,143.9c0.7,2.1,3,3.1,5.1,2.4l39.6-12.9c2.1-0.7,3.2-2.8,2.5-4.9l-8.1-24.7c-0.7-2.1-2.9-3.4-5-2.7  l-39.6,12.9c-2.1,0.7-3.3,3-2.6,5.2L144.9,143.9z M169.4,113.1c1.4-0.5,2.5-0.8,3.2-0.8c1,0.1,2.1,0.3,3,0.8  c0.9,0.5,1.8,1.2,2.5,2.1c0.7,1,1.3,2.3,1.8,3.9c0.5,1.4,0.6,2.5,0.6,3.7c0,1.4-0.2,2.4-0.8,3.6c-0.4,0.7-1.1,1.4-1.9,2  c-0.6,0.6-1.7,0.9-2.9,1.3l-6.4,2.1l-5.4-16.6L169.4,113.1z M149.8,119.4l2.1,6.5l6.5-2.1l-2.1-6.5l3.3-1.1l5.4,16.6l-3.3,1.1  l-2.4-7.2l-6.5,2.1l2.4,7.2l-3.4,1.1l-5.4-16.6L149.8,119.4z"></path>	<path class="st0" d="M173.6,126.9c1.1-0.3,1.8-0.6,2.1-0.9c0.5-0.2,0.9-0.7,1.2-1.2c0.3-0.3,0.2-1.1,0.4-1.9c0-0.8-0.2-1.9-0.6-3.1  c-0.4-1.2-0.9-2.3-1.3-2.9c-0.6-0.6-0.9-1-1.6-1.2c-0.4-0.2-1.1-0.4-1.9-0.4c-0.4,0.1-1.2,0.4-2.6,0.9l-1.6,0.5l3.6,11L173.6,126.9  z"></path>	<path class="st0" d="M157.5,226.2l-7.2,2.1c-1.3,0.3-2.9,1.7-3.3,2.9l-2.7,6.9c-0.6,1.4-0.4,3.4,0.4,4.6l3.9,6.3  c0.7,1.3,1.8,1.1,2.2-0.1l8.3-20.9C159.6,226.5,158.8,225.8,157.5,226.2z"></path>	<path class="st0" d="M122.9,210.6c3.1,1.2,6.5-0.2,7.7-3.3c1.2-3.1-0.2-6.5-3.3-7.7c-3.1-1.2-6.5,0.2-7.7,3.3  C118.3,206,119.8,209.4,122.9,210.6z"></path>	<path class="st0" d="M139.5,217.6c4.5,1.8,9.6-0.6,11.4-5.1c1.8-4.5-0.3-9.7-4.8-11.5c-4.7-1.8-9.8,0.5-11.6,5  C132.7,210.5,134.9,215.8,139.5,217.6z"></path>	<path class="st0" d="M139.8,242.7L146,227l0.9-2.3c0.5-1.4-0.1-2.8-1.3-3.3l-28.5-11.3c-1.2-0.5-2.8,0.1-3.4,1.4l-7.1,17.9  c-0.5,1.2,0.3,2.7,1.5,3.2l28.5,11.3C137.8,244.5,139.3,243.9,139.8,242.7z M116.2,228.9c-0.5,1.2-1.9,1.9-3.3,1.3  c-1.2-0.5-1.8-1.9-1.3-3.1c0.5-1.4,2-2,3.2-1.5C116.2,226.1,116.8,227.5,116.2,228.9z"></path>	<path class="st0" d="M135.7,351.8l3.7,12.4l53.9-16l-3.7-12.4L135.7,351.8z M160.5,355.4l-2.3-7.8l8.9-2.6l2.3,7.8L160.5,355.4z"></path>	<path class="st0" d="M184.3,318.2l-53.9,16l3.7,12.4l53.9-16L184.3,318.2z M174,332.1l-2.3-7.7l9-2.7l2.3,7.7L174,332.1z"></path>	<path class="st0" d="M179,300.5l-53.9,16l3.7,12.4l53.9-16L179,300.5z M132.7,325.3l-2.3-7.7l9-2.7l2.3,7.7L132.7,325.3z"></path>	<path class="st0" d="M330.2,508.8l-17.1-10.8c-1.6-1-3.7-0.5-4.7,1.1l-21.9,34.9c-1,1.6-0.6,3.8,1,4.8l17.1,10.8  c1.7,1.1,3.9,0.6,4.9-1.1l7.7-12.3l-2.3-1.4l-4.7,7.6l-18.6-11.6l17.6-28.1l18.6,11.6l-8.4,13.4l2.3,1.4l9.7-15.5  C332.4,512.1,331.9,509.9,330.2,508.8z M303.5,543.8l0.6-1c0.2-0.3,0.5-0.3,0.7-0.2l1,0.6c0.3,0.2,0.3,0.4,0.2,0.7l-0.6,1  c-0.1,0.2-0.4,0.3-0.7,0.2l-1-0.6C303.4,544.3,303.3,544,303.5,543.8z M295.5,539.9l1.6-2.5c0.4-0.6,1.2-0.7,1.7-0.3l2.5,1.6  c0.5,0.3,0.8,1.1,0.4,1.7l-1.6,2.5c-0.4,0.6-1.2,0.7-1.8,0.4l-2.5-1.6C295.4,541.4,295.1,540.6,295.5,539.9z M292.1,535.2  c0.2-0.3,0.5-0.3,0.7-0.1l1,0.6c0.2,0.1,0.3,0.4,0.2,0.7l-0.6,1c-0.1,0.2-0.5,0.3-0.7,0.2l-1-0.6c-0.2-0.1-0.3-0.5-0.2-0.7  L292.1,535.2z"></path>	<path class="st0" d="M328.7,534.3l-10.8-6.6l2.6-4.2l-14.2,1.3l5.5,13l2.6-4.2l10.8,6.5c0.5,0.3,1.2,0.2,1.5-0.4l2.4-4.1  C329.4,535.2,329.2,534.5,328.7,534.3z"></path>	<path class="st0" d="M299,401.9l-10.7-6.1c-1.9-1.1-4.2-0.9-5.3,1.1l-13.5,23.7c-1.1,1.9-0.1,4,1.8,5.1l34,19.3  c1.9,1.1,4.4,1,5.5-1l13.5-23.7c1.1-2,0-4.1-2-5.2L308,407c-1.1-0.6-1-1.6,0.1-2.1l5.7-2.1c1.1-0.4,2.1-0.7,2.1-0.7l0.2,0.1  c1,0.6,2.1,0.1,2.6-0.7c0.6-1,0.4-2.2-0.6-2.7c-1-0.5-2.2-0.2-2.7,0.6c-0.1,0.2-0.2,0.3,0,0.4c-0.1,0.2-1.1,0.7-2.2,1.1l-7.1,2.6  c-1.1,0.5-2.1,0.7-2.3,0.6c-0.2-0.1-0.6-1.2-0.8-2.4l-1.4-7.4c-0.2-1.2-0.2-2.3-0.1-2.4c0,0,0.1-0.2,0.2-0.3c0.5-0.8,0.3-2-0.7-2.6  c-1-0.5-2.1-0.1-2.5,0.7c-0.5,1-0.4,2.2,0.6,2.7l0.2,0.1c0,0,0.3,1,0.6,2l0.8,6.1C301,401.9,300.2,402.5,299,401.9z M311.9,435.2  l-0.8,1.4c-0.1,0.2-0.3,0.2-0.5,0.1l-1.5-0.8c-0.2-0.1-0.2-0.3-0.1-0.5l0.8-1.4c0.1-0.2,0.5-0.4,0.6-0.3l1.5,0.8  C312,434.6,312,435.1,311.9,435.2z M313.6,432.3l-0.9,1.6c-0.1,0.2-0.3,0.2-0.5,0.1l-1.5-0.8c-0.2-0.1-0.2-0.3-0.2-0.5l0.9-1.6  c0.1-0.2,0.4-0.2,0.5-0.1l1.5,0.8C313.6,431.9,313.6,432.1,313.6,432.3z M315.1,429.5l-0.8,1.5c-0.1,0.2-0.4,0.4-0.6,0.3l-1.5-0.8  c-0.2-0.1-0.1-0.5-0.1-0.7l0.8-1.5c0.1-0.2,0.4-0.2,0.5-0.1l1.5,0.8C315.2,429.1,315.2,429.4,315.1,429.5z M316,422l3.1,1.8  c0.5,0.3,0.6,0.8,0.3,1.3l-1.8,3.2c-0.2,0.3-0.7,0.5-1.2,0.2l-3.1-1.8c-0.5-0.3-0.7-0.8-0.5-1.1l1.8-3.2  C314.9,421.9,315.5,421.8,316,422z M312.9,413.4c2,1.1,2.6,3.8,1.5,5.8l-9.6,16.9c-1.1,1.9-3.8,2.8-5.7,1.7l-23.4-13.3  c-1.8-1-2.2-3.6-1.1-5.6l9.6-16.9c1.1-1.9,3.6-2.9,5.4-1.9L312.9,413.4z"></path>	<polygon class="st0" points="187.4,21.1 183.6,23.9 183.2,29.5 187.1,26.7  "></polygon>	<polygon class="st0" points="194.3,16.2 190.4,18.9 190.2,24.5 194.1,21.8  "></polygon>	<path class="st0" d="M201,15.5c-0.1-0.3-0.3-0.6-0.5-0.8c-0.3-0.4-1.1-0.9-1.6-0.9c-0.6,0-1.1,0-1.5,0.4l-0.3,5.4l4.4-3.2L201,15.5  z"></path>	<path class="st0" d="M178,37.8l-1,4.1l-0.5,0.2l6.2,13.9c0.6,1.3,2.1,2,3.3,1.4l26.8-12c1.3-0.6,1.9-2.2,1.3-3.5l-6.2-13.9l-2.3,1  l-0.9,0.4l1-4.1l-4.4,2l-1,4.1L197,33l1-4.1l-4.4,2l-1,4.1l-3.4,1.5l1-4.1l-4.4,2l-1,4.1l-3.4,1.5l1-4.1L178,37.8z M194.3,48.5  l-8.1,3.6c-0.5,0.2-1.2,0.1-1.4-0.6c-0.2-0.5,0.1-1.2,0.6-1.4l8.1-3.6c0.5-0.2,1.2,0.1,1.4,0.6C195.1,47.6,194.8,48.3,194.3,48.5z   M183.7,43.7l18-8c1.1-0.5,2.4,0,2.9,1.1c0.5,1,0,2.3-1.2,2.8l-18,8c-1.1,0.5-2.4,0-2.9-1C182.1,45.5,182.6,44.2,183.7,43.7z"></path>	<path class="st0" d="M173.3,35.7l0.1-4.7l-0.3,0.3c-1,0.7-1.4,2.3-0.6,3.4L173.3,35.7z"></path>	<polygon class="st0" points="180.4,26 176.6,28.8 176.2,34.4 180.2,31.6  "></polygon>	<path class="st0" d="M280.7,192.8l-2.4,4.5l-2.5-3.9l-4.4,8.4l2.4,4.2l-4.5,8.6c-0.5,0.9-0.1,1.9,0.8,2.4l3.6,1.9  c0.9,0.5,1.9,0.2,2.4-0.7l11.5-21.7c0.4-0.7,0.2-1.9-0.7-2.4l-3.6-1.9C282.3,191.5,281.1,192.1,280.7,192.8z"></path>	<path class="st0" d="M225,189.2c0.2,0.7,1.1,1.2,1.8,1l3-0.7l0.7,3l2.8-0.5l-4.7-17.8l-2.8,0.9l0.7,3l-2.8,0.8  c-0.6,0-0.8,0.4-0.9,0.7c-0.2,0.5-0.4,0.7-0.2,1L225,189.2z"></path>	<path class="st0" d="M265,183c-0.9,2.1-1.8,5.1,0.6,9.3l3.4,5.6l4.4-8.4l-0.8-1.2c-0.4-0.8-0.3-1-0.3-1c-0.2-0.1,0.3-1,0.5-1.5  l3.2-6.1l7.8-2.2l-5.8-19c0.2,0.1-46.5,14.1-46.5,14.1l5.3,19L265,183z"></path>	<path class="st0" d="M240.1,591.6c0.5,0,0.9,0,1.4,0.1c0.4,0.2,0.9-0.1,1-0.6c0.1-0.4-0.2-0.9-0.7-1c-0.5-0.2-1-0.2-1.7-0.2  c-1.5,0-3.1,0.5-4.2,1.7c-1.2,1.2-1.8,2.7-1.8,4.3c0,0.6,0.1,1.2,0.3,1.7c0,0.5,0.4,0.7,0.8,0.7l0.2-0.1c0.5-0.1,0.7-0.5,0.6-1  c-0.1-0.4-0.2-0.8-0.2-1.3c0-1.2,0.5-2.3,1.3-3.1C237.9,592,239,591.6,240.1,591.6z"></path>	<path class="st0" d="M274.8,637.1c-0.9-1.6-2.4-4.3-3.4-5.9l-3.4-5.9c-0.1,0.1-0.2,0.2-0.3,0.4c-0.3,0.1-0.5,0.3-0.7,0.4  c-0.2,0.2-0.5,0.3-0.7,0.5c-1.5,0.9-3,1.7-4.5,2.3l-1.3,2.3c-1,1.6-2.5,4.3-3.4,5.9l-4.5,7.6v0.1c-0.2,0.3-0.3,0.5-0.3,0.8  c0,0.5,0.1,0.7,0.9,0.8c0.1,0,0.2,0,0.3,0.1h8.9c1.9,0,5,0,6.9,0h8.9c1.1-0.1,1.2-0.4,1.2-0.9c0-0.1-0.1-0.5-0.3-0.8L274.8,637.1z"></path>	<path class="st0" d="M259.1,630.4l0.4-0.6c-1,0.2-2,0.4-2.9,0.5c-0.9,1.6-2.2,3.8-3,5.1l-4.5,7.7c-0.1,0.4-0.3,0.7-0.3,0.9  c0.1,0.5,0.2,0.7,1.3,0.8h0.7c0.1-0.3,0.2-0.5,0.4-0.8l4.5-7.7C256.6,634.7,258.1,632.1,259.1,630.4z"></path>	<path class="st0" d="M250.4,629.8c1.7-0.2,3.6-0.7,5.4-1.5c0.5-0.1,0.9-0.3,1.4-0.5c0.4-0.2,0.9-0.4,1.3-0.7c1.3-0.6,2.7-1.5,4-2.4  c0.1-0.1,0.3-0.2,0.5-0.4c0.2-0.1,0.5-0.3,0.7-0.5c0.2-0.2,0.4-0.4,0.7-0.6c0.2-0.1,0.3-0.3,0.5-0.4c0.7-0.6,1.4-1.2,2-1.8  c5.1-5.2,8.1-11.2,8.8-16.5c0.1-0.5,0.1-1.1,0.1-1.6c0-0.2,0-0.4,0-0.5c0-0.3,0-0.6,0-1c-0.2-2.8-1.2-5.2-3-6.9  c-1.9-1.9-4.6-2.9-7.8-2.9c-4.3,0-9.3,1.8-14.1,5.2c3.7-2.4,7.5-3.6,11.1-3.6c2.9,0,5.5,0.9,7.4,2.8c0.7,0.8,1.3,1.6,1.7,2.5  c0.2,0.4,0.3,0.7,0.5,1.1c0.1,0.3,0.2,0.7,0.3,1c0.2,1,0.3,1.9,0.3,2.9c0,5.2-2.8,11.2-7.6,16.2c-0.6,0.6-1.3,1.2-1.9,1.7  c-0.3,0.3-0.6,0.4-0.8,0.6c-0.8,0.6-1.5,1.2-2.3,1.7c-0.5,0.3-1,0.6-1.5,0.9c-3.3,1.9-6.7,2.8-9.6,2.8h-0.1c-0.4,0-0.8,0-1.2,0  c-0.3,0-0.7-0.1-1-0.2c-0.5,0-0.8-0.1-1.2-0.3c-1.6-0.4-3-1.2-4.1-2.3c-2-2-2.8-4.6-2.8-7.5c0-1.5,0.2-3.2,0.7-4.8  c-0.9,2.4-1.3,4.8-1.3,6.9c0,3.2,0.9,5.9,2.9,7.8c1.8,1.8,4.2,2.7,6.9,2.9c0.3,0,0.6,0,0.9,0c0.2,0,0.4,0,0.6,0  C249.3,629.9,249.9,629.9,250.4,629.8z"></path>	<path class="st0" d="M264.1,604.1l-0.5-0.1l-5.2-1.4l-1.1-0.3l-1.1-0.3l-0.9-0.2l-6.2-1.7l-1-0.3l-0.8-0.2l-0.2-0.1l-0.8-0.2  l-1-0.2l-0.4-0.2l0.3,0.4l0.6,0.6l0.5,0.4l0.1,0.2l0.5,0.4l0.5,0.7l4.2,4.1l0.6,0.6l0.6,0.6l6.9,7.2l-1.2,1.2l-6.9-7.1l-0.6-0.6  l-0.6-0.7l-4.1-4.1l-0.7-0.6l-0.4-0.5l-0.2-0.1l-0.4-0.5l-0.6-0.6l-0.4-0.4l0.2,0.6l0.3,1l0.1,0.7l0.1,0.4l0.2,0.6l0.2,1.1l1.7,6.1  l0.3,1.3l0.4,1.2l0.3,1.3l1.5,5.5l0.1,0.5l-0.8,0.2l-0.9,0.2l-1-3.9l-0.3-1.4l-0.4-1.3L245,611l-1.3-4.9c-2.6,3.7-3.9,7.5-3.9,10.8  c0,2.7,0.8,4.8,2.3,6.3c0.7,0.7,1.4,1.2,2.2,1.6c0.3,0.1,0.6,0.2,0.9,0.3c0.4,0.2,0.7,0.2,1,0.3c0.7,0.1,1.5,0.2,2.3,0.2  c4.5,0,10.1-2.5,14.8-7.2c4.8-4.6,7.2-10.3,7.2-14.9c0-1.2-0.2-2.4-0.6-3.5c-0.1-0.3-0.3-0.7-0.4-1c-0.2-0.3-0.4-0.6-0.6-0.9  c-0.2-0.3-0.5-0.6-0.7-0.9c-1.6-1.5-3.8-2.3-6.3-2.3c-3.4,0-7.2,1.3-10.9,3.9l4.9,1.3l2.4,0.6l1.2,0.4l1.3,0.3l3.9,1.1l-0.3,0.8  L264.1,604.1z"></path>	<path class="st0" d="M243.4,598.6c0.2-0.2,0.3-0.5,0.4-0.8v-0.1c0-0.3-0.1-0.6-0.4-0.8c-0.2-0.3-0.5-0.4-0.8-0.4  c-0.3,0-0.6,0.1-0.9,0.4c-0.2,0.2-0.3,0.5-0.3,0.8c0,0.3,0.1,0.6,0.3,0.9c0.3,0.2,0.6,0.3,0.9,0.3  C242.9,598.9,243.2,598.8,243.4,598.6z"></path>	<path class="st0" d="M234.2,590.2c1.3-1.3,2.9-1.9,4.7-1.9c0.6,0,1.3,0,1.9,0.2c0.5,0.1,1-0.1,1.1-0.6c0.1-0.4-0.2-0.9-0.6-1  c-0.8-0.2-1.6-0.3-2.4-0.3c-2.2,0-4.2,0.8-5.9,2.4c-1.6,1.5-2.3,3.7-2.3,5.9c0,0.7,0.1,1.6,0.3,2.4c0.1,0.3,0.4,0.6,0.8,0.6h0.2  c0.5-0.1,0.7-0.6,0.7-1c-0.2-0.7-0.3-1.4-0.3-2C232.4,593.1,233,591.4,234.2,590.2z"></path>	<polygon class="st0" points="251.7,362.3 242.7,358.3 236.1,360.8 254.3,369  "></polygon>	<path class="st0" d="M269.3,364.5l11.3-25.1c0.6-1.3,0-2.9-1.3-3.5l-34.9-15.7c-1.3-0.6-2.9,0-3.5,1.3l-11.3,25.1  c-0.6,1.2,0,2.9,1.4,3.5l34.9,15.7C267.1,366.4,268.7,365.7,269.3,364.5z M243.5,323.8l14.1,6.4c0,0.1,0,0.1-0.1,0.1l-4.5,10.1  l-3.9-1.8l2.6,12.2l10.8-6.1l-3.9-1.8l4.5-10.1c0-0.1,0-0.1,0.1-0.1l14,6.3L267,361.3l-33.6-15.2L243.5,323.8z"></path>	<path class="st0" d="M231.8,462.8c-0.6,1.5,0.1,3.2,1.6,3.9c1.5,0.7,3.2,0,3.9-1.6c0.6-1.5-0.1-3.2-1.6-3.9  C234.1,460.7,232.4,461.4,231.8,462.8z"></path>	<path class="st0" d="M237.8,458.2c0.1,0,0.1,0.1,0.2,0.1c1,0.5,2.2,0,2.7-1.1l0.1-0.3c0.4-1-0.1-2.2-1.1-2.7  c-0.1,0-0.2-0.1-0.2-0.1c-5.8-2.5-12.5,0.2-14.9,6c0,0.1,0,0.1-0.1,0.2c0,0.1-0.1,0.2-0.1,0.3c-0.3,1,0.1,2.1,1.1,2.5l0.2,0.1  c1.1,0.5,2.3-0.1,2.7-1.2c0,0,0,0,0,0c0-0.1,0.1-0.2,0.1-0.3C230.1,458.4,234.2,456.7,237.8,458.2z"></path>	<path class="st0" d="M241.2,450.3c0.1,0,0.1,0,0.2,0.1c1,0.5,2.2,0,2.7-1l0.3-0.6c0.4-1,0-2.2-1-2.6c-0.1,0-0.2-0.1-0.3-0.1  c-10.4-4.4-22.3,0.5-26.8,10.9c0,0.1,0,0.1-0.1,0.2c0,0.1-0.1,0.2-0.1,0.3c-0.4,1,0.1,2.1,1.1,2.5l0.7,0.3c1,0.4,2.2-0.1,2.7-1.1  c0-0.1,0.1-0.2,0.1-0.2C223.9,450.7,233.2,446.9,241.2,450.3z"></path>	<path class="st0" d="M244.5,442.4c0.1,0,0.1,0.1,0.2,0.1c1,0.4,2.2,0,2.7-1.1l0.1-0.3c0.4-1.1-0.1-2.3-1.2-2.7c0,0-0.1,0-0.1,0  c-14.6-6.2-31.5,0.7-37.6,15.3c0,0.1-0.1,0.2-0.1,0.2c-0.5,1,0,2.3,1.1,2.7l0.3,0.1c1,0.4,2.2-0.1,2.6-1.1c0-0.1,0.1-0.2,0.1-0.3  C217.8,443,232.1,437.1,244.5,442.4z"></path></g></svg>