<svg xmlns="http://www.w3.org/2000/svg" xmlns:xlink="http://www.w3.org/1999/xlink" id="Calque_1" x="0px" y="0px" viewBox="0 0 70.44 45.04" style="enable-background:new 0 0 70.44 45.04;" xml:space="preserve"><style type="text/css">	.st0{display:none;}	.st1{display:inline;fill:#1A2446;}	.st2{display:none;fill:#1A2446;}	.st3{fill-rule:evenodd;clip-rule:evenodd;fill:#1A2446;}	.st4{fill:#1A2446;}</style><g class="st0">	<path class="st1" d="M50.67,15.86c-1.8-2.39-3.62-4.77-5.49-7.11C44,7.26,41.62,7.27,40.44,8.76c-1.86,2.34-3.7,4.71-5.48,7.11  c-1.32,1.77-0.33,4.31,1.81,4.85c0.46,0.12,0.94,0.11,1.4,0.09c0.3-0.01,0.4,0.07,0.39,0.38c-0.02,1.65-0.01,3.3-0.01,4.95  c0,1.6,0,3.19,0,4.79c0,1.54,0.89,2.45,2.42,2.45c1.23,0,2.46,0,3.69,0c0.25,0,0.5-0.01,0.74-0.07c1.05-0.27,1.67-1.12,1.67-2.31  c0.01-1.92,0-3.85,0-5.77c0-1.36,0.01-2.72-0.01-4.08c0-0.26,0.06-0.35,0.33-0.33c0.3,0.02,0.6,0.01,0.9-0.01  c1.22-0.07,2.1-0.68,2.63-1.76C51.47,17.95,51.41,16.84,50.67,15.86z"></path>	<path class="st1" d="M34.06,25.33c-0.46-0.1-0.91-0.06-1.37-0.06c-0.28,0-0.37-0.05-0.37-0.36c0.02-1.69,0.01-3.38,0.01-5.06  c0-1.65,0-3.3,0-4.95c0-1.25-0.95-2.2-2.21-2.2c-1.33,0-2.67,0-4,0s-2.27,0.93-2.27,2.26c0,2.08,0,4.16,0,6.24  c0,1.24-0.01,2.49,0.01,3.73c0,0.28-0.07,0.36-0.35,0.34c-0.3-0.03-0.6-0.01-0.9,0c-1.67,0.03-3.12,1.69-2.96,3.35  c0.08,0.82,0.46,1.47,0.95,2.1c1.64,2.1,3.26,4.22,4.89,6.33c1.37,1.77,3.71,1.86,5.08,0.14c1.82-2.29,3.62-4.61,5.36-6.96  C37.29,28.41,36.27,25.82,34.06,25.33z"></path>	<path class="st1" d="M25.27,10.81c1.78,0,3.56,0,5.34,0c0.89,0,1.57-0.68,1.57-1.55c0-0.9-0.67-1.58-1.57-1.59  c-0.89,0-1.78,0-2.67,0s-1.78,0-2.67,0S23.7,8.35,23.7,9.22C23.69,10.13,24.36,10.81,25.27,10.81z"></path>	<path class="st1" d="M45.37,35.32c-0.88,0-1.75,0-2.63,0c-0.9,0-1.81,0-2.71,0c-0.89,0-1.57,0.68-1.57,1.55  c0,0.9,0.67,1.59,1.57,1.59c1.78,0,3.56,0,5.34,0c0.89,0,1.57-0.68,1.57-1.55C46.95,36,46.28,35.32,45.37,35.32z"></path></g><g class="st0">	<path class="st1" d="M68.23,20.18c0-0.28,0-0.56-0.05-0.83c-0.66-3.62-3.39-5.89-7.07-5.9c-0.84,0-1.67,0-2.51,0  c-0.02,0-0.05,0-0.07,0h-4.05c-0.65,0-1.3,0.01-1.95,0.02c-0.11,0-0.21,0-0.29-0.02H48.7c-0.08,0.01-0.16,0.01-0.27,0.01  c-0.82-0.01-1.64-0.01-2.45-0.01h-5.92c-0.22,0-0.43,0-0.65,0c-2.35,0-4.7,0-7.06,0h-0.43l0,0c-7.4,0-14.8,0-22.2,0  c-3.13,0-5.7,1.82-6.69,4.69c-0.12,0.35-0.11,0.75-0.34,1.06c0,2.56,0,5.12,0,7.68c0.03,0.02,0.09,0.04,0.09,0.07  c0.56,3.33,3.67,5.71,7.4,5.7c16.85-0.07,33.71-0.03,50.56-0.03c0.28,0,0.56,0,0.83-0.01c3.81-0.18,6.65-3.13,6.65-6.94  C68.24,23.85,68.23,22.01,68.23,20.18z M65.41,26.38c-0.12,1.77-1.89,3.35-3.78,3.45c-0.17,0.01-0.34,0.01-0.51,0.01  c-17.11,0-34.22,0-51.33,0c-2.15,0-3.68-1.12-4.22-3.09c-0.09-0.32-0.12-0.67-0.12-1.01c0.01-1.96-0.08-3.93,0.04-5.89  c0.11-1.83,1.8-3.49,3.63-3.59c0.6-0.03,1.19-0.02,1.79-0.02c8.19,0,16.38,0,24.58,0c8.53,0,17.07,0,25.6,0  c2.2,0,3.66,1.07,4.25,3.05c0.08,0.28,0.09,0.55,0.1,0.82C65.49,22.2,65.55,24.29,65.41,26.38z"></path>	<path class="st1" d="M58.95,21.72c-0.22-0.06-0.46-0.07-0.69-0.07c-4.28,0-8.56,0-12.84-0.01c-0.32,0-0.65,0.01-0.94,0.15  c-0.55,0.26-0.86,0.7-0.82,1.32c0.04,0.61,0.36,1.03,0.95,1.22c0.29,0.09,0.58,0.11,0.88,0.11c2.11-0.01,4.22,0,6.33,0  s4.22,0,6.33,0c0.25,0,0.5,0,0.76-0.06c0.72-0.19,1.13-0.66,1.13-1.34C60.03,22.38,59.64,21.89,58.95,21.72z"></path>	<path class="st1" d="M12.23,21.65c-0.71,0.01-1.33,0.64-1.35,1.36c-0.01,0.74,0.62,1.41,1.35,1.41c0.73,0.01,1.37-0.64,1.37-1.39  C13.61,22.3,12.95,21.64,12.23,21.65z"></path>	<path class="st1" d="M20.44,21.65c-0.71,0-1.34,0.62-1.36,1.34c-0.02,0.74,0.59,1.41,1.33,1.43c0.72,0.02,1.38-0.63,1.39-1.37  C21.81,22.31,21.17,21.65,20.44,21.65z"></path>	<path class="st1" d="M28.59,21.66c-0.72,0.03-1.32,0.66-1.32,1.38c0,0.74,0.65,1.4,1.37,1.39c0.74-0.01,1.36-0.66,1.35-1.41  C29.98,22.27,29.31,21.62,28.59,21.66z"></path>	<path class="st1" d="M36.81,21.65c-0.71,0.01-1.33,0.64-1.35,1.35c-0.02,0.74,0.61,1.41,1.35,1.42c0.73,0.01,1.37-0.64,1.38-1.39  C38.19,22.3,37.53,21.64,36.81,21.65z"></path></g><path class="st2" d="M17.02,29.44c0-0.89,0.01-1.78,0-2.67c-0.01-1.05,0.41-1.87,1.28-2.45c0.23-0.16,0.33-0.31,0.35-0.59 c0.35-4.67,2.32-8.54,5.84-11.61c2.63-2.29,5.72-3.66,9.19-3.98c5.78-0.53,10.67,1.39,14.53,5.74c2.49,2.81,3.84,6.15,4.08,9.91 c0.02,0.25,0.12,0.36,0.31,0.49c0.89,0.58,1.32,1.42,1.31,2.49c-0.01,1.78,0,3.56,0,5.34c-0.01,2.15-2.06,3.5-4.05,2.65 c-0.31-0.13-0.5-0.12-0.77,0.07c-2.05,1.37-4.35,2-6.77,2.26c-0.28,0.03-0.5,0.07-0.69,0.32c-0.31,0.43-0.76,0.63-1.3,0.62 c-0.73-0.01-1.47,0.01-2.2-0.01c-0.95-0.02-1.66-0.72-1.68-1.64c-0.02-0.86,0.67-1.65,1.57-1.7c0.83-0.05,1.66-0.02,2.49,0 c0.31,0.01,0.64,0.1,0.84,0.34c0.32,0.39,0.69,0.4,1.12,0.34c1.96-0.28,3.83-0.82,5.53-1.88c0.25-0.15,0.37-0.27,0.28-0.63 c-0.19-0.71-0.1-1.46-0.1-2.19c0-1.39-0.01-2.78,0.03-4.18c0.02-0.93,0.46-1.66,1.24-2.17c0.19-0.13,0.3-0.24,0.27-0.5 c-0.69-5.91-3.72-10.1-9.28-12.26c-8.3-3.22-17.56,2.16-19.03,10.94c-0.03,0.19-0.06,0.38-0.1,0.57c-0.16,0.66-0.07,1.15,0.58,1.59 c0.69,0.47,0.88,1.29,0.88,2.11c0.01,1.78,0.03,3.56-0.01,5.34c-0.03,1.62-1.12,2.8-2.59,2.89c-1.57,0.1-2.91-0.84-3.1-2.33 c-0.13-1.07-0.03-2.16-0.03-3.24C17.04,29.44,17.03,29.44,17.02,29.44z"></path><path class="st3" d="M26.34,5.6c-1.33,1.74-1.66,4.15-0.63,6.25c1.07,2.18,3.32,3.42,5.62,3.31c4.4,8.53,4.49,8.6,7.96,17.23 c-1.34,1.68-1.73,4.01-0.81,6.11c0.93,2.13,2.98,3.45,5.16,3.55l-1.97-4.51l4.43-1.94l2.04,4.69c1.64-1.68,2.21-4.25,1.2-6.55 c-1.04-2.38-3.47-3.73-5.93-3.53c-4.43-8.19-4.3-8.42-7.88-17.08c1.51-1.76,1.92-4.3,0.83-6.5c-1.09-2.25-3.42-3.48-5.75-3.31 l2.23,4.58l-4.33,2.13L26.34,5.6z"></path><path class="st4" d="M62.03,4.75c0.02-0.57-0.02-1.11-0.15-1.5c-0.1-0.29-0.24-0.52-0.31-0.63c-0.16-0.24-0.5-0.83-1.34-1.27 c-0.42-0.23-0.99-0.49-1.48-0.62c-0.42-0.08-0.78-0.08-0.99-0.08c-0.47,0-1.34,0.1-2.13,0.52c-0.68,0.37-1.35,1.08-1.58,1.42 c-0.63,0.96-0.77,1.71-1.03,2.46c-0.1,0.28-0.26,0.55-0.29,0.59c-0.06,0.11-0.5,0.54-0.67,0.77C51.89,6.62,52.02,7.03,52,7.11 c-0.03,0.06-0.5,0.41-1.06,0.86c-0.55,0.44-2.52,1.95-3.26,2.57c-0.77,0.6-3.97,3.14-4.62,3.65c-0.65,0.5-3.37,2.65-4.05,3.19 c-0.67,0.52-3.42,2.65-3.53,2.75c-0.15,0.1-0.72,0.55-1.27,0.99c-0.54,0.44-3.79,3.03-4.61,3.66c-0.81,0.62-3.13,2.44-4.04,3.17 c-0.93,0.73-2.31,1.89-2.8,2.25c-0.26,0.21-0.86,0.63-1.48,1.03c-0.54,0.31-1.09,0.6-1.42,0.73c-1.4,0.54-2.15,0.59-3.55,0.96 c-0.52,0.13-0.86,0.31-1.24,0.52c-0.98,0.54-1.63,1.73-1.89,2.38c-0.13,0.33-0.5,1.56-0.1,2.64c0.42,1.14,0.99,1.55,1.35,1.81 c0.36,0.28,1.38,0.6,2.46,0.55c0.93-0.03,1.91-0.39,2.36-0.73c1.01-0.75,1.17-1.08,1.6-1.82c0.24-0.42,0.41-0.99,0.59-1.42 c0.15-0.33,0.34-0.55,0.37-0.6c0.08-0.11,0.28-0.51,0.47-0.75c0.21-0.26,0.54-0.64,1.47-1.48c0.9-0.83,1.29-1.12,1.76-1.51 c0.47-0.37,1.66-1.37,3.16-2.54c1.5-1.19,2.61-2.03,3.17-2.47c0.54-0.44,2.05-1.58,2.8-2.18c0.75-0.6,2.57-2.05,3.17-2.56 c0.63-0.47,2.78-2.15,3.55-2.75c0.76-0.62,2.49-1.94,3.13-2.43c0.62-0.5,2.25-1.84,2.98-2.44c0.75-0.59,1.84-1.45,2.49-1.95 c0.65-0.49,1.56-1.22,2.23-1.71c0.68-0.49,2.02-1.45,2.1-1.46c0.08-0.03,0.21,0,0.39,0.05c0.16,0.06,0.34-0.06,0.47-0.15 c0.13-0.08,0.39-0.26,0.85-0.34c0.26-0.05,0.99,0,1.87-0.1c0.52-0.03,0.99-0.21,1.43-0.39c1.06-0.49,1.42-0.93,2.05-1.82 C61.69,6.8,62.02,5.73,62.03,4.75L62.03,4.75z M19.29,37.69L19.29,37.69c-0.05,0.06-0.36,0.47-0.42,0.57 c-0.06,0.11-0.05,0.41-0.15,0.52c-0.1,0.1-0.42,0.18-0.49,0.24l-0.67,0.63c-0.1,0.05-0.5-0.03-0.65-0.02 c-0.13,0.02-0.52,0.16-0.62,0.18c-0.11,0-0.55-0.46-0.63-0.51c-0.08-0.05-0.47,0.06-0.59-0.06c-0.1-0.11-0.18-0.33-0.23-0.51 c-0.05-0.16-0.36-0.49-0.46-0.55c-0.1-0.08-0.26-0.24-0.24-0.38c0.02-0.13,0.16-0.37,0.1-0.63c-0.07-0.24-0.21-0.59-0.18-0.67 c0.05-0.1,0.29-0.31,0.37-0.44c0.1-0.13,0.13-0.68,0.2-0.7c0.06-0.03,0.28-0.03,0.42-0.16c0.16-0.15,0.36-0.5,0.52-0.55 c0.15-0.03,0.57,0.1,0.7,0.08c0.13-0.03,0.63-0.26,0.68-0.24c0.07,0.03,0.57,0.39,0.67,0.42c0.1,0.03,0.63,0.11,0.68,0.2 c0.05,0.11,0.21,0.54,0.33,0.63c0.1,0.13,0.47,0.46,0.5,0.54c0.03,0.08-0.13,0.62-0.1,0.73C19.07,37.13,19.33,37.62,19.29,37.69 L19.29,37.69z M57.93,8.04L57.93,8.04c-0.11,0.02-0.6,0.31-0.7,0.26c-0.1-0.03-0.62-0.39-0.86-0.44c-0.26-0.06-0.63-0.05-0.7-0.15 c-0.08-0.08-0.33-0.63-0.49-0.77c-0.15-0.15-0.55-0.46-0.59-0.57c-0.03-0.1,0-0.41,0-0.73c-0.02-0.33,0.06-0.54-0.05-0.63 c-0.1-0.06-0.28-0.34-0.23-0.39c0.07-0.05,0.44-0.59,0.47-0.8c0.03-0.21,0.07-0.7,0.11-0.73c0.06-0.02,0.31,0.05,0.63-0.19 c0.33-0.23,0.63-0.68,0.72-0.68c0.05,0,0.67,0.08,0.8,0.05c0.15-0.02,0.7-0.29,0.83-0.29c0.21,0.02,0.7,0.42,0.85,0.46 c0.15,0.03,0.65,0.08,0.77,0.18c0.21,0.21,0.18,0.54,0.44,0.78c0.11,0.11,0.47,0.31,0.52,0.44c0.11,0.2-0.05,0.47,0.03,0.86 c0.06,0.37,0.28,0.7,0.28,0.77c-0.02,0.08-0.33,0.39-0.44,0.73c-0.11,0.33-0.03,0.65-0.1,0.73c-0.11,0.13-0.8,0.46-0.85,0.52 L58.83,8.1C58.74,8.14,58.06,8.01,57.93,8.04L57.93,8.04z M30.3,25.26l13.2-10.27l1.25,1.61l-13.2,10.27L30.3,25.26z"></path></svg>