<?xml version="1.0" encoding="utf-8"?>
<!-- Generator: Adobe Illustrator 24.2.3, SVG Export Plug-In . SVG Version: 6.00 Build 0)  -->
<svg version="1.1" id="Calque_1" xmlns="http://www.w3.org/2000/svg" xmlns:xlink="http://www.w3.org/1999/xlink" x="0px" y="0px"
	 viewBox="0 0 526 366" style="enable-background:new 0 0 526 366;" xml:space="preserve">
<style type="text/css">
	.st0{opacity:0.1;fill:#D1D2D4;enable-background:new    ;}
	.st1{opacity:0.1225;fill:#D0D1D3;enable-background:new    ;}
	.st2{opacity:0.145;fill:#CFD0D2;enable-background:new    ;}
	.st3{opacity:0.1675;fill:#CECFD1;enable-background:new    ;}
	.st4{opacity:0.19;fill:#CDCED0;enable-background:new    ;}
	.st5{opacity:0.2125;fill:#CCCDCF;enable-background:new    ;}
	.st6{opacity:0.235;fill:#CBCCCE;enable-background:new    ;}
	.st7{opacity:0.2575;fill:#CACBCD;enable-background:new    ;}
	.st8{opacity:0.28;fill:#C9CACC;enable-background:new    ;}
	.st9{opacity:0.3025;fill:#C8C9CB;enable-background:new    ;}
	.st10{opacity:0.325;fill:#C7C8C9;enable-background:new    ;}
	.st11{opacity:0.3475;fill:#C6C7C8;enable-background:new    ;}
	.st12{opacity:0.37;fill:#C5C6C7;enable-background:new    ;}
	.st13{opacity:0.3925;fill:#C4C5C6;enable-background:new    ;}
	.st14{opacity:0.415;fill:#C3C4C5;enable-background:new    ;}
	.st15{opacity:0.4375;fill:#C2C3C4;enable-background:new    ;}
	.st16{opacity:0.46;fill:#C1C2C3;enable-background:new    ;}
	.st17{opacity:0.4825;fill:#C0C1C2;enable-background:new    ;}
	.st18{opacity:0.505;fill:#BFC0C1;enable-background:new    ;}
	.st19{opacity:0.5275;fill:#BEBFC0;enable-background:new    ;}
	.st20{opacity:0.55;fill:#BCBEBF;enable-background:new    ;}
	.st21{opacity:0.5725;fill:#BBBDBE;enable-background:new    ;}
	.st22{opacity:0.595;fill:#BABCBD;enable-background:new    ;}
	.st23{opacity:0.6175;fill:#B9BBBC;enable-background:new    ;}
	.st24{opacity:0.64;fill:#B8BABB;enable-background:new    ;}
	.st25{opacity:0.6625;fill:#B7B9BA;enable-background:new    ;}
	.st26{opacity:0.685;fill:#B6B8B9;enable-background:new    ;}
	.st27{opacity:0.7075;fill:#B5B7B8;enable-background:new    ;}
	.st28{opacity:0.73;fill:#B4B6B7;enable-background:new    ;}
	.st29{opacity:0.7525;fill:#B3B5B6;enable-background:new    ;}
	.st30{opacity:0.775;fill:#B2B4B5;enable-background:new    ;}
	.st31{opacity:0.7975;fill:#B1B3B4;enable-background:new    ;}
	.st32{opacity:0.82;fill:#B0B2B3;enable-background:new    ;}
	.st33{opacity:0.8425;fill:#AFB1B2;enable-background:new    ;}
	.st34{opacity:0.865;fill:#AEB0B1;enable-background:new    ;}
	.st35{opacity:0.8875;fill:#ADAFB0;enable-background:new    ;}
	.st36{opacity:0.91;fill:#ACAEAF;enable-background:new    ;}
	.st37{opacity:0.9325;fill:#ABADAE;enable-background:new    ;}
	.st38{opacity:0.955;fill:#AAACAD;enable-background:new    ;}
	.st39{opacity:0.9775;fill:#A9ABAC;enable-background:new    ;}
	.st40{fill:#A8AAAB;}
	.st41{fill:#FFFFFF;}
	.st42{fill:url(#SVGID_1_);}
	.st43{fill:url(#SVGID_2_);}
	.st44{fill:#D1D2D4;}
	.st45{fill:#D0E4BD;}
	.st46{fill:url(#SVGID_3_);}
	.st47{fill:#FFE3A7;}
	.st48{fill:url(#SVGID_4_);}
	.st49{fill:url(#SVGID_5_);}
	.st50{fill:url(#SVGID_6_);}
	.st51{fill:url(#SVGID_7_);}
	.st52{fill:url(#SVGID_8_);}
	.st53{fill:url(#SVGID_9_);}
	.st54{fill:url(#SVGID_10_);}
	.st55{fill:url(#SVGID_11_);}
	.st56{fill:url(#SVGID_12_);}
	.st57{fill:url(#SVGID_13_);}
	.st58{fill:url(#SVGID_14_);}
	.st59{fill:url(#SVGID_15_);}
	.st60{fill:url(#SVGID_16_);}
	.st61{fill:url(#SVGID_17_);}
	.st62{fill:url(#SVGID_18_);}
	.st63{fill:url(#SVGID_19_);}
	.st64{fill:url(#SVGID_20_);}
	.st65{fill:url(#SVGID_21_);}
	.st66{fill:url(#SVGID_22_);}
	.st67{fill:url(#SVGID_23_);}
	.st68{fill:url(#SVGID_24_);}
	.st69{fill:url(#SVGID_25_);}
	.st70{fill:url(#SVGID_26_);}
	.st71{fill:url(#SVGID_27_);}
	.st72{fill:url(#SVGID_28_);}
	.st73{fill:url(#SVGID_29_);}
</style>
<g>
	<g>
		<polygon class="st0" points="210.27,43.44 18.82,154.6 320.98,329.29 514.2,216.36 		"/>
		<polygon class="st1" points="210.38,43.74 19.42,154.62 320.81,328.85 513.53,216.21 		"/>
		<polygon class="st2" points="210.49,44.04 20.03,154.63 320.63,328.41 512.85,216.06 		"/>
		<polygon class="st3" points="210.6,44.34 20.63,154.64 320.45,327.97 512.17,215.92 		"/>
		<polygon class="st4" points="210.71,44.64 21.23,154.66 320.27,327.53 511.5,215.77 		"/>
		<polygon class="st5" points="210.82,44.94 21.84,154.67 320.1,327.1 510.82,215.62 		"/>
		<polygon class="st6" points="210.92,45.24 22.44,154.68 319.92,326.66 510.14,215.48 		"/>
		<polygon class="st7" points="211.03,45.54 23.04,154.7 319.74,326.22 509.47,215.33 		"/>
		<polygon class="st8" points="211.14,45.84 23.64,154.71 319.56,325.78 508.79,215.19 		"/>
		<polygon class="st9" points="211.25,46.14 24.25,154.72 319.39,325.35 508.11,215.04 		"/>
		<polygon class="st10" points="211.36,46.44 24.85,154.74 319.21,324.91 507.43,214.89 		"/>
		<polygon class="st11" points="211.47,46.74 25.45,154.75 319.03,324.47 506.76,214.75 		"/>
		<polygon class="st12" points="211.57,47.04 26.06,154.76 318.85,324.03 506.08,214.6 		"/>
		<polygon class="st13" points="211.68,47.34 26.66,154.78 318.68,323.59 505.4,214.46 		"/>
		<polygon class="st14" points="211.79,47.64 27.26,154.79 318.5,323.16 504.73,214.31 		"/>
		<polygon class="st15" points="211.9,47.94 27.86,154.8 318.32,322.72 504.05,214.16 		"/>
		<polygon class="st16" points="212.01,48.24 28.47,154.82 318.14,322.28 503.37,214.02 		"/>
		<polygon class="st17" points="212.12,48.54 29.07,154.83 317.97,321.84 502.7,213.87 		"/>
		<polygon class="st18" points="212.22,48.85 29.67,154.84 317.79,321.4 502.02,213.72 		"/>
		<polygon class="st19" points="212.33,49.15 30.28,154.86 317.61,320.97 501.34,213.58 		"/>
		<polygon class="st20" points="212.44,49.45 30.88,154.87 317.43,320.53 500.67,213.43 		"/>
		<polygon class="st21" points="212.55,49.75 31.48,154.88 317.25,320.09 499.99,213.29 		"/>
		<polygon class="st22" points="212.66,50.05 32.08,154.9 317.08,319.65 499.31,213.14 		"/>
		<polygon class="st23" points="212.77,50.35 32.69,154.91 316.9,319.21 498.64,212.99 		"/>
		<polygon class="st24" points="212.87,50.65 33.29,154.92 316.72,318.78 497.96,212.85 		"/>
		<polygon class="st25" points="212.98,50.95 33.89,154.94 316.54,318.34 497.28,212.7 		"/>
		<polygon class="st26" points="213.09,51.25 34.5,154.95 316.37,317.9 496.61,212.55 		"/>
		<polygon class="st27" points="213.2,51.55 35.1,154.96 316.19,317.46 495.93,212.41 		"/>
		<polygon class="st28" points="213.31,51.85 35.7,154.98 316.01,317.03 495.25,212.26 		"/>
		<polygon class="st29" points="213.42,52.15 36.3,154.99 315.83,316.59 494.58,212.12 		"/>
		<polygon class="st30" points="213.52,52.45 36.91,155 315.66,316.15 493.9,211.97 		"/>
		<polygon class="st31" points="213.63,52.75 37.51,155.02 315.48,315.71 493.22,211.82 		"/>
		<polygon class="st32" points="213.74,53.05 38.11,155.03 315.3,315.27 492.55,211.68 		"/>
		<polygon class="st33" points="213.85,53.35 38.72,155.04 315.12,314.84 491.87,211.53 		"/>
		<polygon class="st34" points="213.96,53.65 39.32,155.06 314.95,314.4 491.19,211.39 		"/>
		<polygon class="st35" points="214.07,53.95 39.92,155.07 314.77,313.96 490.52,211.24 		"/>
		<polygon class="st36" points="214.17,54.25 40.52,155.08 314.59,313.52 489.84,211.09 		"/>
		<polygon class="st37" points="214.28,54.55 41.13,155.1 314.41,313.08 489.16,210.95 		"/>
		<polygon class="st38" points="214.39,54.85 41.73,155.11 314.23,312.65 488.49,210.8 		"/>
		<polygon class="st39" points="214.5,55.15 42.33,155.12 314.06,312.21 487.81,210.65 		"/>
		<polygon class="st40" points="214.61,55.46 42.94,155.14 313.88,311.77 487.13,210.51 		"/>
	</g>
	<polygon class="st41" points="320.98,326.85 514.2,213.92 443.52,156.18 370.69,131.87 299.31,76.51 210.27,41 18.82,152.17 
		106.38,187.67 178.88,244.32 250.28,268.45 	"/>
	
		<linearGradient id="SVGID_1_" gradientUnits="userSpaceOnUse" x1="121.019" y1="340.9587" x2="269.4821" y2="377.5207" gradientTransform="matrix(1 0 0 -1 0 405)">
		<stop  offset="5.050510e-03" style="stop-color:#442680"/>
		<stop  offset="0.1146" style="stop-color:#502982"/>
		<stop  offset="0.3257" style="stop-color:#6F3289"/>
		<stop  offset="0.4747" style="stop-color:#873A8E"/>
		<stop  offset="0.5699" style="stop-color:#8B3B8E"/>
		<stop  offset="0.6714" style="stop-color:#944091"/>
		<stop  offset="0.7758" style="stop-color:#A44A96"/>
		<stop  offset="0.8822" style="stop-color:#B9599D"/>
		<stop  offset="0.9891" style="stop-color:#D36CA7"/>
		<stop  offset="1" style="stop-color:#D66FA9"/>
	</linearGradient>
	<path class="st42" d="M121.81,81.07c-0.19,0-0.38-0.1-0.48-0.28c-0.15-0.26-0.06-0.6,0.2-0.76l99.78-57.93l0.25,0.1l49.93,19.91
		c0.28,0.11,0.42,0.44,0.31,0.72c-0.11,0.28-0.43,0.42-0.72,0.31l-49.67-19.81L122.09,81C122,81.05,121.91,81.07,121.81,81.07z"/>
	
		<linearGradient id="SVGID_2_" gradientUnits="userSpaceOnUse" x1="384.1085" y1="-0.5355" x2="183.9416" y2="384.2866" gradientTransform="matrix(1 0 0 -1 0 405)">
		<stop  offset="0.0758" style="stop-color:#F0EFF2"/>
		<stop  offset="1" style="stop-color:#FFFFFF"/>
	</linearGradient>
	<polygon class="st43" points="253.02,263.53 181.54,239.37 109.18,182.83 31.38,151.28 210.72,47.14 296.53,81.36 368.04,136.82 
		440.8,161.11 504.52,213.16 321.53,320.11 	"/>
	<g>
		<polygon class="st44" points="216.51,104.79 209.86,108.85 217.98,118.45 229.8,112.54 		"/>
		<g>
			<path class="st44" d="M171.66,231.65l40.73-25.58l13.83,10.29c0.14,0.1,0.29,0.18,0.46,0.24l8.55,2.89l-20.86,12.19l1.68,2.87
				l24-14.03c0.56-0.33,0.88-0.96,0.81-1.6c-0.07-0.65-0.5-1.2-1.12-1.41L228,213.54l-12.58-9.36l11.95-7.5l-1.77-2.82l-56.72,35.61
				L171.66,231.65z"/>
			<polygon class="st44" points="81.89,134.89 44.92,156.77 48.79,158.34 85.69,136.5 85.55,136.26 102.36,142.53 103.52,139.42 
				72.05,127.67 68.33,129.83 			"/>
			<path class="st44" d="M178.07,141.57c0.22,0.1,0.45,0.14,0.68,0.14c0.31,0,0.61-0.09,0.88-0.25l13.8-8.66l5.17,2.21l29.7,27.5
				l2.26-2.44l-6.95-6.44l36.42-22.32c0.45-0.28,0.74-0.75,0.79-1.27c0.05-0.53-0.16-1.04-0.56-1.39l-20.31-17.91
				c-0.06-0.06-0.13-0.11-0.21-0.16l-21.79-13.85l-1.78,2.8l21.68,13.78l10.23,9.02l-35.09,21.46l-12.35-11.43
				c-0.14-0.13-0.3-0.23-0.48-0.31l-46.53-19.85l-1.3,3.06l37.38,15.94l-11.1,6.96l-57.45-25.62l22.43-13.46l-1.71-2.85
				l-24.42,14.65l-9.36-4.17l-3.55,2.06L178.07,141.57z M250.69,124.64l5.69,5.01l-35.3,21.63l-5.55-5.14L250.69,124.64z"/>
			<polygon class="st44" points="381.26,259.44 378.96,261.83 394.97,277.19 397.95,275.45 			"/>
			<polygon class="st44" points="258.04,251.69 256.22,248.9 240.38,259.26 244.38,260.61 			"/>
			<path class="st44" d="M402.48,197.39c0.11,0.63,0.57,1.14,1.18,1.32l25.85,7.39l0.91-3.2l-24.85-7.1l-1.42-8.36l40.46-23.22
				l-2.75-2.25l-38.3,21.98l-0.76-4.48c-0.09-0.52-0.42-0.96-0.88-1.2l-7.85-4.01l31.63-18.2l-4.22-1.41l-30.94,17.8l-24.07-12.29
				l-1.51,2.96l34.71,17.72L402.48,197.39z"/>
			<polygon class="st44" points="313.61,94.61 300.99,101.87 302.65,104.75 316.44,96.81 			"/>
		</g>
		<polygon class="st45" points="258.98,155.01 304.03,153.17 345.03,144.67 364.97,155.01 330.25,176.43 317.7,173.11 
			260.82,193.42 243.47,161.29 		"/>
		<polygon class="st45" points="209.49,45.33 138.03,87.98 164.62,101.28 194.53,89.09 215.58,90.75 251.04,71.36 247.71,60.84 		
			"/>
		<polygon class="st45" points="276.52,203.21 241.62,215.39 242.17,222.6 247.16,236.45 274.86,248.63 279.84,251.96 
			282.61,254.17 333.58,265.25 345.77,273.56 371.25,258.05 359.06,237.55 371.25,213.73 359.61,204.31 319.17,186.03 		"/>
		
			<linearGradient id="SVGID_3_" gradientUnits="userSpaceOnUse" x1="182.351" y1="70.7533" x2="324.9054" y2="382.4525" gradientTransform="matrix(1 0 0 -1 0 405)">
			<stop  offset="0.0354" style="stop-color:#148CBE"/>
			<stop  offset="0.2789" style="stop-color:#2D97C4"/>
			<stop  offset="0.7486" style="stop-color:#58B5D4"/>
			<stop  offset="1" style="stop-color:#70C8DE"/>
		</linearGradient>
		<path class="st46" d="M285.23,290.14l30.05,24.82c3.01-15.79,8.39-48.49,10.17-71.68c1.67-21.74-16.84-32.39-26.59-42.84
			c-5.99-6.43-8.25-12.53-10.7-20.05c-3.14-9.63-1.31-18.47,0.8-28.71c2.17-10.52,7.61-23.75,3.99-36.92
			c-4.06-14.77-24.56-22.31-44.84-32.55c-15.95-8.06-29.89-20.96-38.87-34.19l-27.36,15.89c13.88,16.71,39.42,24.53,59.38,34.61
			c12.25,6.19,25.9,18.14,27.36,23.43c2.21,8.03,0.56,16.02-1.34,25.26c-2.4,11.64-8.57,25.64-3.61,40.85
			c3.97,12.18,11.94,20.73,18.96,28.27c9.73,10.44,18.64,16.1,17.76,27.59C299.17,259.58,291.27,278.02,285.23,290.14z"/>
		<path class="st47" d="M351.57,283.01l82.37-50.94c1.01-0.62,1.61-1.73,1.57-2.92l-1.06-39.73l22.41-15.2l-5.37-4.39l-22.27,15.11
			c-0.94,0.64-1.49,1.71-1.46,2.84l1.06,39.64l-82.58,51.07l0.06,0.1l-11.69-9.8c-0.43-0.36-0.95-0.61-1.5-0.72l-53.29-10.33
			l-5.38-5.37c-0.34-0.34-0.75-0.6-1.19-0.77l-68.12-25.27l-55.36-48.12l65.32-39.19c1.38-0.83,1.97-2.52,1.4-4.03l-10.8-28.48
			l47.27-26.49l24.67,9.76l69.97,55.1c0.16,0.13,0.33,0.24,0.51,0.33l19.06,10.01l-39.23,24.68l3.54,5.63l63.25-39.79l-8.16-2.72
			l-13.5,8.5l0.28-0.54l-21.89-11.49l-70.11-55.21c-0.25-0.2-0.53-0.36-0.83-0.48l-26.59-10.53c-0.93-0.37-1.97-0.3-2.85,0.19
			l-49.76,27.89L163.66,104l-26.97-13.85l-6.83,3.96l26.3,13.51l-92.99,56.56l7.68,3.11L164,110.63l35.19-2.48l10.09,26.61
			l-66.86,40.12c-0.91,0.55-1.51,1.5-1.6,2.56c-0.09,1.06,0.33,2.1,1.13,2.8l59.27,51.52c0.3,0.26,0.65,0.47,1.02,0.61l20.36,7.55
			l-13.38,8.81l7.99,2.7l13.13-8.65l39.92,14.81l5.58,5.58c0.47,0.47,1.07,0.79,1.72,0.91l53.45,10.36l28.22,23.64l6.1-3.56
			L351.57,283.01z"/>
		
			<linearGradient id="SVGID_4_" gradientUnits="userSpaceOnUse" x1="287.3602" y1="222.2274" x2="-7.7196" y2="346.6853" gradientTransform="matrix(1 0 0 -1 0 405)">
			<stop  offset="0.0354" style="stop-color:#F5A78E"/>
			<stop  offset="0.2409" style="stop-color:#F7B393"/>
			<stop  offset="0.637" style="stop-color:#FBD19E"/>
			<stop  offset="1" style="stop-color:#FEEDA8"/>
		</linearGradient>
		<path class="st48" d="M368.67,196.03c-0.35-0.31-0.75-0.57-1.18-0.76l-46.53-20.5c-1.03-0.46-2.2-0.5-3.26-0.12l-76.32,26.87
			l-24.13-19.62c1.61-1.87,2.49-4.07,2.49-6.37c0-1.08-0.21-2.13-0.59-3.15l32.63-18.02l50-3.81c0.68-0.05,1.34-0.26,1.93-0.61
			l46.03-27.33l-7.53-5.84l-42.13,25.02l-49.93,3.8c-0.63,0.05-1.25,0.23-1.81,0.54l-35.51,19.61c-3.16-1.65-7.11-2.56-11.24-2.56
			c-2.23,0-4.4,0.27-6.42,0.77l-20-16.26c-0.33-0.27-0.69-0.48-1.08-0.65l-78.62-32.98l-9.61,5.58l84.21,35.33l16.62,13.51
			c-1.96,2-3.06,4.41-3.06,6.96c0,1.66,0.48,3.26,1.34,4.73l-44.56,27.07l7.47,5.84l44.46-27.01c2.8,1.12,6.06,1.72,9.43,1.72
			c2.59,0,5.1-0.36,7.38-1.04l28.56,23.22c1.2,0.97,2.82,1.26,4.27,0.74l77.01-27.12l44.28,19.5l62.46,56.11l8.03-4.7L368.67,196.03
			z M209.13,177.23c-1.86,1.08-4.55,1.69-7.36,1.69c-2.85,0-5.57-0.63-7.47-1.73c-1.35-0.78-1.8-1.53-1.8-1.75
			c0-0.21,0.44-0.94,1.74-1.69c1.86-1.08,4.55-1.69,7.36-1.69c2.85,0,5.57,0.63,7.47,1.73c1.35,0.78,1.8,1.53,1.8,1.76
			C210.87,175.75,210.43,176.47,209.13,177.23z"/>
		<polygon class="st45" points="434.95,253.06 423.32,241.43 438.83,231.46 457.11,183.82 463.76,181.05 503.09,213.18 		"/>
		<polygon class="st45" points="139.69,204.31 111.44,183.26 108.67,162.21 96.48,154.46 123.07,137.84 164.06,153.9 161.29,161.66 
			139.69,174.4 130.27,180.49 144.68,184.37 149.11,200.44 		"/>
		<g>
			
				<linearGradient id="SVGID_5_" gradientUnits="userSpaceOnUse" x1="377.9002" y1="232.8448" x2="184.2897" y2="361.3643" gradientTransform="matrix(1 0 0 -1 0 405)">
				<stop  offset="0.0354" style="stop-color:#873A8E"/>
				<stop  offset="0.2206" style="stop-color:#934091"/>
				<stop  offset="0.5795" style="stop-color:#B0529A"/>
				<stop  offset="1" style="stop-color:#D66FA9"/>
			</linearGradient>
			<path class="st49" d="M376.6,172.46c-0.19,0-0.38-0.04-0.56-0.12l-2.02-0.9c-0.7-0.31-1.01-1.13-0.7-1.83
				c0.31-0.7,1.13-1.01,1.83-0.7l2.02,0.9c0.7,0.31,1.01,1.13,0.7,1.83C377.64,172.16,377.13,172.46,376.6,172.46z"/>
			
				<linearGradient id="SVGID_6_" gradientUnits="userSpaceOnUse" x1="377.2007" y1="231.7907" x2="183.5886" y2="360.3114" gradientTransform="matrix(1 0 0 -1 0 405)">
				<stop  offset="0.0354" style="stop-color:#873A8E"/>
				<stop  offset="0.2206" style="stop-color:#934091"/>
				<stop  offset="0.5795" style="stop-color:#B0529A"/>
				<stop  offset="1" style="stop-color:#D66FA9"/>
			</linearGradient>
			<path class="st50" d="M370.61,169.79c-0.19,0-0.38-0.04-0.56-0.12l-3.97-1.77c-0.7-0.31-1.01-1.13-0.7-1.83
				c0.31-0.7,1.13-1.01,1.83-0.7l3.97,1.77c0.7,0.31,1.01,1.13,0.7,1.83C371.65,169.48,371.14,169.79,370.61,169.79z"/>
			
				<linearGradient id="SVGID_7_" gradientUnits="userSpaceOnUse" x1="375.9537" y1="229.9126" x2="182.3438" y2="358.4319" gradientTransform="matrix(1 0 0 -1 0 405)">
				<stop  offset="0.0354" style="stop-color:#873A8E"/>
				<stop  offset="0.2206" style="stop-color:#934091"/>
				<stop  offset="0.5795" style="stop-color:#B0529A"/>
				<stop  offset="1" style="stop-color:#D66FA9"/>
			</linearGradient>
			<path class="st51" d="M358.77,166.49c-0.47,0-0.93-0.24-1.19-0.67c-0.4-0.65-0.19-1.51,0.47-1.9l1.9-1.15
				c0.39-0.24,0.87-0.27,1.28-0.08l2.02,0.9c0.7,0.31,1.01,1.13,0.7,1.83c-0.31,0.7-1.13,1.01-1.83,0.7l-1.36-0.61l-1.28,0.77
				C359.26,166.43,359.01,166.49,358.77,166.49z"/>
			
				<linearGradient id="SVGID_8_" gradientUnits="userSpaceOnUse" x1="367.348" y1="216.9481" x2="173.7354" y2="345.4691" gradientTransform="matrix(1 0 0 -1 0 405)">
				<stop  offset="0.0354" style="stop-color:#873A8E"/>
				<stop  offset="0.2206" style="stop-color:#934091"/>
				<stop  offset="0.5795" style="stop-color:#B0529A"/>
				<stop  offset="1" style="stop-color:#D66FA9"/>
			</linearGradient>
			<path class="st52" d="M335.48,180.6c-0.47,0-0.93-0.24-1.19-0.67c-0.4-0.65-0.19-1.51,0.47-1.9l3.88-2.35
				c0.65-0.39,1.51-0.19,1.9,0.47c0.4,0.65,0.19,1.51-0.47,1.9l-3.88,2.35C335.97,180.53,335.72,180.6,335.48,180.6z M343.24,175.89
				c-0.47,0-0.93-0.24-1.19-0.67c-0.4-0.65-0.19-1.51,0.47-1.9l3.88-2.35c0.65-0.39,1.51-0.19,1.9,0.47c0.4,0.65,0.19,1.51-0.47,1.9
				l-3.88,2.35C343.73,175.83,343.49,175.89,343.24,175.89z M351,171.19c-0.47,0-0.92-0.24-1.19-0.67c-0.4-0.65-0.19-1.51,0.47-1.9
				l3.88-2.35c0.65-0.39,1.51-0.19,1.9,0.47c0.4,0.65,0.19,1.51-0.47,1.9l-3.88,2.35C351.5,171.13,351.25,171.19,351,171.19z"/>
			
				<linearGradient id="SVGID_9_" gradientUnits="userSpaceOnUse" x1="358.7117" y1="203.9372" x2="165.0985" y2="332.4585" gradientTransform="matrix(1 0 0 -1 0 405)">
				<stop  offset="0.0354" style="stop-color:#873A8E"/>
				<stop  offset="0.2206" style="stop-color:#934091"/>
				<stop  offset="0.5795" style="stop-color:#B0529A"/>
				<stop  offset="1" style="stop-color:#D66FA9"/>
			</linearGradient>
			<path class="st53" d="M329.7,184.09c-0.16,0-0.32-0.03-0.48-0.09l-2.08-0.77c-0.72-0.26-1.08-1.06-0.82-1.78
				c0.26-0.72,1.06-1.09,1.78-0.82l1.45,0.54l1.33-0.8c0.65-0.39,1.51-0.19,1.9,0.47c0.4,0.65,0.19,1.51-0.47,1.9l-1.9,1.15
				C330.2,184.03,329.95,184.09,329.7,184.09z"/>
			
				<linearGradient id="SVGID_10_" gradientUnits="userSpaceOnUse" x1="340.1916" y1="176.038" x2="146.5798" y2="304.5585" gradientTransform="matrix(1 0 0 -1 0 405)">
				<stop  offset="0.0354" style="stop-color:#873A8E"/>
				<stop  offset="0.2206" style="stop-color:#934091"/>
				<stop  offset="0.5795" style="stop-color:#B0529A"/>
				<stop  offset="1" style="stop-color:#D66FA9"/>
			</linearGradient>
			<path class="st54" d="M246.65,205.75c-0.57,0-1.11-0.36-1.31-0.93c-0.25-0.72,0.12-1.51,0.85-1.77l4.05-1.43
				c0.72-0.26,1.51,0.12,1.77,0.85s-0.12,1.51-0.85,1.77l-4.05,1.43C246.96,205.73,246.8,205.75,246.65,205.75z M254.75,202.9
				c-0.57,0-1.11-0.36-1.31-0.93c-0.25-0.72,0.12-1.51,0.85-1.77l4.05-1.43c0.72-0.26,1.51,0.13,1.77,0.85
				c0.25,0.72-0.12,1.51-0.85,1.77l-4.05,1.43C255.06,202.88,254.91,202.9,254.75,202.9z M262.85,200.05
				c-0.57,0-1.11-0.36-1.31-0.93c-0.25-0.72,0.12-1.51,0.85-1.77l4.05-1.43c0.72-0.26,1.51,0.12,1.77,0.85
				c0.25,0.72-0.12,1.51-0.85,1.77l-4.05,1.43C263.16,200.02,263.01,200.05,262.85,200.05z M270.96,197.2
				c-0.57,0-1.11-0.36-1.31-0.93c-0.25-0.72,0.12-1.51,0.85-1.77l4.05-1.43c0.72-0.26,1.51,0.12,1.77,0.85
				c0.25,0.72-0.12,1.51-0.85,1.77l-4.05,1.43C271.26,197.17,271.11,197.2,270.96,197.2z M279.06,194.34
				c-0.57,0-1.11-0.36-1.31-0.93c-0.25-0.72,0.12-1.51,0.85-1.77l4.05-1.43c0.72-0.26,1.51,0.13,1.77,0.85
				c0.25,0.72-0.12,1.51-0.85,1.77l-4.05,1.43C279.36,194.32,279.21,194.34,279.06,194.34z M287.16,191.49
				c-0.57,0-1.11-0.36-1.31-0.93c-0.25-0.72,0.12-1.51,0.85-1.77l4.05-1.43c0.72-0.26,1.51,0.12,1.77,0.85
				c0.25,0.72-0.12,1.51-0.85,1.77l-4.05,1.43C287.47,191.47,287.31,191.49,287.16,191.49z M295.26,188.64
				c-0.57,0-1.11-0.36-1.31-0.93c-0.25-0.72,0.12-1.51,0.85-1.77l4.05-1.43c0.72-0.26,1.51,0.12,1.77,0.85
				c0.25,0.72-0.12,1.51-0.85,1.77l-4.05,1.43C295.57,188.61,295.41,188.64,295.26,188.64z M303.36,185.78
				c-0.57,0-1.11-0.36-1.31-0.93c-0.25-0.72,0.12-1.51,0.85-1.77l4.05-1.43c0.72-0.26,1.51,0.12,1.77,0.85
				c0.25,0.72-0.12,1.51-0.85,1.77l-4.05,1.43C303.67,185.76,303.51,185.78,303.36,185.78z M311.46,182.93
				c-0.57,0-1.11-0.36-1.31-0.93c-0.25-0.72,0.12-1.51,0.85-1.77l4.05-1.43c0.72-0.26,1.51,0.12,1.77,0.85
				c0.25,0.72-0.12,1.51-0.85,1.77l-4.05,1.43C311.77,182.91,311.61,182.93,311.46,182.93z M323.59,181.84
				c-0.16,0-0.32-0.03-0.48-0.09l-4.03-1.48c-0.72-0.26-1.08-1.06-0.82-1.78c0.27-0.72,1.06-1.09,1.78-0.82l4.03,1.48
				c0.72,0.26,1.08,1.06,0.82,1.78C324.68,181.5,324.15,181.84,323.59,181.84z"/>
			
				<linearGradient id="SVGID_11_" gradientUnits="userSpaceOnUse" x1="320.5291" y1="146.4172" x2="126.9178" y2="274.9373" gradientTransform="matrix(1 0 0 -1 0 405)">
				<stop  offset="0.0354" style="stop-color:#873A8E"/>
				<stop  offset="0.2206" style="stop-color:#934091"/>
				<stop  offset="0.5795" style="stop-color:#B0529A"/>
				<stop  offset="1" style="stop-color:#D66FA9"/>
			</linearGradient>
			<path class="st55" d="M240.51,207.92c-0.31,0-0.62-0.11-0.87-0.31l-1.72-1.4c-0.59-0.48-0.68-1.35-0.2-1.95
				c0.48-0.59,1.35-0.68,1.95-0.2l1.12,0.91l1.36-0.48c0.72-0.26,1.51,0.12,1.77,0.85s-0.12,1.51-0.85,1.77l-2.09,0.74
				C240.82,207.89,240.67,207.92,240.51,207.92z"/>
			
				<linearGradient id="SVGID_12_" gradientUnits="userSpaceOnUse" x1="321.1022" y1="147.2803" x2="127.4904" y2="275.8007" gradientTransform="matrix(1 0 0 -1 0 405)">
				<stop  offset="0.0354" style="stop-color:#873A8E"/>
				<stop  offset="0.2206" style="stop-color:#934091"/>
				<stop  offset="0.5795" style="stop-color:#B0529A"/>
				<stop  offset="1" style="stop-color:#D66FA9"/>
			</linearGradient>
			<path class="st56" d="M235.74,204.03c-0.31,0-0.62-0.1-0.87-0.31l-3.06-2.48c-0.59-0.48-0.68-1.35-0.2-1.95
				c0.48-0.6,1.35-0.68,1.95-0.2l3.06,2.48c0.59,0.48,0.68,1.35,0.2,1.95C236.54,203.86,236.14,204.03,235.74,204.03z
				 M229.62,199.06c-0.31,0-0.62-0.1-0.87-0.31l-3.06-2.48c-0.59-0.48-0.68-1.35-0.2-1.95s1.36-0.68,1.95-0.2l3.06,2.48
				c0.59,0.48,0.68,1.35,0.2,1.95C230.42,198.89,230.03,199.06,229.62,199.06z M223.51,194.1c-0.31,0-0.62-0.1-0.87-0.31l-3.06-2.48
				c-0.59-0.48-0.68-1.35-0.2-1.95s1.36-0.68,1.95-0.2l3.06,2.48c0.59,0.48,0.68,1.35,0.2,1.95
				C224.31,193.92,223.91,194.1,223.51,194.1z M217.4,189.13c-0.31,0-0.62-0.1-0.87-0.31l-3.06-2.48c-0.59-0.48-0.68-1.35-0.2-1.95
				s1.35-0.68,1.95-0.2l3.06,2.48c0.59,0.48,0.68,1.35,0.2,1.95C218.2,188.95,217.8,189.13,217.4,189.13z"/>
			
				<linearGradient id="SVGID_13_" gradientUnits="userSpaceOnUse" x1="322.7036" y1="149.6928" x2="129.0921" y2="278.213" gradientTransform="matrix(1 0 0 -1 0 405)">
				<stop  offset="0.0354" style="stop-color:#873A8E"/>
				<stop  offset="0.2206" style="stop-color:#934091"/>
				<stop  offset="0.5795" style="stop-color:#B0529A"/>
				<stop  offset="1" style="stop-color:#D66FA9"/>
			</linearGradient>
			<path class="st57" d="M211.29,184.16c-0.31,0-0.62-0.1-0.87-0.31l-1.72-1.4c-0.33-0.27-0.52-0.67-0.51-1.09
				c0.01-0.43,0.21-0.82,0.54-1.08c0,0,0.66-0.52,1.4-1.35c0.51-0.57,1.38-0.63,1.96-0.12c0.57,0.51,0.63,1.38,0.12,1.96
				c-0.18,0.2-0.35,0.38-0.51,0.55l0.47,0.38c0.59,0.48,0.68,1.35,0.2,1.95C212.09,183.98,211.69,184.16,211.29,184.16z"/>
			
				<linearGradient id="SVGID_14_" gradientUnits="userSpaceOnUse" x1="326.8002" y1="155.8643" x2="133.1891" y2="284.3844" gradientTransform="matrix(1 0 0 -1 0 405)">
				<stop  offset="0.0354" style="stop-color:#873A8E"/>
				<stop  offset="0.2206" style="stop-color:#934091"/>
				<stop  offset="0.5795" style="stop-color:#B0529A"/>
				<stop  offset="1" style="stop-color:#D66FA9"/>
			</linearGradient>
			<path class="st58" d="M213.24,177.8c-0.14,0-0.29-0.02-0.43-0.07c-0.73-0.24-1.12-1.02-0.89-1.75c0.16-0.5,0.24-0.98,0.24-1.44
				c0-0.53-0.1-1.03-0.31-1.54c-0.3-0.71,0.04-1.52,0.74-1.81c0.71-0.29,1.52,0.04,1.81,0.74c0.35,0.84,0.53,1.71,0.53,2.61
				c0,0.75-0.13,1.52-0.38,2.3C214.37,177.43,213.82,177.8,213.24,177.8z M210.62,170.77c-0.3,0-0.59-0.09-0.85-0.29
				c-0.87-0.67-1.92-1.2-3.15-1.59c-0.73-0.23-1.13-1.01-0.9-1.74c0.23-0.73,1.01-1.13,1.74-0.9c1.53,0.48,2.88,1.17,4.01,2.04
				c0.61,0.47,0.72,1.34,0.25,1.94C211.44,170.58,211.03,170.77,210.62,170.77z M203.09,168.21c-0.04,0-0.08,0-0.12,0
				c-1.22-0.1-2.59-0.1-3.83-0.02c-0.79,0.07-1.42-0.53-1.47-1.29s0.53-1.42,1.29-1.47c1.36-0.09,2.87-0.09,4.23,0.02
				c0.76,0.06,1.33,0.73,1.27,1.5C204.41,167.66,203.8,168.21,203.09,168.21z"/>
			
				<linearGradient id="SVGID_15_" gradientUnits="userSpaceOnUse" x1="323.7674" y1="151.2967" x2="130.1567" y2="279.8164" gradientTransform="matrix(1 0 0 -1 0 405)">
				<stop  offset="0.0354" style="stop-color:#873A8E"/>
				<stop  offset="0.2206" style="stop-color:#934091"/>
				<stop  offset="0.5795" style="stop-color:#B0529A"/>
				<stop  offset="1" style="stop-color:#D66FA9"/>
			</linearGradient>
			<path class="st59" d="M192.87,169.14c-0.32,0-0.64-0.11-0.89-0.32l-1.7-1.42c-0.59-0.49-0.66-1.37-0.17-1.95
				c0.49-0.59,1.36-0.66,1.95-0.17l1.16,0.97c0.39-0.09,0.92-0.2,1.57-0.31c0.75-0.14,1.47,0.37,1.61,1.12
				c0.13,0.75-0.37,1.47-1.12,1.61c-1.25,0.22-2.04,0.43-2.04,0.44C193.11,169.12,192.99,169.14,192.87,169.14z"/>
			
				<linearGradient id="SVGID_16_" gradientUnits="userSpaceOnUse" x1="323.8926" y1="151.4864" x2="130.2821" y2="280.006" gradientTransform="matrix(1 0 0 -1 0 405)">
				<stop  offset="0.0354" style="stop-color:#873A8E"/>
				<stop  offset="0.2206" style="stop-color:#934091"/>
				<stop  offset="0.5795" style="stop-color:#B0529A"/>
				<stop  offset="1" style="stop-color:#D66FA9"/>
			</linearGradient>
			<path class="st60" d="M187.69,164.79c-0.31,0-0.63-0.11-0.89-0.32l-3.49-2.93c-0.59-0.49-0.66-1.37-0.17-1.95
				c0.49-0.59,1.37-0.66,1.95-0.17l3.49,2.93c0.59,0.49,0.66,1.37,0.17,1.95C188.48,164.62,188.08,164.79,187.69,164.79z"/>
			
				<linearGradient id="SVGID_17_" gradientUnits="userSpaceOnUse" x1="324.9381" y1="153.062" x2="131.3281" y2="281.5813" gradientTransform="matrix(1 0 0 -1 0 405)">
				<stop  offset="0.0354" style="stop-color:#873A8E"/>
				<stop  offset="0.2206" style="stop-color:#934091"/>
				<stop  offset="0.5795" style="stop-color:#B0529A"/>
				<stop  offset="1" style="stop-color:#D66FA9"/>
			</linearGradient>
			<path class="st61" d="M180.72,158.93c-0.31,0-0.63-0.11-0.89-0.32l-1.7-1.43c-0.35-0.29-0.53-0.73-0.49-1.18s0.29-0.85,0.68-1.08
				l1.92-1.11c0.66-0.38,1.51-0.16,1.89,0.5s0.16,1.51-0.5,1.89l-0.21,0.12l0.19,0.16c0.59,0.49,0.66,1.37,0.17,1.95
				C181.5,158.76,181.11,158.93,180.72,158.93z"/>
			
				<linearGradient id="SVGID_18_" gradientUnits="userSpaceOnUse" x1="334.307" y1="167.1728" x2="140.6953" y2="295.6932" gradientTransform="matrix(1 0 0 -1 0 405)">
				<stop  offset="0.0354" style="stop-color:#873A8E"/>
				<stop  offset="0.2206" style="stop-color:#934091"/>
				<stop  offset="0.5795" style="stop-color:#B0529A"/>
				<stop  offset="1" style="stop-color:#D66FA9"/>
			</linearGradient>
			<path class="st62" d="M184.33,154.42c-0.48,0-0.94-0.25-1.2-0.69c-0.38-0.66-0.16-1.51,0.5-1.89l3.39-1.97
				c0.66-0.38,1.51-0.16,1.89,0.5s0.16,1.51-0.5,1.89l-3.39,1.97C184.8,154.36,184.56,154.42,184.33,154.42z M191.11,150.49
				c-0.48,0-0.94-0.25-1.2-0.69c-0.38-0.66-0.16-1.51,0.5-1.89l3.39-1.97c0.66-0.38,1.51-0.16,1.89,0.5s0.16,1.51-0.5,1.89
				l-3.39,1.97C191.58,150.43,191.35,150.49,191.11,150.49z M197.89,146.55c-0.48,0-0.94-0.25-1.2-0.69
				c-0.38-0.66-0.16-1.51,0.5-1.89l3.39-1.97c0.66-0.38,1.51-0.16,1.89,0.5s0.16,1.51-0.5,1.89l-3.39,1.97
				C198.37,146.49,198.13,146.55,197.89,146.55z M204.67,142.61c-0.48,0-0.94-0.25-1.2-0.69c-0.38-0.66-0.16-1.51,0.5-1.89
				l3.39-1.97c0.66-0.38,1.51-0.16,1.89,0.5s0.16,1.51-0.5,1.89l-3.39,1.97C205.15,142.55,204.91,142.61,204.67,142.61z"/>
			
				<linearGradient id="SVGID_19_" gradientUnits="userSpaceOnUse" x1="344.0052" y1="181.7829" x2="150.3933" y2="310.3034" gradientTransform="matrix(1 0 0 -1 0 405)">
				<stop  offset="0.0354" style="stop-color:#873A8E"/>
				<stop  offset="0.2206" style="stop-color:#934091"/>
				<stop  offset="0.5795" style="stop-color:#B0529A"/>
				<stop  offset="1" style="stop-color:#D66FA9"/>
			</linearGradient>
			<path class="st63" d="M211.45,138.67c-0.48,0-0.94-0.25-1.2-0.69c-0.38-0.66-0.16-1.51,0.5-1.89l0.99-0.58l-0.31-1.1
				c-0.21-0.74,0.23-1.5,0.96-1.71c0.73-0.2,1.5,0.23,1.71,0.96l0.59,2.13c0.17,0.61-0.09,1.25-0.64,1.57l-1.92,1.11
				C211.93,138.61,211.69,138.67,211.45,138.67z"/>
			
				<linearGradient id="SVGID_20_" gradientUnits="userSpaceOnUse" x1="347.172" y1="186.5534" x2="153.5599" y2="315.0741" gradientTransform="matrix(1 0 0 -1 0 405)">
				<stop  offset="0.0354" style="stop-color:#873A8E"/>
				<stop  offset="0.2206" style="stop-color:#934091"/>
				<stop  offset="0.5795" style="stop-color:#B0529A"/>
				<stop  offset="1" style="stop-color:#D66FA9"/>
			</linearGradient>
			<path class="st64" d="M211.67,131.49c-0.61,0-1.16-0.4-1.33-1.01l-1.1-3.94c-0.21-0.74,0.23-1.5,0.96-1.71
				c0.73-0.21,1.5,0.23,1.71,0.96l1.1,3.94c0.21,0.74-0.23,1.5-0.96,1.71C211.92,131.47,211.8,131.49,211.67,131.49z"/>
			
				<linearGradient id="SVGID_21_" gradientUnits="userSpaceOnUse" x1="350.3322" y1="191.3136" x2="156.72" y2="319.8343" gradientTransform="matrix(1 0 0 -1 0 405)">
				<stop  offset="0.0354" style="stop-color:#873A8E"/>
				<stop  offset="0.2206" style="stop-color:#934091"/>
				<stop  offset="0.5795" style="stop-color:#B0529A"/>
				<stop  offset="1" style="stop-color:#D66FA9"/>
			</linearGradient>
			<path class="st65" d="M209.48,123.61c-0.61,0-1.16-0.4-1.33-1.01l-0.59-2.13c-0.18-0.63,0.11-1.29,0.69-1.6l1.96-1.03
				c0.68-0.36,1.51-0.1,1.87,0.58c0.36,0.68,0.1,1.51-0.58,1.87l-0.97,0.51l0.29,1.06c0.21,0.74-0.23,1.5-0.96,1.71
				C209.73,123.59,209.6,123.61,209.48,123.61z"/>
			
				<linearGradient id="SVGID_22_" gradientUnits="userSpaceOnUse" x1="354.4461" y1="197.5125" x2="160.8346" y2="326.0328" gradientTransform="matrix(1 0 0 -1 0 405)">
				<stop  offset="0.0354" style="stop-color:#873A8E"/>
				<stop  offset="0.2206" style="stop-color:#934091"/>
				<stop  offset="0.5795" style="stop-color:#B0529A"/>
				<stop  offset="1" style="stop-color:#D66FA9"/>
			</linearGradient>
			<path class="st66" d="M215.22,118.05c-0.5,0-0.98-0.27-1.23-0.74c-0.36-0.68-0.1-1.51,0.58-1.87l2.77-1.36
				c0.68-0.35,1.51-0.1,1.87,0.58c0.36,0.68,0.1,1.51-0.58,1.87l-2.77,1.36C215.65,118,215.43,118.05,215.22,118.05z"/>
		</g>
		
			<linearGradient id="SVGID_23_" gradientUnits="userSpaceOnUse" x1="356.1033" y1="200.0075" x2="162.4916" y2="328.5278" gradientTransform="matrix(1 0 0 -1 0 405)">
			<stop  offset="0.0354" style="stop-color:#873A8E"/>
			<stop  offset="0.2206" style="stop-color:#934091"/>
			<stop  offset="0.5795" style="stop-color:#B0529A"/>
			<stop  offset="1" style="stop-color:#D66FA9"/>
		</linearGradient>
		<path class="st67" d="M222.39,116.02c-1.34,0.77-3.52,0.77-4.87-0.01c-1.35-0.78-1.36-2.04-0.02-2.81s3.52-0.77,4.87,0.01
			C223.72,113.99,223.73,115.25,222.39,116.02z"/>
		<polygon class="st44" points="382.7,252.88 402.64,241.06 378.63,218.9 371.62,223.7 384.91,238.48 376.05,244.02 		"/>
		<polygon class="st44" points="333.95,309.01 353.89,297.2 335.61,281.13 328.59,285.93 327.3,300.15 		"/>
		<polygon class="st44" points="363.86,169.41 347.98,179.39 358.49,185.28 368.51,182.32 379.74,188.62 391.93,181.6 		"/>
		<polygon class="st44" points="177.36,112.91 172.93,115.86 193.98,125.1 198.41,120.67 194.35,112.91 		"/>
		<polygon class="st44" points="192.87,209.67 208.75,199.7 202.47,193.42 195.82,197.11 189.55,191.2 177.73,198.22 		"/>
		<polygon class="st44" points="301.45,136.18 316.59,125.84 301.45,112.54 296.28,117.34 304.4,123.62 297.39,129.53 		"/>
		<polygon class="st44" points="413.35,231.09 424.43,224.07 424.06,206.35 415.57,204.87 413.35,216.32 409.29,219.27 
			391.19,203.39 385.28,206.72 		"/>
		<polygon class="st44" points="241.62,198.22 253.81,191.94 239.77,164.24 228.69,170.15 228.32,178.28 222.42,182.71 		"/>
	</g>
	
		<linearGradient id="SVGID_24_" gradientUnits="userSpaceOnUse" x1="441.4705" y1="109.1247" x2="277.8654" y2="71.4548" gradientTransform="matrix(1 0 0 -1 0 405)">
		<stop  offset="5.050510e-03" style="stop-color:#442680"/>
		<stop  offset="0.1146" style="stop-color:#502982"/>
		<stop  offset="0.3257" style="stop-color:#6F3289"/>
		<stop  offset="0.4747" style="stop-color:#873A8E"/>
		<stop  offset="0.5699" style="stop-color:#8B3B8E"/>
		<stop  offset="0.6714" style="stop-color:#944091"/>
		<stop  offset="0.7758" style="stop-color:#A44A96"/>
		<stop  offset="0.8822" style="stop-color:#B9599D"/>
		<stop  offset="0.9891" style="stop-color:#D36CA7"/>
		<stop  offset="1" style="stop-color:#D66FA9"/>
	</linearGradient>
	<path class="st68" d="M309.85,350.23l-0.3-0.25l-30.82-25.45c-0.24-0.19-0.27-0.54-0.07-0.78c0.19-0.24,0.55-0.27,0.78-0.07
		l30.52,25.21l132.01-77.15c0.26-0.16,0.6-0.07,0.76,0.2c0.15,0.26,0.06,0.6-0.2,0.76L309.85,350.23z"/>
	<g>
		
			<radialGradient id="SVGID_25_" cx="1173.3326" cy="3730.5049" r="24.426" gradientTransform="matrix(1.181 0 0 -0.6022 -1002.2085 2416.78)" gradientUnits="userSpaceOnUse">
			<stop  offset="0" style="stop-color:#C8C9CA"/>
			<stop  offset="1" style="stop-color:#FFFFFF"/>
		</radialGradient>
		<ellipse class="st69" cx="382.94" cy="170.27" rx="28.84" ry="14.71"/>
		
			<linearGradient id="SVGID_26_" gradientUnits="userSpaceOnUse" x1="404.6342" y1="243.5582" x2="358.7575" y2="347.7899" gradientTransform="matrix(1 0 0 -1 0 405)">
			<stop  offset="0.0354" style="stop-color:#F07E23"/>
			<stop  offset="0.2421" style="stop-color:#F18732"/>
			<stop  offset="0.6406" style="stop-color:#F5A059"/>
			<stop  offset="1" style="stop-color:#F9B981"/>
		</linearGradient>
		<path class="st70" d="M383.38,60.29c-9.4-5.43-17.82-5.59-23.65-1.52l-6.75,3.15l0.83,4.33c-1.45,3.34-2.27,7.42-2.27,12.19
			c0,13.82,7.39,35.63,15.05,54.53l7.99,41.7l8.81-4.4c0,0,31.85-26.36,31.85-55.06C415.22,95.03,400.97,70.44,383.38,60.29z"/>
		
			<linearGradient id="SVGID_27_" gradientUnits="userSpaceOnUse" x1="323.9413" y1="254.5174" x2="413.1252" y2="327.1859" gradientTransform="matrix(1 0 0 -1 0 405)">
			<stop  offset="0.0354" style="stop-color:#F07E23"/>
			<stop  offset="0.2421" style="stop-color:#F18732"/>
			<stop  offset="0.6406" style="stop-color:#F5A059"/>
			<stop  offset="1" style="stop-color:#F9B981"/>
		</linearGradient>
		<path class="st71" d="M406.42,119.62c0,28.7-31.85,55.06-31.85,55.06s-31.85-63.13-31.85-91.83c0-20.18,14.26-28.31,31.85-18.16
			C392.16,74.84,406.42,99.44,406.42,119.62z"/>
		
			<radialGradient id="SVGID_28_" cx="390.4267" cy="305.4767" r="44.8728" gradientTransform="matrix(1 0 0 -1 0 405)" gradientUnits="userSpaceOnUse">
			<stop  offset="0" style="stop-color:#FFFFFF"/>
			<stop  offset="1" style="stop-color:#000000"/>
		</radialGradient>
		<path class="st72" d="M376.59,63.59c-9.19-5.3-17.44-5.58-23.25-1.8c5.64-2.55,13.06-1.82,21.23,2.9
			c17.59,10.15,31.85,34.75,31.85,54.93c0,24.59-23.37,47.45-30.06,53.49c0.14,0.28,0.23,0.46,0.23,0.46s31.85-26.36,31.85-55.06
			C408.43,98.34,394.18,73.74,376.59,63.59z"/>
		
			<linearGradient id="SVGID_29_" gradientUnits="userSpaceOnUse" x1="-169.2899" y1="-1853.0529" x2="-193.8399" y2="-1834.4943" gradientTransform="matrix(0.866 0.5 0 -1.1547 531.6357 -1937.2567)">
			<stop  offset="0" style="stop-color:#D4D1D8"/>
			<stop  offset="0.9215" style="stop-color:#FCFBFC"/>
			<stop  offset="1" style="stop-color:#FFFFFF"/>
		</linearGradient>
		<path class="st73" d="M388.42,109.23c0,8.78-6.2,12.31-13.85,7.9c-7.65-4.42-13.85-15.11-13.85-23.89s6.2-12.31,13.85-7.9
			C382.22,89.76,388.42,100.45,388.42,109.23z"/>
		<path class="st44" d="M378.84,115.15c-7.65-4.42-13.85-15.11-13.85-23.89c0-3.48,0.98-6.11,2.63-7.78
			c-4.13,0.37-6.91,3.88-6.91,9.75c0,8.78,6.2,19.47,13.85,23.89c4.62,2.67,8.7,2.42,11.22-0.12
			C383.74,117.19,381.38,116.61,378.84,115.15z"/>
	</g>
</g>
</svg>
