<?xml version="1.0" encoding="utf-8"?>
<!-- Generator: Adobe Illustrator 24.2.3, SVG Export Plug-In . SVG Version: 6.00 Build 0)  -->
<svg version="1.1" id="Calque_1" xmlns="http://www.w3.org/2000/svg" xmlns:xlink="http://www.w3.org/1999/xlink" x="0px" y="0px"
	 viewBox="0 0 595 595" style="enable-background:new 0 0 595 595;" xml:space="preserve">
<style type="text/css">
	.st0{opacity:0.1;fill:#D1D2D4;}
	.st1{opacity:0.1225;fill:#D0D1D3;}
	.st2{opacity:0.145;fill:#CFD0D2;}
	.st3{opacity:0.1675;fill:#CECFD1;}
	.st4{opacity:0.19;fill:#CDCED0;}
	.st5{opacity:0.2125;fill:#CCCDCF;}
	.st6{opacity:0.235;fill:#CBCCCE;}
	.st7{opacity:0.2575;fill:#CACBCD;}
	.st8{opacity:0.28;fill:#C9CACC;}
	.st9{opacity:0.3025;fill:#C8C9CB;}
	.st10{opacity:0.325;fill:#C7C8C9;}
	.st11{opacity:0.3475;fill:#C6C7C8;}
	.st12{opacity:0.37;fill:#C5C6C7;}
	.st13{opacity:0.3925;fill:#C4C5C6;}
	.st14{opacity:0.415;fill:#C3C4C5;}
	.st15{opacity:0.4375;fill:#C2C3C4;}
	.st16{opacity:0.46;fill:#C1C2C3;}
	.st17{opacity:0.4825;fill:#C0C1C2;}
	.st18{opacity:0.505;fill:#BFC0C1;}
	.st19{opacity:0.5275;fill:#BEBFC0;}
	.st20{opacity:0.55;fill:#BCBEBF;}
	.st21{opacity:0.5725;fill:#BBBDBE;}
	.st22{opacity:0.595;fill:#BABCBD;}
	.st23{opacity:0.6175;fill:#B9BBBC;}
	.st24{opacity:0.64;fill:#B8BABB;}
	.st25{opacity:0.6625;fill:#B7B9BA;}
	.st26{opacity:0.685;fill:#B6B8B9;}
	.st27{opacity:0.7075;fill:#B5B7B8;}
	.st28{opacity:0.73;fill:#B4B6B7;}
	.st29{opacity:0.7525;fill:#B3B5B6;}
	.st30{opacity:0.775;fill:#B2B4B5;}
	.st31{opacity:0.7975;fill:#B1B3B4;}
	.st32{opacity:0.82;fill:#B0B2B3;}
	.st33{opacity:0.8425;fill:#AFB1B2;}
	.st34{opacity:0.865;fill:#AEB0B1;}
	.st35{opacity:0.8875;fill:#ADAFB0;}
	.st36{opacity:0.91;fill:#ACAEAF;}
	.st37{opacity:0.9325;fill:#ABADAE;}
	.st38{opacity:0.955;fill:#AAACAD;}
	.st39{opacity:0.9775;fill:#A9ABAC;}
	.st40{fill:#A8AAAB;}
	.st41{fill:#FFFFFF;}
	.st42{fill:url(#SVGID_1_);}
	.st43{fill:url(#SVGID_2_);}
	.st44{fill:#D1D2D4;}
	.st45{fill:#D0E4BD;}
	.st46{fill:url(#SVGID_3_);}
	.st47{fill:#FFE3A7;}
	.st48{fill:url(#SVGID_4_);}
	.st49{fill:url(#SVGID_5_);}
	.st50{fill:url(#SVGID_6_);}
	.st51{fill:url(#SVGID_7_);}
	.st52{fill:url(#SVGID_8_);}
	.st53{fill:url(#SVGID_9_);}
	.st54{fill:url(#SVGID_10_);}
	.st55{fill:url(#SVGID_11_);}
	.st56{fill:url(#SVGID_12_);}
	.st57{fill:url(#SVGID_13_);}
	.st58{fill:url(#SVGID_14_);}
	.st59{fill:url(#SVGID_15_);}
	.st60{fill:url(#SVGID_16_);}
	.st61{fill:url(#SVGID_17_);}
	.st62{fill:url(#SVGID_18_);}
	.st63{fill:url(#SVGID_19_);}
	.st64{fill:url(#SVGID_20_);}
	.st65{fill:url(#SVGID_21_);}
	.st66{fill:url(#SVGID_22_);}
	.st67{fill:url(#SVGID_23_);}
	.st68{fill:url(#SVGID_24_);}
	.st69{fill:url(#SVGID_25_);}
	.st70{fill:url(#SVGID_26_);}
	.st71{fill:url(#SVGID_27_);}
	.st72{fill:url(#SVGID_28_);}
	.st73{fill:url(#SVGID_29_);}
</style>
<g>
	<g>
		<polygon class="st0" points="237.27,138.44 45.82,249.6 347.98,424.29 541.2,311.36 		"/>
		<polygon class="st1" points="237.38,138.74 46.42,249.62 347.81,423.85 540.53,311.21 		"/>
		<polygon class="st2" points="237.49,139.04 47.03,249.63 347.63,423.41 539.85,311.06 		"/>
		<polygon class="st3" points="237.6,139.34 47.63,249.64 347.45,422.97 539.17,310.92 		"/>
		<polygon class="st4" points="237.71,139.64 48.23,249.66 347.27,422.53 538.5,310.77 		"/>
		<polygon class="st5" points="237.82,139.94 48.84,249.67 347.1,422.1 537.82,310.62 		"/>
		<polygon class="st6" points="237.92,140.24 49.44,249.68 346.92,421.66 537.14,310.48 		"/>
		<polygon class="st7" points="238.03,140.54 50.04,249.7 346.74,421.22 536.47,310.33 		"/>
		<polygon class="st8" points="238.14,140.84 50.64,249.71 346.56,420.78 535.79,310.19 		"/>
		<polygon class="st9" points="238.25,141.14 51.25,249.72 346.39,420.35 535.11,310.04 		"/>
		<polygon class="st10" points="238.36,141.44 51.85,249.74 346.21,419.91 534.43,309.89 		"/>
		<polygon class="st11" points="238.47,141.74 52.45,249.75 346.03,419.47 533.76,309.75 		"/>
		<polygon class="st12" points="238.57,142.04 53.06,249.76 345.85,419.03 533.08,309.6 		"/>
		<polygon class="st13" points="238.68,142.34 53.66,249.78 345.68,418.59 532.4,309.46 		"/>
		<polygon class="st14" points="238.79,142.64 54.26,249.79 345.5,418.16 531.73,309.31 		"/>
		<polygon class="st15" points="238.9,142.94 54.86,249.8 345.32,417.72 531.05,309.16 		"/>
		<polygon class="st16" points="239.01,143.24 55.47,249.82 345.14,417.28 530.37,309.02 		"/>
		<polygon class="st17" points="239.12,143.54 56.07,249.83 344.97,416.84 529.7,308.87 		"/>
		<polygon class="st18" points="239.22,143.85 56.67,249.84 344.79,416.4 529.02,308.72 		"/>
		<polygon class="st19" points="239.33,144.15 57.28,249.86 344.61,415.97 528.34,308.58 		"/>
		<polygon class="st20" points="239.44,144.45 57.88,249.87 344.43,415.53 527.67,308.43 		"/>
		<polygon class="st21" points="239.55,144.75 58.48,249.88 344.25,415.09 526.99,308.29 		"/>
		<polygon class="st22" points="239.66,145.05 59.08,249.9 344.08,414.65 526.31,308.14 		"/>
		<polygon class="st23" points="239.77,145.35 59.69,249.91 343.9,414.21 525.64,307.99 		"/>
		<polygon class="st24" points="239.87,145.65 60.29,249.92 343.72,413.78 524.96,307.85 		"/>
		<polygon class="st25" points="239.98,145.95 60.89,249.94 343.54,413.34 524.28,307.7 		"/>
		<polygon class="st26" points="240.09,146.25 61.5,249.95 343.37,412.9 523.61,307.55 		"/>
		<polygon class="st27" points="240.2,146.55 62.1,249.96 343.19,412.46 522.93,307.41 		"/>
		<polygon class="st28" points="240.31,146.85 62.7,249.98 343.01,412.03 522.25,307.26 		"/>
		<polygon class="st29" points="240.42,147.15 63.3,249.99 342.83,411.59 521.58,307.12 		"/>
		<polygon class="st30" points="240.52,147.45 63.91,250 342.66,411.15 520.9,306.97 		"/>
		<polygon class="st31" points="240.63,147.75 64.51,250.02 342.48,410.71 520.22,306.82 		"/>
		<polygon class="st32" points="240.74,148.05 65.11,250.03 342.3,410.27 519.55,306.68 		"/>
		<polygon class="st33" points="240.85,148.35 65.72,250.04 342.12,409.84 518.87,306.53 		"/>
		<polygon class="st34" points="240.96,148.65 66.32,250.06 341.95,409.4 518.19,306.39 		"/>
		<polygon class="st35" points="241.07,148.95 66.92,250.07 341.77,408.96 517.52,306.24 		"/>
		<polygon class="st36" points="241.17,149.25 67.52,250.08 341.59,408.52 516.84,306.09 		"/>
		<polygon class="st37" points="241.28,149.55 68.13,250.1 341.41,408.08 516.16,305.95 		"/>
		<polygon class="st38" points="241.39,149.85 68.73,250.11 341.23,407.65 515.49,305.8 		"/>
		<polygon class="st39" points="241.5,150.15 69.33,250.12 341.06,407.21 514.81,305.65 		"/>
		<polygon class="st40" points="241.61,150.46 69.94,250.14 340.88,406.77 514.13,305.51 		"/>
	</g>
	<polygon class="st41" points="347.98,421.85 541.2,308.92 470.52,251.18 397.69,226.87 326.31,171.51 237.27,136 45.82,247.17 
		133.38,282.67 205.88,339.32 277.28,363.45 	"/>
	<linearGradient id="SVGID_1_" gradientUnits="userSpaceOnUse" x1="148.0192" y1="159.0423" x2="296.4824" y2="122.4803">
		<stop  offset="5.050510e-03" style="stop-color:#442680"/>
		<stop  offset="0.1146" style="stop-color:#502982"/>
		<stop  offset="0.3257" style="stop-color:#6F3289"/>
		<stop  offset="0.4747" style="stop-color:#873A8E"/>
		<stop  offset="0.5699" style="stop-color:#8B3B8E"/>
		<stop  offset="0.6714" style="stop-color:#944091"/>
		<stop  offset="0.7758" style="stop-color:#A44A96"/>
		<stop  offset="0.8822" style="stop-color:#B9599D"/>
		<stop  offset="0.9891" style="stop-color:#D36CA7"/>
		<stop  offset="1" style="stop-color:#D66FA9"/>
	</linearGradient>
	<path class="st42" d="M148.81,176.07c-0.19,0-0.38-0.1-0.48-0.28c-0.15-0.26-0.06-0.6,0.2-0.76l99.78-57.93l0.25,0.1l49.93,19.91
		c0.28,0.11,0.42,0.44,0.31,0.72c-0.11,0.28-0.43,0.42-0.72,0.31l-49.67-19.81L149.09,176C149,176.05,148.91,176.07,148.81,176.07z"
		/>
	<linearGradient id="SVGID_2_" gradientUnits="userSpaceOnUse" x1="411.1071" y1="500.5362" x2="210.9402" y2="115.7141">
		<stop  offset="0.0758" style="stop-color:#F0EFF2"/>
		<stop  offset="1" style="stop-color:#FFFFFF"/>
	</linearGradient>
	<polygon class="st43" points="280.02,358.53 208.54,334.37 136.18,277.83 58.38,246.28 237.72,142.14 323.53,176.36 395.04,231.82 
		467.8,256.11 531.52,308.16 348.53,415.11 	"/>
	<g>
		<polygon class="st44" points="243.51,199.79 236.86,203.85 244.98,213.45 256.8,207.54 		"/>
		<g>
			<path class="st44" d="M198.66,326.65l40.73-25.58l13.83,10.29c0.14,0.1,0.29,0.18,0.46,0.24l8.55,2.89l-20.86,12.19l1.68,2.87
				l24-14.03c0.56-0.33,0.88-0.96,0.81-1.6c-0.07-0.65-0.5-1.2-1.12-1.41L255,308.54l-12.58-9.36l11.95-7.5l-1.77-2.82l-56.72,35.61
				L198.66,326.65z"/>
			<polygon class="st44" points="108.89,229.89 71.92,251.77 75.79,253.34 112.69,231.5 112.55,231.26 129.36,237.53 130.52,234.42 
				99.05,222.67 95.33,224.83 			"/>
			<path class="st44" d="M205.07,236.57c0.22,0.1,0.45,0.14,0.68,0.14c0.31,0,0.61-0.09,0.88-0.25l13.8-8.66l5.17,2.21l29.7,27.5
				l2.26-2.44l-6.95-6.44l36.42-22.32c0.45-0.28,0.74-0.75,0.79-1.27c0.05-0.53-0.16-1.04-0.56-1.39l-20.31-17.91
				c-0.06-0.06-0.13-0.11-0.21-0.16l-21.79-13.85l-1.78,2.8l21.68,13.78l10.23,9.02l-35.09,21.46l-12.35-11.43
				c-0.14-0.13-0.3-0.23-0.48-0.31l-46.53-19.85l-1.3,3.06l37.38,15.94l-11.1,6.96l-57.45-25.62l22.43-13.46l-1.71-2.85
				l-24.42,14.65l-9.36-4.17l-3.55,2.06L205.07,236.57z M277.69,219.64l5.69,5.01l-35.3,21.63l-5.55-5.14L277.69,219.64z"/>
			<polygon class="st44" points="408.26,354.44 405.96,356.83 421.97,372.19 424.95,370.45 			"/>
			<polygon class="st44" points="285.04,346.69 283.22,343.9 267.38,354.26 271.38,355.61 			"/>
			<path class="st44" d="M429.48,292.39c0.11,0.63,0.57,1.14,1.18,1.32l25.85,7.39l0.91-3.2l-24.85-7.1l-1.42-8.36l40.46-23.22
				l-2.75-2.25l-38.3,21.98l-0.76-4.48c-0.09-0.52-0.42-0.96-0.88-1.2l-7.85-4.01l31.63-18.2l-4.22-1.41l-30.94,17.8l-24.07-12.29
				l-1.51,2.96l34.71,17.72L429.48,292.39z"/>
			<polygon class="st44" points="340.61,189.61 327.99,196.87 329.65,199.75 343.44,191.81 			"/>
		</g>
		<polygon class="st45" points="285.98,250.01 331.03,248.17 372.03,239.67 391.97,250.01 357.25,271.43 344.7,268.11 
			287.82,288.42 270.47,256.29 		"/>
		<polygon class="st45" points="236.49,140.33 165.03,182.98 191.62,196.28 221.53,184.09 242.58,185.75 278.04,166.36 
			274.71,155.84 		"/>
		<polygon class="st45" points="303.52,298.21 268.62,310.39 269.17,317.6 274.16,331.45 301.86,343.63 306.84,346.96 
			309.61,349.17 360.58,360.25 372.77,368.56 398.25,353.05 386.06,332.55 398.25,308.73 386.61,299.31 346.17,281.03 		"/>
		<linearGradient id="SVGID_3_" gradientUnits="userSpaceOnUse" x1="209.347" y1="429.2449" x2="351.9014" y2="117.5457">
			<stop  offset="0.0354" style="stop-color:#148CBE"/>
			<stop  offset="0.2789" style="stop-color:#2D97C4"/>
			<stop  offset="0.7486" style="stop-color:#58B5D4"/>
			<stop  offset="1" style="stop-color:#70C8DE"/>
		</linearGradient>
		<path class="st46" d="M312.23,385.14l30.05,24.82c3.01-15.79,8.39-48.49,10.17-71.68c1.67-21.74-16.84-32.39-26.59-42.84
			c-5.99-6.43-8.25-12.53-10.7-20.05c-3.14-9.63-1.31-18.47,0.8-28.71c2.17-10.52,7.61-23.75,3.99-36.92
			c-4.06-14.77-24.56-22.31-44.84-32.55c-15.95-8.06-29.89-20.96-38.87-34.19l-27.36,15.89c13.88,16.71,39.42,24.53,59.38,34.61
			c12.25,6.19,25.9,18.14,27.36,23.43c2.21,8.03,0.56,16.02-1.34,25.26c-2.4,11.64-8.57,25.64-3.61,40.85
			c3.97,12.18,11.94,20.73,18.96,28.27c9.73,10.44,18.64,16.1,17.76,27.59C326.17,354.58,318.27,373.02,312.23,385.14z"/>
		<path class="st47" d="M378.57,378.01l82.37-50.94c1.01-0.62,1.61-1.73,1.57-2.92l-1.06-39.73l22.41-15.2l-5.37-4.39l-22.27,15.11
			c-0.94,0.64-1.49,1.71-1.46,2.84l1.06,39.64l-82.58,51.07l0.06,0.1l-11.69-9.8c-0.43-0.36-0.95-0.61-1.5-0.72l-53.29-10.33
			l-5.38-5.37c-0.34-0.34-0.75-0.6-1.19-0.77l-68.12-25.27l-55.36-48.12l65.32-39.19c1.38-0.83,1.97-2.52,1.4-4.03l-10.8-28.48
			l47.27-26.49l24.67,9.76l69.97,55.1c0.16,0.13,0.33,0.24,0.51,0.33l19.06,10.01l-39.23,24.68l3.54,5.63l63.25-39.79l-8.16-2.72
			l-13.5,8.5l0.28-0.54l-21.89-11.49l-70.11-55.21c-0.25-0.2-0.53-0.36-0.83-0.48l-26.59-10.53c-0.93-0.37-1.97-0.3-2.85,0.19
			l-49.76,27.89l-37.66,2.65l-26.97-13.85l-6.83,3.96l26.3,13.51l-92.99,56.56l7.68,3.11l93.15-56.66l35.19-2.48l10.09,26.61
			l-66.86,40.12c-0.91,0.55-1.51,1.5-1.6,2.56c-0.09,1.06,0.33,2.1,1.13,2.8l59.27,51.52c0.3,0.26,0.65,0.47,1.02,0.61l20.36,7.55
			l-13.38,8.81l7.99,2.7l13.13-8.65l39.92,14.81l5.58,5.58c0.47,0.47,1.07,0.79,1.72,0.91l53.45,10.36l28.22,23.64l6.1-3.56
			L378.57,378.01z"/>
		<linearGradient id="SVGID_4_" gradientUnits="userSpaceOnUse" x1="314.3583" y1="277.7772" x2="19.2785" y2="153.3192">
			<stop  offset="0.0354" style="stop-color:#F5A78E"/>
			<stop  offset="0.2409" style="stop-color:#F7B393"/>
			<stop  offset="0.637" style="stop-color:#FBD19E"/>
			<stop  offset="1" style="stop-color:#FEEDA8"/>
		</linearGradient>
		<path class="st48" d="M395.67,291.03c-0.35-0.31-0.75-0.57-1.18-0.76l-46.53-20.5c-1.03-0.46-2.2-0.5-3.26-0.12l-76.32,26.87
			l-24.13-19.62c1.61-1.87,2.49-4.07,2.49-6.37c0-1.08-0.21-2.13-0.59-3.15l32.63-18.02l50-3.81c0.68-0.05,1.34-0.26,1.93-0.61
			l46.03-27.33l-7.53-5.84l-42.13,25.02l-49.93,3.8c-0.63,0.05-1.25,0.23-1.81,0.54l-35.51,19.61c-3.16-1.65-7.11-2.56-11.24-2.56
			c-2.23,0-4.4,0.27-6.42,0.77l-20-16.26c-0.33-0.27-0.69-0.48-1.08-0.65l-78.62-32.98l-9.61,5.58l84.21,35.33l16.62,13.51
			c-1.96,2-3.06,4.41-3.06,6.96c0,1.66,0.48,3.26,1.34,4.73l-44.56,27.07l7.47,5.84l44.46-27.01c2.8,1.12,6.06,1.72,9.43,1.72
			c2.59,0,5.1-0.36,7.38-1.04l28.56,23.22c1.2,0.97,2.82,1.26,4.27,0.74l77.01-27.12l44.28,19.5l62.46,56.11l8.03-4.7L395.67,291.03
			z M236.13,272.23c-1.86,1.08-4.55,1.69-7.36,1.69c-2.85,0-5.57-0.63-7.47-1.73c-1.35-0.78-1.8-1.53-1.8-1.75
			c0-0.21,0.44-0.94,1.74-1.69c1.86-1.08,4.55-1.69,7.36-1.69c2.85,0,5.57,0.63,7.47,1.73c1.35,0.78,1.8,1.53,1.8,1.76
			C237.87,270.75,237.43,271.47,236.13,272.23z"/>
		<polygon class="st45" points="461.95,348.06 450.32,336.43 465.83,326.46 484.11,278.82 490.76,276.05 530.09,308.18 		"/>
		<polygon class="st45" points="166.69,299.31 138.44,278.26 135.67,257.21 123.48,249.46 150.07,232.84 191.06,248.9 
			188.29,256.66 166.69,269.4 157.27,275.49 171.68,279.37 176.11,295.44 		"/>
		<g>
			<linearGradient id="SVGID_5_" gradientUnits="userSpaceOnUse" x1="404.8992" y1="267.1568" x2="211.2887" y2="138.6372">
				<stop  offset="0.0354" style="stop-color:#873A8E"/>
				<stop  offset="0.2206" style="stop-color:#934091"/>
				<stop  offset="0.5795" style="stop-color:#B0529A"/>
				<stop  offset="1" style="stop-color:#D66FA9"/>
			</linearGradient>
			<path class="st49" d="M403.6,267.46c-0.19,0-0.38-0.04-0.56-0.12l-2.02-0.9c-0.7-0.31-1.01-1.13-0.7-1.83
				c0.31-0.7,1.13-1.01,1.83-0.7l2.02,0.9c0.7,0.31,1.01,1.13,0.7,1.83C404.64,267.16,404.13,267.46,403.6,267.46z"/>
			<linearGradient id="SVGID_6_" gradientUnits="userSpaceOnUse" x1="404.2021" y1="268.2071" x2="210.59" y2="139.6864">
				<stop  offset="0.0354" style="stop-color:#873A8E"/>
				<stop  offset="0.2206" style="stop-color:#934091"/>
				<stop  offset="0.5795" style="stop-color:#B0529A"/>
				<stop  offset="1" style="stop-color:#D66FA9"/>
			</linearGradient>
			<path class="st50" d="M397.61,264.79c-0.19,0-0.38-0.04-0.56-0.12l-3.97-1.77c-0.7-0.31-1.01-1.13-0.7-1.83
				c0.31-0.7,1.13-1.01,1.83-0.7l3.97,1.77c0.7,0.31,1.01,1.13,0.7,1.83C398.65,264.48,398.14,264.79,397.61,264.79z"/>
			<linearGradient id="SVGID_7_" gradientUnits="userSpaceOnUse" x1="402.9508" y1="270.0918" x2="209.3408" y2="141.5725">
				<stop  offset="0.0354" style="stop-color:#873A8E"/>
				<stop  offset="0.2206" style="stop-color:#934091"/>
				<stop  offset="0.5795" style="stop-color:#B0529A"/>
				<stop  offset="1" style="stop-color:#D66FA9"/>
			</linearGradient>
			<path class="st51" d="M385.77,261.49c-0.47,0-0.93-0.24-1.19-0.67c-0.4-0.65-0.19-1.51,0.47-1.9l1.9-1.15
				c0.39-0.24,0.87-0.27,1.28-0.08l2.02,0.9c0.7,0.31,1.01,1.13,0.7,1.83c-0.31,0.7-1.13,1.01-1.83,0.7l-1.36-0.61l-1.28,0.77
				C386.26,261.43,386.01,261.49,385.77,261.49z"/>
			<linearGradient id="SVGID_8_" gradientUnits="userSpaceOnUse" x1="394.3493" y1="283.05" x2="200.7367" y2="154.529">
				<stop  offset="0.0354" style="stop-color:#873A8E"/>
				<stop  offset="0.2206" style="stop-color:#934091"/>
				<stop  offset="0.5795" style="stop-color:#B0529A"/>
				<stop  offset="1" style="stop-color:#D66FA9"/>
			</linearGradient>
			<path class="st52" d="M362.48,275.6c-0.47,0-0.93-0.24-1.19-0.67c-0.4-0.65-0.19-1.51,0.47-1.9l3.88-2.35
				c0.65-0.39,1.51-0.19,1.9,0.47c0.4,0.65,0.19,1.51-0.47,1.9l-3.88,2.35C362.97,275.53,362.72,275.6,362.48,275.6z M370.24,270.89
				c-0.47,0-0.93-0.24-1.19-0.67c-0.4-0.65-0.19-1.51,0.47-1.9l3.88-2.35c0.65-0.39,1.51-0.19,1.9,0.47c0.4,0.65,0.19,1.51-0.47,1.9
				l-3.88,2.35C370.73,270.83,370.49,270.89,370.24,270.89z M378,266.19c-0.47,0-0.92-0.24-1.19-0.67c-0.4-0.65-0.19-1.51,0.47-1.9
				l3.88-2.35c0.65-0.39,1.51-0.19,1.9,0.47c0.4,0.65,0.19,1.51-0.47,1.9l-3.88,2.35C378.5,266.13,378.25,266.19,378,266.19z"/>
			<linearGradient id="SVGID_9_" gradientUnits="userSpaceOnUse" x1="385.7072" y1="296.0695" x2="192.0941" y2="167.5482">
				<stop  offset="0.0354" style="stop-color:#873A8E"/>
				<stop  offset="0.2206" style="stop-color:#934091"/>
				<stop  offset="0.5795" style="stop-color:#B0529A"/>
				<stop  offset="1" style="stop-color:#D66FA9"/>
			</linearGradient>
			<path class="st53" d="M356.7,279.09c-0.16,0-0.32-0.03-0.48-0.09l-2.08-0.77c-0.72-0.26-1.08-1.06-0.82-1.78
				c0.26-0.72,1.06-1.09,1.78-0.82l1.45,0.54l1.33-0.8c0.65-0.39,1.51-0.19,1.9,0.47c0.4,0.65,0.19,1.51-0.47,1.9l-1.9,1.15
				C357.2,279.03,356.95,279.09,356.7,279.09z"/>
			<linearGradient id="SVGID_10_" gradientUnits="userSpaceOnUse" x1="367.1882" y1="323.9671" x2="173.5764" y2="195.4466">
				<stop  offset="0.0354" style="stop-color:#873A8E"/>
				<stop  offset="0.2206" style="stop-color:#934091"/>
				<stop  offset="0.5795" style="stop-color:#B0529A"/>
				<stop  offset="1" style="stop-color:#D66FA9"/>
			</linearGradient>
			<path class="st54" d="M273.65,300.75c-0.57,0-1.11-0.36-1.31-0.93c-0.25-0.72,0.12-1.51,0.85-1.77l4.05-1.43
				c0.72-0.26,1.51,0.12,1.77,0.85s-0.12,1.51-0.85,1.77l-4.05,1.43C273.96,300.73,273.8,300.75,273.65,300.75z M281.75,297.9
				c-0.57,0-1.11-0.36-1.31-0.93c-0.25-0.72,0.12-1.51,0.85-1.77l4.05-1.43c0.72-0.26,1.51,0.13,1.77,0.85
				c0.25,0.72-0.12,1.51-0.85,1.77l-4.05,1.43C282.06,297.88,281.91,297.9,281.75,297.9z M289.85,295.05
				c-0.57,0-1.11-0.36-1.31-0.93c-0.25-0.72,0.12-1.51,0.85-1.77l4.05-1.43c0.72-0.26,1.51,0.12,1.77,0.85
				c0.25,0.72-0.12,1.51-0.85,1.77l-4.05,1.43C290.16,295.02,290.01,295.05,289.85,295.05z M297.96,292.2
				c-0.57,0-1.11-0.36-1.31-0.93c-0.25-0.72,0.12-1.51,0.85-1.77l4.05-1.43c0.72-0.26,1.51,0.12,1.77,0.85
				c0.25,0.72-0.12,1.51-0.85,1.77l-4.05,1.43C298.26,292.17,298.11,292.2,297.96,292.2z M306.06,289.34
				c-0.57,0-1.11-0.36-1.31-0.93c-0.25-0.72,0.12-1.51,0.85-1.77l4.05-1.43c0.72-0.26,1.51,0.13,1.77,0.85
				c0.25,0.72-0.12,1.51-0.85,1.77l-4.05,1.43C306.36,289.32,306.21,289.34,306.06,289.34z M314.16,286.49
				c-0.57,0-1.11-0.36-1.31-0.93c-0.25-0.72,0.12-1.51,0.85-1.77l4.05-1.43c0.72-0.26,1.51,0.12,1.77,0.85
				c0.25,0.72-0.12,1.51-0.85,1.77l-4.05,1.43C314.47,286.47,314.31,286.49,314.16,286.49z M322.26,283.64
				c-0.57,0-1.11-0.36-1.31-0.93c-0.25-0.72,0.12-1.51,0.85-1.77l4.05-1.43c0.72-0.26,1.51,0.12,1.77,0.85
				c0.25,0.72-0.12,1.51-0.85,1.77l-4.05,1.43C322.57,283.61,322.41,283.64,322.26,283.64z M330.36,280.78
				c-0.57,0-1.11-0.36-1.31-0.93c-0.25-0.72,0.12-1.51,0.85-1.77l4.05-1.43c0.72-0.26,1.51,0.12,1.77,0.85
				c0.25,0.72-0.12,1.51-0.85,1.77l-4.05,1.43C330.67,280.76,330.51,280.78,330.36,280.78z M338.46,277.93
				c-0.57,0-1.11-0.36-1.31-0.93c-0.25-0.72,0.12-1.51,0.85-1.77l4.05-1.43c0.72-0.26,1.51,0.12,1.77,0.85
				c0.25,0.72-0.12,1.51-0.85,1.77l-4.05,1.43C338.77,277.91,338.61,277.93,338.46,277.93z M350.59,276.84
				c-0.16,0-0.32-0.03-0.48-0.09l-4.03-1.48c-0.72-0.26-1.08-1.06-0.82-1.78c0.27-0.72,1.06-1.09,1.78-0.82l4.03,1.48
				c0.72,0.26,1.08,1.06,0.82,1.78C351.68,276.5,351.15,276.84,350.59,276.84z"/>
			<linearGradient id="SVGID_11_" gradientUnits="userSpaceOnUse" x1="347.5282" y1="353.5841" x2="153.9169" y2="225.064">
				<stop  offset="0.0354" style="stop-color:#873A8E"/>
				<stop  offset="0.2206" style="stop-color:#934091"/>
				<stop  offset="0.5795" style="stop-color:#B0529A"/>
				<stop  offset="1" style="stop-color:#D66FA9"/>
			</linearGradient>
			<path class="st55" d="M267.51,302.92c-0.31,0-0.62-0.11-0.87-0.31l-1.72-1.4c-0.59-0.48-0.68-1.35-0.2-1.95
				c0.48-0.59,1.35-0.68,1.95-0.2l1.12,0.91l1.36-0.48c0.72-0.26,1.51,0.12,1.77,0.85s-0.12,1.51-0.85,1.77l-2.09,0.74
				C267.82,302.89,267.67,302.92,267.51,302.92z"/>
			<linearGradient id="SVGID_12_" gradientUnits="userSpaceOnUse" x1="348.1026" y1="352.7191" x2="154.4908" y2="224.1987">
				<stop  offset="0.0354" style="stop-color:#873A8E"/>
				<stop  offset="0.2206" style="stop-color:#934091"/>
				<stop  offset="0.5795" style="stop-color:#B0529A"/>
				<stop  offset="1" style="stop-color:#D66FA9"/>
			</linearGradient>
			<path class="st56" d="M262.74,299.03c-0.31,0-0.62-0.1-0.87-0.31l-3.06-2.48c-0.59-0.48-0.68-1.35-0.2-1.95
				c0.48-0.6,1.35-0.68,1.95-0.2l3.06,2.48c0.59,0.48,0.68,1.35,0.2,1.95C263.54,298.86,263.14,299.03,262.74,299.03z
				 M256.62,294.06c-0.31,0-0.62-0.1-0.87-0.31l-3.06-2.48c-0.59-0.48-0.68-1.35-0.2-1.95c0.48-0.6,1.36-0.68,1.95-0.2l3.06,2.48
				c0.59,0.48,0.68,1.35,0.2,1.95C257.42,293.89,257.03,294.06,256.62,294.06z M250.51,289.1c-0.31,0-0.62-0.1-0.87-0.31l-3.06-2.48
				c-0.59-0.48-0.68-1.35-0.2-1.95c0.48-0.6,1.36-0.68,1.95-0.2l3.06,2.48c0.59,0.48,0.68,1.35,0.2,1.95
				C251.31,288.92,250.91,289.1,250.51,289.1z M244.4,284.13c-0.31,0-0.62-0.1-0.87-0.31l-3.06-2.48c-0.59-0.48-0.68-1.35-0.2-1.95
				c0.48-0.6,1.35-0.68,1.95-0.2l3.06,2.48c0.59,0.48,0.68,1.35,0.2,1.95C245.2,283.95,244.8,284.13,244.4,284.13z"/>
			<linearGradient id="SVGID_13_" gradientUnits="userSpaceOnUse" x1="349.7039" y1="350.3067" x2="156.0925" y2="221.7865">
				<stop  offset="0.0354" style="stop-color:#873A8E"/>
				<stop  offset="0.2206" style="stop-color:#934091"/>
				<stop  offset="0.5795" style="stop-color:#B0529A"/>
				<stop  offset="1" style="stop-color:#D66FA9"/>
			</linearGradient>
			<path class="st57" d="M238.29,279.16c-0.31,0-0.62-0.1-0.87-0.31l-1.72-1.4c-0.33-0.27-0.52-0.67-0.51-1.09
				c0.01-0.43,0.21-0.82,0.54-1.08c0,0,0.66-0.52,1.4-1.35c0.51-0.57,1.38-0.63,1.96-0.12c0.57,0.51,0.63,1.38,0.12,1.96
				c-0.18,0.2-0.35,0.38-0.51,0.55l0.47,0.38c0.59,0.48,0.68,1.35,0.2,1.95C239.09,278.98,238.69,279.16,238.29,279.16z"/>
			<linearGradient id="SVGID_14_" gradientUnits="userSpaceOnUse" x1="353.8" y1="344.1361" x2="160.1888" y2="215.616">
				<stop  offset="0.0354" style="stop-color:#873A8E"/>
				<stop  offset="0.2206" style="stop-color:#934091"/>
				<stop  offset="0.5795" style="stop-color:#B0529A"/>
				<stop  offset="1" style="stop-color:#D66FA9"/>
			</linearGradient>
			<path class="st58" d="M240.24,272.8c-0.14,0-0.29-0.02-0.43-0.07c-0.73-0.24-1.12-1.02-0.89-1.75c0.16-0.5,0.24-0.98,0.24-1.44
				c0-0.53-0.1-1.03-0.31-1.54c-0.3-0.71,0.04-1.52,0.74-1.81c0.71-0.29,1.52,0.04,1.81,0.74c0.35,0.84,0.53,1.71,0.53,2.61
				c0,0.75-0.13,1.52-0.38,2.3C241.37,272.43,240.82,272.8,240.24,272.8z M237.62,265.77c-0.3,0-0.59-0.09-0.85-0.29
				c-0.87-0.67-1.92-1.2-3.15-1.59c-0.73-0.23-1.13-1.01-0.9-1.74c0.23-0.73,1.01-1.13,1.74-0.9c1.53,0.48,2.88,1.17,4.01,2.04
				c0.61,0.47,0.72,1.34,0.25,1.94C238.44,265.58,238.03,265.77,237.62,265.77z M230.09,263.21c-0.04,0-0.08,0-0.12,0
				c-1.22-0.1-2.59-0.1-3.83-0.02c-0.79,0.07-1.42-0.53-1.47-1.29c-0.05-0.76,0.53-1.42,1.29-1.47c1.36-0.09,2.87-0.09,4.23,0.02
				c0.76,0.06,1.33,0.73,1.27,1.5C231.41,262.66,230.8,263.21,230.09,263.21z"/>
			<linearGradient id="SVGID_15_" gradientUnits="userSpaceOnUse" x1="350.7725" y1="348.6956" x2="157.1618" y2="220.1759">
				<stop  offset="0.0354" style="stop-color:#873A8E"/>
				<stop  offset="0.2206" style="stop-color:#934091"/>
				<stop  offset="0.5795" style="stop-color:#B0529A"/>
				<stop  offset="1" style="stop-color:#D66FA9"/>
			</linearGradient>
			<path class="st59" d="M219.87,264.14c-0.32,0-0.64-0.11-0.89-0.32l-1.7-1.42c-0.59-0.49-0.66-1.37-0.17-1.95
				c0.49-0.59,1.36-0.66,1.95-0.17l1.16,0.97c0.39-0.09,0.92-0.2,1.57-0.31c0.75-0.14,1.47,0.37,1.61,1.12
				c0.13,0.75-0.37,1.47-1.12,1.61c-1.25,0.22-2.04,0.43-2.04,0.44C220.11,264.12,219.99,264.14,219.87,264.14z"/>
			<linearGradient id="SVGID_16_" gradientUnits="userSpaceOnUse" x1="350.8962" y1="348.5082" x2="157.2857" y2="219.9886">
				<stop  offset="0.0354" style="stop-color:#873A8E"/>
				<stop  offset="0.2206" style="stop-color:#934091"/>
				<stop  offset="0.5795" style="stop-color:#B0529A"/>
				<stop  offset="1" style="stop-color:#D66FA9"/>
			</linearGradient>
			<path class="st60" d="M214.69,259.79c-0.31,0-0.63-0.11-0.89-0.32l-3.49-2.93c-0.59-0.49-0.66-1.37-0.17-1.95
				c0.49-0.59,1.37-0.66,1.95-0.17l3.49,2.93c0.59,0.49,0.66,1.37,0.17,1.95C215.48,259.62,215.08,259.79,214.69,259.79z"/>
			<linearGradient id="SVGID_17_" gradientUnits="userSpaceOnUse" x1="351.9382" y1="346.9378" x2="158.3282" y2="218.4185">
				<stop  offset="0.0354" style="stop-color:#873A8E"/>
				<stop  offset="0.2206" style="stop-color:#934091"/>
				<stop  offset="0.5795" style="stop-color:#B0529A"/>
				<stop  offset="1" style="stop-color:#D66FA9"/>
			</linearGradient>
			<path class="st61" d="M207.72,253.93c-0.31,0-0.63-0.11-0.89-0.32l-1.7-1.43c-0.35-0.29-0.53-0.73-0.49-1.18
				c0.04-0.45,0.29-0.85,0.68-1.08l1.92-1.11c0.66-0.38,1.51-0.16,1.89,0.5c0.38,0.66,0.16,1.51-0.5,1.89l-0.21,0.12l0.19,0.16
				c0.59,0.49,0.66,1.37,0.17,1.95C208.5,253.76,208.11,253.93,207.72,253.93z"/>
			<linearGradient id="SVGID_18_" gradientUnits="userSpaceOnUse" x1="361.3066" y1="332.8278" x2="167.6949" y2="204.3074">
				<stop  offset="0.0354" style="stop-color:#873A8E"/>
				<stop  offset="0.2206" style="stop-color:#934091"/>
				<stop  offset="0.5795" style="stop-color:#B0529A"/>
				<stop  offset="1" style="stop-color:#D66FA9"/>
			</linearGradient>
			<path class="st62" d="M211.33,249.42c-0.48,0-0.94-0.25-1.2-0.69c-0.38-0.66-0.16-1.51,0.5-1.89l3.39-1.97
				c0.66-0.38,1.51-0.16,1.89,0.5c0.38,0.66,0.16,1.51-0.5,1.89l-3.39,1.97C211.8,249.36,211.56,249.42,211.33,249.42z
				 M218.11,245.49c-0.48,0-0.94-0.25-1.2-0.69c-0.38-0.66-0.16-1.51,0.5-1.89l3.39-1.97c0.66-0.38,1.51-0.16,1.89,0.5
				c0.38,0.66,0.16,1.51-0.5,1.89l-3.39,1.97C218.58,245.43,218.35,245.49,218.11,245.49z M224.89,241.55
				c-0.48,0-0.94-0.25-1.2-0.69c-0.38-0.66-0.16-1.51,0.5-1.89l3.39-1.97c0.66-0.38,1.51-0.16,1.89,0.5
				c0.38,0.66,0.16,1.51-0.5,1.89l-3.39,1.97C225.37,241.49,225.13,241.55,224.89,241.55z M231.67,237.61
				c-0.48,0-0.94-0.25-1.2-0.69c-0.38-0.66-0.16-1.51,0.5-1.89l3.39-1.97c0.66-0.38,1.51-0.16,1.89,0.5
				c0.38,0.66,0.16,1.51-0.5,1.89l-3.39,1.97C232.15,237.55,231.91,237.61,231.67,237.61z"/>
			<linearGradient id="SVGID_19_" gradientUnits="userSpaceOnUse" x1="371.0046" y1="318.2179" x2="177.3928" y2="189.6974">
				<stop  offset="0.0354" style="stop-color:#873A8E"/>
				<stop  offset="0.2206" style="stop-color:#934091"/>
				<stop  offset="0.5795" style="stop-color:#B0529A"/>
				<stop  offset="1" style="stop-color:#D66FA9"/>
			</linearGradient>
			<path class="st63" d="M238.45,233.67c-0.48,0-0.94-0.25-1.2-0.69c-0.38-0.66-0.16-1.51,0.5-1.89l0.99-0.58l-0.31-1.1
				c-0.21-0.74,0.23-1.5,0.96-1.71c0.73-0.2,1.5,0.23,1.71,0.96l0.59,2.13c0.17,0.61-0.09,1.25-0.64,1.57l-1.92,1.11
				C238.93,233.61,238.69,233.67,238.45,233.67z"/>
			<linearGradient id="SVGID_20_" gradientUnits="userSpaceOnUse" x1="374.1736" y1="313.4442" x2="180.5615" y2="184.9235">
				<stop  offset="0.0354" style="stop-color:#873A8E"/>
				<stop  offset="0.2206" style="stop-color:#934091"/>
				<stop  offset="0.5795" style="stop-color:#B0529A"/>
				<stop  offset="1" style="stop-color:#D66FA9"/>
			</linearGradient>
			<path class="st64" d="M238.67,226.49c-0.61,0-1.16-0.4-1.33-1.01l-1.1-3.94c-0.21-0.74,0.23-1.5,0.96-1.71
				c0.73-0.21,1.5,0.23,1.71,0.96l1.1,3.94c0.21,0.74-0.23,1.5-0.96,1.71C238.92,226.47,238.8,226.49,238.67,226.49z"/>
			<linearGradient id="SVGID_21_" gradientUnits="userSpaceOnUse" x1="377.3314" y1="308.6876" x2="183.7192" y2="180.1669">
				<stop  offset="0.0354" style="stop-color:#873A8E"/>
				<stop  offset="0.2206" style="stop-color:#934091"/>
				<stop  offset="0.5795" style="stop-color:#B0529A"/>
				<stop  offset="1" style="stop-color:#D66FA9"/>
			</linearGradient>
			<path class="st65" d="M236.48,218.61c-0.61,0-1.16-0.4-1.33-1.01l-0.59-2.13c-0.18-0.63,0.11-1.29,0.69-1.6l1.96-1.03
				c0.68-0.36,1.51-0.1,1.87,0.58c0.36,0.68,0.1,1.51-0.58,1.87l-0.97,0.51l0.29,1.06c0.21,0.74-0.23,1.5-0.96,1.71
				C236.73,218.59,236.6,218.61,236.48,218.61z"/>
			<linearGradient id="SVGID_22_" gradientUnits="userSpaceOnUse" x1="381.4433" y1="302.4917" x2="187.8318" y2="173.9714">
				<stop  offset="0.0354" style="stop-color:#873A8E"/>
				<stop  offset="0.2206" style="stop-color:#934091"/>
				<stop  offset="0.5795" style="stop-color:#B0529A"/>
				<stop  offset="1" style="stop-color:#D66FA9"/>
			</linearGradient>
			<path class="st66" d="M242.22,213.05c-0.5,0-0.98-0.27-1.23-0.74c-0.36-0.68-0.1-1.51,0.58-1.87l2.77-1.36
				c0.68-0.35,1.51-0.1,1.87,0.58c0.36,0.68,0.1,1.51-0.58,1.87l-2.77,1.36C242.65,213,242.43,213.05,242.22,213.05z"/>
		</g>
		<linearGradient id="SVGID_23_" gradientUnits="userSpaceOnUse" x1="383.1024" y1="299.9939" x2="189.4907" y2="171.4735">
			<stop  offset="0.0354" style="stop-color:#873A8E"/>
			<stop  offset="0.2206" style="stop-color:#934091"/>
			<stop  offset="0.5795" style="stop-color:#B0529A"/>
			<stop  offset="1" style="stop-color:#D66FA9"/>
		</linearGradient>
		<path class="st67" d="M249.39,211.02c-1.34,0.77-3.52,0.77-4.87-0.01c-1.35-0.78-1.36-2.04-0.02-2.81
			c1.34-0.77,3.52-0.77,4.87,0.01C250.72,208.99,250.73,210.25,249.39,211.02z"/>
		<polygon class="st44" points="409.7,347.88 429.64,336.06 405.63,313.9 398.62,318.7 411.91,333.48 403.05,339.02 		"/>
		<polygon class="st44" points="360.95,404.01 380.89,392.2 362.61,376.13 355.59,380.93 354.3,395.15 		"/>
		<polygon class="st44" points="390.86,264.41 374.98,274.39 385.49,280.28 395.51,277.32 406.74,283.62 418.93,276.6 		"/>
		<polygon class="st44" points="204.36,207.91 199.93,210.86 220.98,220.1 225.41,215.67 221.35,207.91 		"/>
		<polygon class="st44" points="219.87,304.67 235.75,294.7 229.47,288.42 222.82,292.11 216.55,286.2 204.73,293.22 		"/>
		<polygon class="st44" points="328.45,231.18 343.59,220.84 328.45,207.54 323.28,212.34 331.4,218.62 324.39,224.53 		"/>
		<polygon class="st44" points="440.35,326.09 451.43,319.07 451.06,301.35 442.57,299.87 440.35,311.32 436.29,314.27 
			418.19,298.39 412.28,301.72 		"/>
		<polygon class="st44" points="268.62,293.22 280.81,286.94 266.77,259.24 255.69,265.15 255.32,273.28 249.42,277.71 		"/>
	</g>
	<linearGradient id="SVGID_24_" gradientUnits="userSpaceOnUse" x1="468.4705" y1="390.8751" x2="304.8654" y2="428.545">
		<stop  offset="5.050510e-03" style="stop-color:#442680"/>
		<stop  offset="0.1146" style="stop-color:#502982"/>
		<stop  offset="0.3257" style="stop-color:#6F3289"/>
		<stop  offset="0.4747" style="stop-color:#873A8E"/>
		<stop  offset="0.5699" style="stop-color:#8B3B8E"/>
		<stop  offset="0.6714" style="stop-color:#944091"/>
		<stop  offset="0.7758" style="stop-color:#A44A96"/>
		<stop  offset="0.8822" style="stop-color:#B9599D"/>
		<stop  offset="0.9891" style="stop-color:#D36CA7"/>
		<stop  offset="1" style="stop-color:#D66FA9"/>
	</linearGradient>
	<path class="st68" d="M336.85,445.23l-0.3-0.25l-30.82-25.45c-0.24-0.19-0.27-0.54-0.07-0.78c0.19-0.24,0.55-0.27,0.78-0.07
		l30.52,25.21l132.01-77.15c0.26-0.16,0.6-0.07,0.76,0.2c0.15,0.26,0.06,0.6-0.2,0.76L336.85,445.23z"/>
	<g>
		
			<radialGradient id="SVGID_25_" cx="1200.3326" cy="-3230.509" r="24.4239" gradientTransform="matrix(1.181 0 0 0.6022 -1007.0955 2210.6799)" gradientUnits="userSpaceOnUse">
			<stop  offset="0" style="stop-color:#C8C9CA"/>
			<stop  offset="1" style="stop-color:#FFFFFF"/>
		</radialGradient>
		<ellipse class="st69" cx="409.94" cy="265.27" rx="28.84" ry="14.71"/>
		<linearGradient id="SVGID_26_" gradientUnits="userSpaceOnUse" x1="431.6267" y1="256.445" x2="385.75" y2="152.2133">
			<stop  offset="0.0354" style="stop-color:#F07E23"/>
			<stop  offset="0.2421" style="stop-color:#F18732"/>
			<stop  offset="0.6406" style="stop-color:#F5A059"/>
			<stop  offset="1" style="stop-color:#F9B981"/>
		</linearGradient>
		<path class="st70" d="M410.38,155.29c-9.4-5.43-17.82-5.59-23.65-1.52l-6.75,3.15l0.83,4.33c-1.45,3.34-2.27,7.42-2.27,12.19
			c0,13.82,7.39,35.63,15.05,54.53l7.99,41.7l8.81-4.4c0,0,31.85-26.36,31.85-55.06C442.22,190.03,427.97,165.44,410.38,155.29z"/>
		<linearGradient id="SVGID_27_" gradientUnits="userSpaceOnUse" x1="350.939" y1="245.4797" x2="440.1229" y2="172.8112">
			<stop  offset="0.0354" style="stop-color:#F07E23"/>
			<stop  offset="0.2421" style="stop-color:#F18732"/>
			<stop  offset="0.6406" style="stop-color:#F5A059"/>
			<stop  offset="1" style="stop-color:#F9B981"/>
		</linearGradient>
		<path class="st71" d="M433.42,214.62c0,28.7-31.85,55.06-31.85,55.06s-31.85-63.13-31.85-91.83c0-20.18,14.26-28.31,31.85-18.16
			C419.16,169.84,433.42,194.44,433.42,214.62z"/>
		<radialGradient id="SVGID_28_" cx="417.4267" cy="194.5233" r="44.8728" gradientUnits="userSpaceOnUse">
			<stop  offset="0" style="stop-color:#FFFFFF"/>
			<stop  offset="1" style="stop-color:#000000"/>
		</radialGradient>
		<path class="st72" d="M403.59,158.59c-9.19-5.3-17.44-5.58-23.25-1.8c5.64-2.55,13.06-1.82,21.23,2.9
			c17.59,10.15,31.85,34.75,31.85,54.93c0,24.59-23.37,47.45-30.06,53.49c0.14,0.28,0.23,0.46,0.23,0.46s31.85-26.36,31.85-55.06
			C435.43,193.34,421.18,168.74,403.59,158.59z"/>
		
			<linearGradient id="SVGID_29_" gradientUnits="userSpaceOnUse" x1="-142.2898" y1="2353.0527" x2="-166.8398" y2="2334.4941" gradientTransform="matrix(0.866 0.5 0 1.1547 535.2537 -2433.1067)">
			<stop  offset="0" style="stop-color:#D4D1D8"/>
			<stop  offset="0.9215" style="stop-color:#FCFBFC"/>
			<stop  offset="1" style="stop-color:#FFFFFF"/>
		</linearGradient>
		<path class="st73" d="M415.42,204.23c0,8.78-6.2,12.31-13.85,7.9c-7.65-4.42-13.85-15.11-13.85-23.89c0-8.78,6.2-12.31,13.85-7.9
			C409.22,184.76,415.42,195.45,415.42,204.23z"/>
		<path class="st44" d="M405.84,210.15c-7.65-4.42-13.85-15.11-13.85-23.89c0-3.48,0.98-6.11,2.63-7.78
			c-4.13,0.37-6.91,3.88-6.91,9.75c0,8.78,6.2,19.47,13.85,23.89c4.62,2.67,8.7,2.42,11.22-0.12
			C410.74,212.19,408.38,211.61,405.84,210.15z"/>
	</g>
</g>
</svg>
