<?xml version="1.0" encoding="utf-8"?>
<!-- Generator: Adobe Illustrator 24.2.3, SVG Export Plug-In . SVG Version: 6.00 Build 0)  -->
<svg version="1.1" id="Calque_1" xmlns="http://www.w3.org/2000/svg" xmlns:xlink="http://www.w3.org/1999/xlink" x="0px" y="0px"
	 viewBox="0 0 240 100" style="enable-background:new 0 0 240 100;" xml:space="preserve">
<style type="text/css">
	.st0{fill-rule:evenodd;clip-rule:evenodd;}
	.st1{fill:#FFFFFF;}
	.st2{fill-rule:evenodd;clip-rule:evenodd;fill:url(#path1192_1_);}
	.st3{fill-rule:evenodd;clip-rule:evenodd;fill:url(#path1203_1_);}
	.st4{fill-rule:evenodd;clip-rule:evenodd;fill:url(#path1210_1_);}
	.st5{fill-rule:evenodd;clip-rule:evenodd;fill:url(#path1223_1_);}
</style>
<g>
	<path class="st0" d="M25.99,15.44h188.01c3.85,0,6.99,3.15,6.99,6.99v55.13c0,3.85-3.15,6.99-6.99,6.99H25.99
		c-3.85,0-6.99-3.15-6.99-6.99V22.43C19,18.59,22.15,15.44,25.99,15.44z"/>
	<g>
		<path class="st1" d="M97.14,68.47c-0.48,0.58-1.16,1.02-2.04,1.34c-0.88,0.32-1.85,0.48-2.92,0.48c-1.12,0-2.11-0.25-2.96-0.74
			c-0.85-0.49-1.5-1.2-1.96-2.14c-0.46-0.93-0.7-2.03-0.71-3.29v-0.88c0-1.3,0.22-2.42,0.66-3.37c0.44-0.95,1.07-1.67,1.89-2.18
			c0.82-0.5,1.79-0.75,2.89-0.75c1.54,0,2.74,0.37,3.61,1.1c0.87,0.73,1.38,1.8,1.54,3.2h-2.6c-0.12-0.74-0.38-1.29-0.79-1.63
			c-0.41-0.34-0.97-0.52-1.68-0.52c-0.91,0-1.6,0.34-2.08,1.03c-0.48,0.68-0.72,1.7-0.72,3.05v0.83c0,1.36,0.26,2.39,0.78,3.08
			c0.52,0.7,1.27,1.04,2.27,1.04c1,0,1.72-0.21,2.15-0.64v-2.24h-2.43V63.3h5.11V68.47z"/>
		<path class="st1" d="M98.73,65.2c0-0.96,0.18-1.81,0.55-2.56c0.37-0.75,0.9-1.33,1.59-1.74c0.69-0.41,1.5-0.62,2.41-0.62
			c1.3,0,2.36,0.4,3.19,1.19c0.82,0.8,1.28,1.88,1.38,3.25l0.02,0.66c0,1.48-0.41,2.67-1.24,3.56c-0.83,0.89-1.93,1.34-3.33,1.34
			c-1.39,0-2.5-0.45-3.33-1.34c-0.83-0.89-1.24-2.1-1.24-3.64V65.2z M101.31,65.39c0,0.92,0.17,1.62,0.52,2.1
			c0.34,0.49,0.84,0.73,1.48,0.73c0.62,0,1.11-0.24,1.46-0.72c0.35-0.48,0.53-1.25,0.53-2.3c0-0.9-0.18-1.6-0.53-2.09
			c-0.35-0.49-0.84-0.74-1.48-0.74c-0.63,0-1.12,0.25-1.46,0.74C101.48,63.6,101.31,64.36,101.31,65.39z"/>
		<path class="st1" d="M109.05,65.2c0-0.96,0.18-1.81,0.55-2.56c0.37-0.75,0.9-1.33,1.59-1.74c0.69-0.41,1.5-0.62,2.41-0.62
			c1.3,0,2.36,0.4,3.19,1.19c0.82,0.8,1.28,1.88,1.38,3.25l0.02,0.66c0,1.48-0.41,2.67-1.24,3.56c-0.83,0.89-1.93,1.34-3.33,1.34
			c-1.39,0-2.5-0.45-3.33-1.34c-0.83-0.89-1.24-2.1-1.24-3.64V65.2z M111.63,65.39c0,0.92,0.17,1.62,0.52,2.1
			c0.34,0.49,0.84,0.73,1.48,0.73c0.62,0,1.11-0.24,1.46-0.72c0.35-0.48,0.53-1.25,0.53-2.3c0-0.9-0.18-1.6-0.53-2.09
			c-0.35-0.49-0.84-0.74-1.48-0.74c-0.63,0-1.12,0.25-1.46,0.74C111.8,63.6,111.63,64.36,111.63,65.39z"/>
		<path class="st1" d="M119.4,65.22c0-1.48,0.35-2.67,1.06-3.57c0.7-0.9,1.65-1.36,2.85-1.36c1.06,0,1.88,0.36,2.47,1.09l0.11-0.91
			h2.34v9.32c0,0.84-0.19,1.58-0.58,2.2c-0.38,0.62-0.92,1.1-1.62,1.43c-0.7,0.33-1.51,0.49-2.44,0.49c-0.71,0-1.4-0.14-2.07-0.42
			c-0.67-0.28-1.18-0.65-1.52-1.09l1.14-1.57c0.64,0.72,1.42,1.08,2.34,1.08c0.68,0,1.22-0.18,1.6-0.55
			c0.38-0.37,0.57-0.88,0.57-1.56v-0.52c-0.59,0.67-1.38,1.01-2.34,1.01c-1.16,0-2.1-0.45-2.81-1.36c-0.72-0.91-1.07-2.11-1.07-3.61
			V65.22z M121.98,65.41c0,0.87,0.18,1.56,0.53,2.06c0.35,0.5,0.83,0.75,1.44,0.75c0.78,0,1.35-0.29,1.68-0.88v-4.06
			c-0.34-0.59-0.9-0.88-1.67-0.88c-0.62,0-1.1,0.25-1.46,0.76C122.16,63.65,121.98,64.41,121.98,65.41z"/>
		<path class="st1" d="M132.92,70.12h-2.59V56.42h2.59V70.12z"/>
		<path class="st1" d="M139.48,70.29c-1.41,0-2.57-0.43-3.45-1.3c-0.89-0.87-1.33-2.02-1.33-3.47v-0.25c0-0.97,0.19-1.83,0.56-2.6
			c0.37-0.76,0.9-1.35,1.59-1.77c0.69-0.41,1.47-0.62,2.35-0.62c1.32,0,2.36,0.42,3.12,1.25c0.76,0.83,1.14,2.01,1.14,3.54v1.05
			h-6.14c0.08,0.63,0.33,1.14,0.75,1.52c0.42,0.38,0.95,0.57,1.59,0.57c0.99,0,1.77-0.36,2.33-1.08l1.27,1.42
			c-0.39,0.55-0.91,0.97-1.57,1.28C141.01,70.14,140.28,70.29,139.48,70.29z M139.19,62.37c-0.51,0-0.93,0.17-1.24,0.52
			c-0.32,0.35-0.52,0.84-0.61,1.49h3.58v-0.21c-0.01-0.57-0.17-1.02-0.46-1.33C140.15,62.53,139.73,62.37,139.19,62.37z"/>
		<path class="st1" d="M152.3,65.54v4.57h-2.67V57.14h5.06c0.97,0,1.83,0.18,2.57,0.53c0.74,0.36,1.31,0.86,1.71,1.52
			c0.4,0.66,0.6,1.4,0.6,2.24c0,1.27-0.44,2.27-1.31,3.01c-0.87,0.73-2.08,1.1-3.61,1.1H152.3z M152.3,63.38h2.39
			c0.71,0,1.25-0.17,1.62-0.5c0.37-0.33,0.56-0.81,0.56-1.43c0-0.64-0.19-1.15-0.56-1.54c-0.37-0.39-0.89-0.59-1.55-0.61h-2.45
			V63.38z"/>
		<path class="st1" d="M163.95,70.12h-2.59V56.42h2.59V70.12z"/>
		<path class="st1" d="M171.66,70.12c-0.12-0.23-0.21-0.52-0.26-0.86c-0.62,0.7-1.44,1.04-2.43,1.04c-0.94,0-1.73-0.27-2.35-0.82
			c-0.62-0.55-0.93-1.24-0.93-2.07c0-1.02,0.38-1.81,1.14-2.35c0.76-0.55,1.85-0.82,3.29-0.83h1.19v-0.55c0-0.45-0.11-0.8-0.34-1.07
			c-0.23-0.27-0.59-0.4-1.08-0.4c-0.43,0-0.77,0.1-1.02,0.31c-0.25,0.21-0.37,0.49-0.37,0.86h-2.58c0-0.56,0.17-1.08,0.52-1.55
			c0.34-0.48,0.83-0.85,1.46-1.12c0.63-0.27,1.34-0.41,2.12-0.41c1.19,0,2.13,0.3,2.83,0.9c0.7,0.6,1.05,1.44,1.05,2.52v4.18
			c0.01,0.92,0.13,1.61,0.38,2.08v0.15H171.66z M169.53,68.32c0.38,0,0.73-0.08,1.05-0.25c0.32-0.17,0.56-0.4,0.71-0.68v-1.66h-0.96
			c-1.29,0-1.98,0.45-2.06,1.34l-0.01,0.15c0,0.32,0.11,0.59,0.34,0.79C168.83,68.22,169.14,68.32,169.53,68.32z"/>
		<path class="st1" d="M179.33,66.47l1.78-6h2.76L180,71.61l-0.21,0.51c-0.58,1.26-1.53,1.89-2.85,1.89c-0.37,0-0.75-0.06-1.14-0.17
			v-1.95l0.39,0.01c0.49,0,0.85-0.07,1.09-0.22c0.24-0.15,0.43-0.4,0.57-0.74l0.3-0.79l-3.38-9.67h2.77L179.33,66.47z"/>
	</g>
	<g>
		<path class="st1" d="M93.53,42.11h-5.32L87,45.4h-1.04l4.44-11.73h0.94l4.44,11.73h-1.03L93.53,42.11z M88.51,41.27h4.7
			l-2.35-6.39L88.51,41.27z"/>
		<path class="st1" d="M99.59,44.07l2.65-7.39h0.99l-3.25,8.71h-0.78l-3.27-8.71h0.99L99.59,44.07z"/>
		<path class="st1" d="M110.18,45.4c-0.1-0.27-0.16-0.68-0.19-1.22c-0.34,0.44-0.77,0.78-1.29,1.02c-0.52,0.24-1.08,0.36-1.66,0.36
			c-0.84,0-1.52-0.23-2.03-0.7c-0.52-0.47-0.78-1.06-0.78-1.77c0-0.85,0.35-1.52,1.06-2.01c0.71-0.49,1.69-0.74,2.95-0.74h1.75
			v-0.99c0-0.62-0.19-1.11-0.58-1.47c-0.38-0.36-0.94-0.54-1.68-0.54c-0.67,0-1.23,0.17-1.67,0.52c-0.44,0.34-0.66,0.76-0.66,1.24
			l-0.97-0.01c0-0.69,0.32-1.29,0.97-1.8c0.64-0.51,1.44-0.76,2.38-0.76c0.97,0,1.74,0.24,2.3,0.73c0.56,0.49,0.85,1.16,0.87,2.03
			v4.12c0,0.84,0.09,1.47,0.27,1.89v0.1H110.18z M107.16,44.71c0.64,0,1.22-0.16,1.73-0.47c0.51-0.31,0.88-0.73,1.11-1.25v-1.92
			h-1.72c-0.96,0.01-1.71,0.19-2.26,0.53c-0.54,0.34-0.81,0.81-0.81,1.41c0,0.49,0.18,0.89,0.54,1.22
			C106.11,44.55,106.58,44.71,107.16,44.71z"/>
		<path class="st1" d="M113.46,34.17c0-0.18,0.06-0.33,0.18-0.46c0.12-0.13,0.28-0.19,0.48-0.19c0.2,0,0.37,0.06,0.49,0.19
			c0.12,0.13,0.18,0.28,0.18,0.46c0,0.18-0.06,0.33-0.18,0.46c-0.12,0.12-0.28,0.18-0.49,0.18c-0.2,0-0.37-0.06-0.48-0.18
			C113.52,34.5,113.46,34.35,113.46,34.17z M114.6,45.4h-0.97v-8.71h0.97V45.4z"/>
		<path class="st1" d="M118.29,45.4h-0.97V33.03h0.97V45.4z"/>
		<path class="st1" d="M126.41,45.4c-0.1-0.27-0.16-0.68-0.19-1.22c-0.34,0.44-0.77,0.78-1.29,1.02c-0.52,0.24-1.08,0.36-1.66,0.36
			c-0.84,0-1.52-0.23-2.03-0.7c-0.52-0.47-0.78-1.06-0.78-1.77c0-0.85,0.35-1.52,1.06-2.01c0.71-0.49,1.69-0.74,2.95-0.74h1.75
			v-0.99c0-0.62-0.19-1.11-0.58-1.47c-0.38-0.36-0.94-0.54-1.68-0.54c-0.67,0-1.23,0.17-1.67,0.52c-0.44,0.34-0.66,0.76-0.66,1.24
			l-0.97-0.01c0-0.69,0.32-1.29,0.97-1.8c0.64-0.51,1.44-0.76,2.38-0.76c0.97,0,1.74,0.24,2.3,0.73c0.56,0.49,0.85,1.16,0.87,2.03
			v4.12c0,0.84,0.09,1.47,0.27,1.89v0.1H126.41z M123.38,44.71c0.64,0,1.22-0.16,1.73-0.47c0.51-0.31,0.88-0.73,1.11-1.25v-1.92
			h-1.72c-0.96,0.01-1.71,0.19-2.26,0.53c-0.54,0.34-0.81,0.81-0.81,1.41c0,0.49,0.18,0.89,0.54,1.22
			C122.33,44.55,122.8,44.71,123.38,44.71z"/>
		<path class="st1" d="M136.76,41.13c0,1.36-0.3,2.44-0.9,3.23c-0.6,0.8-1.41,1.2-2.42,1.2c-1.21,0-2.13-0.45-2.75-1.35l-0.04,1.19
			h-0.9V33.03h0.96v4.92c0.61-0.95,1.52-1.43,2.72-1.43c1.03,0,1.85,0.39,2.44,1.18c0.6,0.79,0.9,1.88,0.9,3.28V41.13z
			 M135.79,40.96c0-1.15-0.22-2.04-0.67-2.66c-0.45-0.63-1.07-0.94-1.88-0.94c-0.62,0-1.14,0.15-1.57,0.46
			c-0.43,0.3-0.75,0.75-0.97,1.33v3.93c0.48,1.1,1.34,1.64,2.56,1.64c0.79,0,1.42-0.31,1.86-0.94
			C135.57,43.15,135.79,42.22,135.79,40.96z"/>
		<path class="st1" d="M139.97,45.4H139V33.03h0.97V45.4z"/>
		<path class="st1" d="M145.96,45.56c-0.74,0-1.41-0.18-2.01-0.55c-0.6-0.37-1.06-0.87-1.4-1.53c-0.33-0.65-0.5-1.38-0.5-2.19v-0.35
			c0-0.84,0.16-1.59,0.49-2.26c0.32-0.67,0.78-1.2,1.36-1.58c0.58-0.38,1.21-0.58,1.88-0.58c1.06,0,1.9,0.36,2.52,1.08
			c0.62,0.72,0.93,1.71,0.93,2.96v0.54h-6.22v0.19c0,0.99,0.28,1.81,0.85,2.47c0.57,0.66,1.28,0.99,2.14,0.99
			c0.52,0,0.97-0.09,1.37-0.28c0.39-0.19,0.75-0.49,1.08-0.9l0.6,0.46C148.33,45.05,147.31,45.56,145.96,45.56z M145.78,37.35
			c-0.72,0-1.34,0.27-1.83,0.8c-0.5,0.53-0.8,1.25-0.91,2.14h5.23v-0.1c-0.03-0.84-0.27-1.52-0.72-2.05
			C147.1,37.61,146.51,37.35,145.78,37.35z"/>
		<path class="st1" d="M154.58,40.92c0-0.84,0.16-1.59,0.49-2.26c0.32-0.67,0.78-1.19,1.38-1.57c0.59-0.37,1.27-0.56,2.02-0.56
			c1.16,0,2.1,0.41,2.82,1.22c0.72,0.81,1.08,1.89,1.08,3.23v0.2c0,0.84-0.16,1.6-0.49,2.28c-0.32,0.67-0.78,1.19-1.37,1.56
			c-0.59,0.37-1.26,0.55-2.02,0.55c-1.15,0-2.09-0.41-2.81-1.22c-0.72-0.81-1.08-1.89-1.08-3.23V40.92z M155.55,41.18
			c0,1.04,0.27,1.9,0.81,2.57c0.54,0.67,1.25,1,2.12,1c0.87,0,1.57-0.33,2.11-1c0.54-0.67,0.81-1.55,0.81-2.65v-0.19
			c0-0.67-0.12-1.28-0.37-1.83c-0.25-0.55-0.59-0.98-1.04-1.28c-0.45-0.3-0.96-0.45-1.53-0.45c-0.86,0-1.56,0.34-2.1,1.01
			c-0.54,0.67-0.81,1.56-0.81,2.65V41.18z"/>
		<path class="st1" d="M165.27,36.69l0.03,1.49c0.33-0.54,0.74-0.95,1.22-1.23c0.49-0.28,1.03-0.42,1.62-0.42
			c0.93,0,1.63,0.26,2.09,0.79c0.46,0.53,0.69,1.32,0.69,2.37v5.72h-0.96v-5.73c-0.01-0.78-0.17-1.36-0.5-1.74
			c-0.32-0.38-0.84-0.57-1.56-0.57c-0.6,0-1.12,0.19-1.58,0.56c-0.46,0.37-0.8,0.88-1.02,1.51v5.97h-0.96v-8.71H165.27z"/>
		<path class="st1" d="M178.92,34.46v2.23h1.8v0.79h-1.8v5.81c0,0.48,0.09,0.84,0.26,1.08c0.17,0.24,0.47,0.35,0.87,0.35
			c0.16,0,0.42-0.03,0.78-0.08l0.04,0.78c-0.25,0.09-0.6,0.14-1.03,0.14c-0.66,0-1.14-0.19-1.44-0.58c-0.3-0.38-0.45-0.95-0.45-1.7
			v-5.81h-1.6v-0.79h1.6v-2.23H178.92z"/>
		<path class="st1" d="M183.68,38.16c0.32-0.52,0.72-0.92,1.22-1.21c0.49-0.28,1.03-0.43,1.62-0.43c0.93,0,1.63,0.26,2.09,0.79
			c0.46,0.53,0.69,1.32,0.69,2.37v5.72h-0.96v-5.73c-0.01-0.78-0.17-1.36-0.5-1.74c-0.32-0.38-0.84-0.57-1.56-0.57
			c-0.6,0-1.12,0.19-1.58,0.56c-0.46,0.37-0.8,0.88-1.02,1.51v5.97h-0.96V33.03h0.96V38.16z"/>
		<path class="st1" d="M195.15,45.56c-0.74,0-1.41-0.18-2.01-0.55c-0.6-0.37-1.06-0.87-1.4-1.53c-0.33-0.65-0.5-1.38-0.5-2.19v-0.35
			c0-0.84,0.16-1.59,0.49-2.26c0.32-0.67,0.78-1.2,1.36-1.58c0.58-0.38,1.21-0.58,1.88-0.58c1.06,0,1.9,0.36,2.52,1.08
			c0.62,0.72,0.93,1.71,0.93,2.96v0.54h-6.22v0.19c0,0.99,0.28,1.81,0.85,2.47c0.57,0.66,1.28,0.99,2.14,0.99
			c0.52,0,0.97-0.09,1.37-0.28c0.39-0.19,0.75-0.49,1.08-0.9l0.6,0.46C197.53,45.05,196.5,45.56,195.15,45.56z M194.97,37.35
			c-0.72,0-1.34,0.27-1.83,0.8c-0.5,0.53-0.8,1.25-0.91,2.14h5.23v-0.1c-0.03-0.84-0.27-1.52-0.72-2.05
			C196.29,37.61,195.7,37.35,194.97,37.35z"/>
	</g>
	<g>
		
			<linearGradient id="path1192_1_" gradientUnits="userSpaceOnUse" x1="3220.5476" y1="1385.8339" x2="3194.8149" y2="1399.1168" gradientTransform="matrix(1.3204 0 0 2.558 -4198.2139 -3517.5176)">
			<stop  offset="0" style="stop-color:#00A0FF"/>
			<stop  offset="7.000000e-03" style="stop-color:#00A1FF"/>
			<stop  offset="0.26" style="stop-color:#00BEFF"/>
			<stop  offset="0.512" style="stop-color:#00D2FF"/>
			<stop  offset="0.76" style="stop-color:#00DFFF"/>
			<stop  offset="1" style="stop-color:#00E3FF"/>
		</linearGradient>
		<path id="path1192" class="st2" d="M31.33,24.18c-0.58,0.65-0.92,1.65-0.92,2.94v46.09c0,1.3,0.33,2.29,0.94,2.92l0.16,0.14
			l24.9-25.83v-0.58L31.49,24.04L31.33,24.18z"/>
		
			<linearGradient id="path1203_1_" gradientUnits="userSpaceOnUse" x1="3792.9055" y1="3003.4404" x2="3746.0457" y2="3003.4404" gradientTransform="matrix(1.0374 0 0 0.8735 -3856.3989 -2573.3398)">
			<stop  offset="0" style="stop-color:#FFE000"/>
			<stop  offset="0.409" style="stop-color:#FFBD00"/>
			<stop  offset="0.775" style="stop-color:#FFA500"/>
			<stop  offset="1" style="stop-color:#FF9C00"/>
		</linearGradient>
		<path id="path1203" class="st3" d="M64.69,59.08l-8.3-8.9l0,0l8.3-8.93l0.18,0.12l9.83,5.79c2.81,1.65,2.81,4.36,0,6.02
			l-9.83,5.79C64.87,58.97,64.69,59.08,64.69,59.08L64.69,59.08z"/>
		
			<linearGradient id="path1210_1_" gradientUnits="userSpaceOnUse" x1="2770.0564" y1="2188.7041" x2="2742.575" y2="2224.3564" gradientTransform="matrix(1.7038 0 0 1.3133 -4659.3008 -2819.5503)">
			<stop  offset="0" style="stop-color:#FF3A44"/>
			<stop  offset="1" style="stop-color:#C31162"/>
		</linearGradient>
		<path id="path1210" class="st4" d="M64.87,58.97l-8.48-8.8L31.33,76.15c0.92,1.02,2.46,1.14,4.18,0.14L64.87,58.97"/>
		
			<linearGradient id="path1223_1_" gradientUnits="userSpaceOnUse" x1="2748.8914" y1="2156.0559" x2="2761.1628" y2="2171.9851" gradientTransform="matrix(1.7038 0 0 1.3126 -4659.3008 -2820.6421)">
			<stop  offset="0" style="stop-color:#32A071"/>
			<stop  offset="0.069" style="stop-color:#2DA771"/>
			<stop  offset="0.476" style="stop-color:#15CF74"/>
			<stop  offset="0.801" style="stop-color:#06E775"/>
			<stop  offset="1" style="stop-color:#00F076"/>
		</linearGradient>
		<path id="path1223" class="st5" d="M64.87,41.37l-29.36-17.3c-1.72-1.02-3.26-0.88-4.18,0.14l25.05,25.96L64.87,41.37z"/>
	</g>
</g>
</svg>
