<?xml version="1.0" encoding="utf-8"?>
<!-- Generator: Adobe Illustrator 24.2.3, SVG Export Plug-In . SVG Version: 6.00 Build 0)  -->
<svg version="1.1" id="Calque_1" xmlns="http://www.w3.org/2000/svg" xmlns:xlink="http://www.w3.org/1999/xlink" x="0px" y="0px"
	 viewBox="0 0 212.19 78.98" style="enable-background:new 0 0 212.19 78.98;" xml:space="preserve">
<style type="text/css">
	.st0{fill-rule:evenodd;clip-rule:evenodd;}
	.st1{fill:#FFFFFF;}
	.st2{fill-rule:evenodd;clip-rule:evenodd;fill:url(#path1192_1_);}
	.st3{fill-rule:evenodd;clip-rule:evenodd;fill:url(#path1203_1_);}
	.st4{fill-rule:evenodd;clip-rule:evenodd;fill:url(#path1210_1_);}
	.st5{fill-rule:evenodd;clip-rule:evenodd;fill:url(#path1223_1_);}
</style>
<g>
	<path class="st0" d="M12.08,4.28h188.01c3.85,0,6.99,3.15,6.99,6.99v55.13c0,3.85-3.15,6.99-6.99,6.99H12.08
		c-3.85,0-6.99-3.15-6.99-6.99V11.27C5.08,7.43,8.23,4.28,12.08,4.28z"/>
	<g>
		<path class="st1" d="M83.22,57.32c-0.48,0.58-1.16,1.02-2.04,1.34c-0.88,0.32-1.85,0.48-2.92,0.48c-1.12,0-2.11-0.25-2.96-0.74
			c-0.85-0.49-1.5-1.2-1.96-2.14c-0.46-0.93-0.7-2.03-0.71-3.29v-0.88c0-1.3,0.22-2.42,0.66-3.37c0.44-0.95,1.07-1.67,1.89-2.18
			c0.82-0.5,1.79-0.75,2.89-0.75c1.54,0,2.74,0.37,3.61,1.1c0.87,0.73,1.38,1.8,1.54,3.2h-2.6c-0.12-0.74-0.38-1.29-0.79-1.63
			c-0.41-0.34-0.97-0.52-1.68-0.52c-0.91,0-1.6,0.34-2.08,1.03c-0.48,0.68-0.72,1.7-0.72,3.05v0.83c0,1.36,0.26,2.39,0.78,3.08
			c0.52,0.7,1.27,1.04,2.27,1.04c1,0,1.72-0.21,2.15-0.64v-2.24h-2.43v-1.97h5.11V57.32z"/>
		<path class="st1" d="M84.81,54.04c0-0.96,0.18-1.81,0.55-2.56c0.37-0.75,0.9-1.33,1.59-1.74c0.69-0.41,1.5-0.62,2.41-0.62
			c1.3,0,2.36,0.4,3.19,1.19c0.82,0.8,1.28,1.88,1.38,3.25l0.02,0.66c0,1.48-0.41,2.67-1.24,3.56c-0.83,0.89-1.93,1.34-3.33,1.34
			c-1.39,0-2.5-0.45-3.33-1.34c-0.83-0.89-1.24-2.1-1.24-3.64V54.04z M87.39,54.23c0,0.92,0.17,1.62,0.52,2.1
			c0.34,0.49,0.84,0.73,1.48,0.73c0.62,0,1.11-0.24,1.46-0.72c0.35-0.48,0.53-1.25,0.53-2.3c0-0.9-0.18-1.6-0.53-2.09
			c-0.35-0.49-0.84-0.74-1.48-0.74c-0.63,0-1.12,0.25-1.46,0.74C87.56,52.44,87.39,53.2,87.39,54.23z"/>
		<path class="st1" d="M95.14,54.04c0-0.96,0.18-1.81,0.55-2.56c0.37-0.75,0.9-1.33,1.59-1.74c0.69-0.41,1.5-0.62,2.41-0.62
			c1.3,0,2.36,0.4,3.19,1.19c0.82,0.8,1.28,1.88,1.38,3.25l0.02,0.66c0,1.48-0.41,2.67-1.24,3.56c-0.83,0.89-1.93,1.34-3.33,1.34
			c-1.39,0-2.5-0.45-3.33-1.34c-0.83-0.89-1.24-2.1-1.24-3.64V54.04z M97.71,54.23c0,0.92,0.17,1.62,0.52,2.1
			c0.34,0.49,0.84,0.73,1.48,0.73c0.62,0,1.11-0.24,1.46-0.72c0.35-0.48,0.53-1.25,0.53-2.3c0-0.9-0.18-1.6-0.53-2.09
			c-0.35-0.49-0.84-0.74-1.48-0.74c-0.63,0-1.12,0.25-1.46,0.74C97.89,52.44,97.71,53.2,97.71,54.23z"/>
		<path class="st1" d="M105.49,54.06c0-1.48,0.35-2.67,1.06-3.57c0.7-0.9,1.65-1.36,2.85-1.36c1.06,0,1.88,0.36,2.47,1.09l0.11-0.91
			h2.34v9.32c0,0.84-0.19,1.58-0.58,2.2c-0.38,0.62-0.92,1.1-1.62,1.43c-0.7,0.33-1.51,0.49-2.44,0.49c-0.71,0-1.4-0.14-2.07-0.42
			c-0.67-0.28-1.18-0.65-1.52-1.09l1.14-1.57c0.64,0.72,1.42,1.08,2.34,1.08c0.68,0,1.22-0.18,1.6-0.55
			c0.38-0.37,0.57-0.88,0.57-1.56v-0.52c-0.59,0.67-1.38,1.01-2.34,1.01c-1.16,0-2.1-0.45-2.81-1.36c-0.72-0.91-1.07-2.11-1.07-3.61
			V54.06z M108.06,54.25c0,0.87,0.18,1.56,0.53,2.06c0.35,0.5,0.83,0.75,1.44,0.75c0.78,0,1.35-0.29,1.68-0.88v-4.06
			c-0.34-0.59-0.9-0.88-1.67-0.88c-0.62,0-1.1,0.25-1.46,0.76C108.24,52.49,108.06,53.25,108.06,54.25z"/>
		<path class="st1" d="M119,58.96h-2.59V45.26H119V58.96z"/>
		<path class="st1" d="M125.56,59.13c-1.41,0-2.57-0.43-3.45-1.3c-0.89-0.87-1.33-2.02-1.33-3.47v-0.25c0-0.97,0.19-1.83,0.56-2.6
			c0.37-0.76,0.9-1.35,1.59-1.77c0.69-0.41,1.47-0.62,2.35-0.62c1.32,0,2.36,0.42,3.12,1.25c0.76,0.83,1.14,2.01,1.14,3.54v1.05
			h-6.14c0.08,0.63,0.33,1.14,0.75,1.52c0.42,0.38,0.95,0.57,1.59,0.57c0.99,0,1.77-0.36,2.33-1.08l1.27,1.42
			c-0.39,0.55-0.91,0.97-1.57,1.28C127.1,58.98,126.37,59.13,125.56,59.13z M125.27,51.21c-0.51,0-0.93,0.17-1.24,0.52
			c-0.32,0.35-0.52,0.84-0.61,1.49H127v-0.21c-0.01-0.57-0.17-1.02-0.46-1.33C126.24,51.37,125.82,51.21,125.27,51.21z"/>
		<path class="st1" d="M138.38,54.38v4.57h-2.67V45.98h5.06c0.97,0,1.83,0.18,2.57,0.53c0.74,0.36,1.31,0.86,1.71,1.52
			c0.4,0.66,0.6,1.4,0.6,2.24c0,1.27-0.44,2.27-1.31,3.01c-0.87,0.73-2.08,1.1-3.61,1.1H138.38z M138.38,52.22h2.39
			c0.71,0,1.25-0.17,1.62-0.5c0.37-0.33,0.56-0.81,0.56-1.43c0-0.64-0.19-1.15-0.56-1.54c-0.37-0.39-0.89-0.59-1.55-0.61h-2.45
			V52.22z"/>
		<path class="st1" d="M150.03,58.96h-2.59V45.26h2.59V58.96z"/>
		<path class="st1" d="M157.75,58.96c-0.12-0.23-0.21-0.52-0.26-0.86c-0.62,0.7-1.44,1.04-2.43,1.04c-0.94,0-1.73-0.27-2.35-0.82
			c-0.62-0.55-0.93-1.24-0.93-2.07c0-1.02,0.38-1.81,1.14-2.35c0.76-0.55,1.85-0.82,3.29-0.83h1.19v-0.55c0-0.45-0.11-0.8-0.34-1.07
			c-0.23-0.27-0.59-0.4-1.08-0.4c-0.43,0-0.77,0.1-1.02,0.31c-0.25,0.21-0.37,0.49-0.37,0.86h-2.58c0-0.56,0.17-1.08,0.52-1.55
			c0.34-0.48,0.83-0.85,1.46-1.12c0.63-0.27,1.34-0.41,2.12-0.41c1.19,0,2.13,0.3,2.83,0.9c0.7,0.6,1.05,1.44,1.05,2.52v4.18
			c0.01,0.92,0.13,1.61,0.38,2.08v0.15H157.75z M155.61,57.16c0.38,0,0.73-0.08,1.05-0.25c0.32-0.17,0.56-0.4,0.71-0.68v-1.66h-0.96
			c-1.29,0-1.98,0.45-2.06,1.34l-0.01,0.15c0,0.32,0.11,0.59,0.34,0.79C154.91,57.06,155.22,57.16,155.61,57.16z"/>
		<path class="st1" d="M165.41,55.31l1.78-6h2.76l-3.88,11.14l-0.21,0.51c-0.58,1.26-1.53,1.89-2.85,1.89
			c-0.37,0-0.75-0.06-1.14-0.17v-1.95l0.39,0.01c0.49,0,0.85-0.07,1.09-0.22c0.24-0.15,0.43-0.4,0.57-0.74l0.3-0.79l-3.38-9.67h2.77
			L165.41,55.31z"/>
	</g>
	<g>
		<path class="st1" d="M79.61,30.95h-5.32l-1.21,3.29h-1.04l4.44-11.73h0.94l4.44,11.73h-1.03L79.61,30.95z M74.59,30.11h4.7
			l-2.35-6.39L74.59,30.11z"/>
		<path class="st1" d="M85.67,32.91l2.65-7.39h0.99l-3.25,8.71h-0.78L82,25.53h0.99L85.67,32.91z"/>
		<path class="st1" d="M96.27,34.24c-0.1-0.27-0.16-0.68-0.19-1.22c-0.34,0.44-0.77,0.78-1.29,1.02c-0.52,0.24-1.08,0.36-1.66,0.36
			c-0.84,0-1.52-0.23-2.03-0.7c-0.52-0.47-0.78-1.06-0.78-1.77c0-0.85,0.35-1.52,1.06-2.01c0.71-0.49,1.69-0.74,2.95-0.74h1.75
			v-0.99c0-0.62-0.19-1.11-0.58-1.47c-0.38-0.36-0.94-0.54-1.68-0.54c-0.67,0-1.23,0.17-1.67,0.52c-0.44,0.34-0.66,0.76-0.66,1.24
			l-0.97-0.01c0-0.69,0.32-1.29,0.97-1.8c0.64-0.51,1.44-0.76,2.38-0.76c0.97,0,1.74,0.24,2.3,0.73c0.56,0.49,0.85,1.16,0.87,2.03
			v4.12c0,0.84,0.09,1.47,0.27,1.89v0.1H96.27z M93.24,33.55c0.64,0,1.22-0.16,1.73-0.47c0.51-0.31,0.88-0.73,1.11-1.25v-1.92h-1.72
			c-0.96,0.01-1.71,0.19-2.26,0.53c-0.54,0.34-0.81,0.81-0.81,1.41c0,0.49,0.18,0.89,0.54,1.22C92.19,33.39,92.66,33.55,93.24,33.55
			z"/>
		<path class="st1" d="M99.54,23.01c0-0.18,0.06-0.33,0.18-0.46c0.12-0.13,0.28-0.19,0.48-0.19c0.2,0,0.37,0.06,0.49,0.19
			c0.12,0.13,0.18,0.28,0.18,0.46c0,0.18-0.06,0.33-0.18,0.46c-0.12,0.12-0.28,0.18-0.49,0.18c-0.2,0-0.37-0.06-0.48-0.18
			C99.6,23.34,99.54,23.19,99.54,23.01z M100.68,34.24h-0.97v-8.71h0.97V34.24z"/>
		<path class="st1" d="M104.38,34.24h-0.97V21.87h0.97V34.24z"/>
		<path class="st1" d="M112.49,34.24c-0.1-0.27-0.16-0.68-0.19-1.22c-0.34,0.44-0.77,0.78-1.29,1.02c-0.52,0.24-1.08,0.36-1.66,0.36
			c-0.84,0-1.52-0.23-2.03-0.7c-0.52-0.47-0.78-1.06-0.78-1.77c0-0.85,0.35-1.52,1.06-2.01c0.71-0.49,1.69-0.74,2.95-0.74h1.75
			v-0.99c0-0.62-0.19-1.11-0.58-1.47c-0.38-0.36-0.94-0.54-1.68-0.54c-0.67,0-1.23,0.17-1.67,0.52c-0.44,0.34-0.66,0.76-0.66,1.24
			l-0.97-0.01c0-0.69,0.32-1.29,0.97-1.8c0.64-0.51,1.44-0.76,2.38-0.76c0.97,0,1.74,0.24,2.3,0.73c0.56,0.49,0.85,1.16,0.87,2.03
			v4.12c0,0.84,0.09,1.47,0.27,1.89v0.1H112.49z M109.47,33.55c0.64,0,1.22-0.16,1.73-0.47c0.51-0.31,0.88-0.73,1.11-1.25v-1.92
			h-1.72c-0.96,0.01-1.71,0.19-2.26,0.53c-0.54,0.34-0.81,0.81-0.81,1.41c0,0.49,0.18,0.89,0.54,1.22
			C108.42,33.39,108.89,33.55,109.47,33.55z"/>
		<path class="st1" d="M122.84,29.97c0,1.36-0.3,2.44-0.9,3.23c-0.6,0.8-1.41,1.2-2.42,1.2c-1.21,0-2.13-0.45-2.75-1.35l-0.04,1.19
			h-0.9V21.87h0.96v4.92c0.61-0.95,1.52-1.43,2.72-1.43c1.03,0,1.85,0.39,2.44,1.18c0.6,0.79,0.9,1.88,0.9,3.28V29.97z M121.88,29.8
			c0-1.15-0.22-2.04-0.67-2.66c-0.45-0.63-1.07-0.94-1.88-0.94c-0.62,0-1.14,0.15-1.57,0.46c-0.43,0.3-0.75,0.75-0.97,1.33v3.93
			c0.48,1.1,1.34,1.64,2.56,1.64c0.79,0,1.42-0.31,1.86-0.94C121.65,32,121.88,31.06,121.88,29.8z"/>
		<path class="st1" d="M126.05,34.24h-0.97V21.87h0.97V34.24z"/>
		<path class="st1" d="M132.04,34.4c-0.74,0-1.41-0.18-2.01-0.55c-0.6-0.37-1.06-0.87-1.4-1.53c-0.33-0.65-0.5-1.38-0.5-2.19v-0.35
			c0-0.84,0.16-1.59,0.49-2.26c0.32-0.67,0.78-1.2,1.36-1.58c0.58-0.38,1.21-0.58,1.88-0.58c1.06,0,1.9,0.36,2.52,1.08
			c0.62,0.72,0.93,1.71,0.93,2.96v0.54h-6.22v0.19c0,0.99,0.28,1.81,0.85,2.47c0.57,0.66,1.28,0.99,2.14,0.99
			c0.52,0,0.97-0.09,1.37-0.28c0.39-0.19,0.75-0.49,1.08-0.9l0.6,0.46C134.42,33.89,133.39,34.4,132.04,34.4z M131.86,26.19
			c-0.72,0-1.34,0.27-1.83,0.8c-0.5,0.53-0.8,1.25-0.91,2.14h5.23v-0.1c-0.03-0.84-0.27-1.52-0.72-2.05
			C133.18,26.45,132.59,26.19,131.86,26.19z"/>
		<path class="st1" d="M140.67,29.76c0-0.84,0.16-1.59,0.49-2.26c0.32-0.67,0.78-1.19,1.38-1.57c0.59-0.37,1.27-0.56,2.02-0.56
			c1.16,0,2.1,0.41,2.82,1.22c0.72,0.81,1.08,1.89,1.08,3.23v0.2c0,0.84-0.16,1.6-0.49,2.28c-0.32,0.67-0.78,1.19-1.37,1.56
			c-0.59,0.37-1.26,0.55-2.02,0.55c-1.15,0-2.09-0.41-2.81-1.22c-0.72-0.81-1.08-1.89-1.08-3.23V29.76z M141.63,30.02
			c0,1.04,0.27,1.9,0.81,2.57c0.54,0.67,1.25,1,2.12,1c0.87,0,1.57-0.33,2.11-1c0.54-0.67,0.81-1.55,0.81-2.65v-0.19
			c0-0.67-0.12-1.28-0.37-1.83c-0.25-0.55-0.59-0.98-1.04-1.28c-0.45-0.3-0.96-0.45-1.53-0.45c-0.86,0-1.56,0.34-2.1,1.01
			c-0.54,0.67-0.81,1.56-0.81,2.65V30.02z"/>
		<path class="st1" d="M151.35,25.53l0.03,1.49c0.33-0.54,0.74-0.95,1.22-1.23c0.49-0.28,1.03-0.42,1.62-0.42
			c0.93,0,1.63,0.26,2.09,0.79c0.46,0.53,0.69,1.32,0.69,2.37v5.72h-0.96v-5.73c-0.01-0.78-0.17-1.36-0.5-1.74
			c-0.32-0.38-0.84-0.57-1.56-0.57c-0.6,0-1.12,0.19-1.58,0.56c-0.46,0.37-0.8,0.88-1.02,1.51v5.97h-0.96v-8.71H151.35z"/>
		<path class="st1" d="M165,23.3v2.23h1.8v0.79H165v5.81c0,0.48,0.09,0.84,0.26,1.08c0.17,0.24,0.47,0.35,0.87,0.35
			c0.16,0,0.42-0.03,0.78-0.08l0.04,0.78c-0.25,0.09-0.6,0.14-1.03,0.14c-0.66,0-1.14-0.19-1.44-0.58c-0.3-0.38-0.45-0.95-0.45-1.7
			v-5.81h-1.6v-0.79h1.6V23.3H165z"/>
		<path class="st1" d="M169.76,27c0.32-0.52,0.72-0.92,1.22-1.21c0.49-0.28,1.03-0.43,1.62-0.43c0.93,0,1.63,0.26,2.09,0.79
			c0.46,0.53,0.69,1.32,0.69,2.37v5.72h-0.96v-5.73c-0.01-0.78-0.17-1.36-0.5-1.74c-0.32-0.38-0.84-0.57-1.56-0.57
			c-0.6,0-1.12,0.19-1.58,0.56c-0.46,0.37-0.8,0.88-1.02,1.51v5.97h-0.96V21.87h0.96V27z"/>
		<path class="st1" d="M181.23,34.4c-0.74,0-1.41-0.18-2.01-0.55c-0.6-0.37-1.06-0.87-1.4-1.53c-0.33-0.65-0.5-1.38-0.5-2.19v-0.35
			c0-0.84,0.16-1.59,0.49-2.26c0.32-0.67,0.78-1.2,1.36-1.58c0.58-0.38,1.21-0.58,1.88-0.58c1.06,0,1.9,0.36,2.52,1.08
			c0.62,0.72,0.93,1.71,0.93,2.96v0.54h-6.22v0.19c0,0.99,0.28,1.81,0.85,2.47c0.57,0.66,1.28,0.99,2.14,0.99
			c0.52,0,0.97-0.09,1.37-0.28c0.39-0.19,0.75-0.49,1.08-0.9l0.6,0.46C183.61,33.89,182.58,34.4,181.23,34.4z M181.06,26.19
			c-0.72,0-1.34,0.27-1.83,0.8c-0.5,0.53-0.8,1.25-0.91,2.14h5.23v-0.1c-0.03-0.84-0.27-1.52-0.72-2.05
			C182.38,26.45,181.79,26.19,181.06,26.19z"/>
	</g>
	<g>
		
			<linearGradient id="path1192_1_" gradientUnits="userSpaceOnUse" x1="3206.6301" y1="1374.6741" x2="3180.8975" y2="1387.957" gradientTransform="matrix(1.3204 0 0 2.558 -4193.7549 -3500.1306)">
			<stop  offset="0" style="stop-color:#00A0FF"/>
			<stop  offset="7.000000e-03" style="stop-color:#00A1FF"/>
			<stop  offset="0.26" style="stop-color:#00BEFF"/>
			<stop  offset="0.512" style="stop-color:#00D2FF"/>
			<stop  offset="0.76" style="stop-color:#00DFFF"/>
			<stop  offset="1" style="stop-color:#00E3FF"/>
		</linearGradient>
		<path id="path1192" class="st2" d="M17.41,13.02c-0.58,0.65-0.92,1.65-0.92,2.94v46.09c0,1.3,0.33,2.29,0.94,2.92l0.16,0.14
			l24.9-25.83V38.7L17.57,12.88L17.41,13.02z"/>
		
			<linearGradient id="path1203_1_" gradientUnits="userSpaceOnUse" x1="3778.9878" y1="2992.2805" x2="3732.1282" y2="2992.2805" gradientTransform="matrix(1.0374 0 0 0.8735 -3855.8784 -2574.7515)">
			<stop  offset="0" style="stop-color:#FFE000"/>
			<stop  offset="0.409" style="stop-color:#FFBD00"/>
			<stop  offset="0.775" style="stop-color:#FFA500"/>
			<stop  offset="1" style="stop-color:#FF9C00"/>
		</linearGradient>
		<path id="path1203" class="st3" d="M50.77,47.92l-8.3-8.9l0,0l8.3-8.93l0.18,0.12l9.83,5.79c2.81,1.65,2.81,4.36,0,6.02
			l-9.83,5.79C50.95,47.81,50.77,47.92,50.77,47.92L50.77,47.92z"/>
		
			<linearGradient id="path1210_1_" gradientUnits="userSpaceOnUse" x1="2756.1389" y1="2177.5442" x2="2728.6572" y2="2213.1968" gradientTransform="matrix(1.7038 0 0 1.3133 -4649.5059 -2816.054)">
			<stop  offset="0" style="stop-color:#FF3A44"/>
			<stop  offset="1" style="stop-color:#C31162"/>
		</linearGradient>
		<path id="path1210" class="st4" d="M50.95,47.81l-8.48-8.8L17.41,64.99c0.92,1.02,2.46,1.14,4.18,0.14L50.95,47.81"/>
		
			<linearGradient id="path1223_1_" gradientUnits="userSpaceOnUse" x1="2734.9736" y1="2144.8962" x2="2747.2454" y2="2160.8252" gradientTransform="matrix(1.7038 0 0 1.3126 -4649.5059 -2817.1536)">
			<stop  offset="0" style="stop-color:#32A071"/>
			<stop  offset="0.069" style="stop-color:#2DA771"/>
			<stop  offset="0.476" style="stop-color:#15CF74"/>
			<stop  offset="0.801" style="stop-color:#06E775"/>
			<stop  offset="1" style="stop-color:#00F076"/>
		</linearGradient>
		<path id="path1223" class="st5" d="M50.95,30.21L21.59,12.9c-1.72-1.02-3.26-0.88-4.18,0.14l25.05,25.96L50.95,30.21z"/>
	</g>
</g>
</svg>
