<?xml version="1.0" encoding="utf-8"?>
<!-- Generator: Adobe Illustrator 24.2.3, SVG Export Plug-In . SVG Version: 6.00 Build 0)  -->
<svg version="1.1" id="Calque_1" xmlns="http://www.w3.org/2000/svg" xmlns:xlink="http://www.w3.org/1999/xlink" x="0px" y="0px"
	 viewBox="0 0 920 13" style="enable-background:new 0 0 920 13;" xml:space="preserve">
<style type="text/css">
	.st0{opacity:0.3;}
	.st1{fill:#F9BA82;}
	.st2{opacity:0.9;fill:#FFFFFF;}
</style>
<g class="st0">
	<path class="st1" d="M-0.14,2.46C19.03,2.17,38.2,1.95,57.37,1.79l57.51-0.45c38.34-0.17,76.69-0.23,115.03-0.13
		c19.17,0.04,38.34,0.13,57.52,0.33l28.76,0.31l28.76,0.42c19.17,0.34,38.34,0.68,57.51,1.24l14.38,0.4l14.38,0.52l28.73,1.02
		c19.14,0.82,38.3,1.19,57.46,1.68l28.74,0.44l14.37,0.2l14.37,0.08c38.33,0.34,76.66-0.01,115-0.29
		c38.33-0.33,76.67-1.06,114.99-1.93c38.33-0.81,76.65-1.9,114.98-3.17c-19.15,0.98-38.3,1.82-57.46,2.56l-28.74,1.09l-28.74,1
		c-38.33,1.17-76.66,2.16-115,2.77c-19.17,0.34-38.34,0.56-57.52,0.67l-28.76,0.11l-28.76-0.07l-14.38-0.05l-14.38-0.16l-28.76-0.37
		c-19.17-0.45-38.35-0.77-57.52-1.55L431.1,7.37l-14.36-0.56l-14.37-0.44C383.23,5.77,364.06,5.38,344.9,5
		c-38.33-0.75-76.66-1.05-115-1.48c-38.34-0.38-76.68-0.58-115.02-0.71C76.55,2.59,38.21,2.55-0.14,2.46z"/>
	<path class="st2" d="M919.86,4.49c-38.34-0.04-76.68-0.12-115.02-0.01c-38.34,0.02-76.68,0.11-115.01,0.4
		c-38.34,0.34-76.67,0.55-115,1.23c-19.16,0.36-38.33,0.71-57.48,1.3c-4.79,0.14-9.58,0.25-14.36,0.42l-14.36,0.55L459.9,9.47
		c-19.17,0.79-38.34,1.13-57.51,1.59l-28.76,0.4l-14.38,0.18l-14.38,0.07l-28.76,0.12l-28.76-0.06
		c-19.17-0.07-38.35-0.25-57.52-0.54c-38.34-0.52-76.68-1.41-115.01-2.47L86.07,7.86l-28.74-1C38.17,6.18,19.01,5.4-0.14,4.49
		c38.32,1.14,76.65,2.11,114.98,2.8c38.33,0.76,76.66,1.39,115,1.63c38.33,0.2,76.67,0.46,115,0.06l14.37-0.11l14.37-0.22
		l28.74-0.47c19.16-0.5,38.32-0.9,57.46-1.72l28.74-1.02l14.38-0.52c4.79-0.17,9.59-0.26,14.38-0.39
		c19.17-0.54,38.34-0.85,57.52-1.16l28.76-0.36l28.76-0.24c19.17-0.16,38.34-0.21,57.52-0.19c38.34-0.01,76.69,0.16,115.03,0.44
		l57.51,0.62C881.53,3.86,900.7,4.14,919.86,4.49z"/>
</g>
</svg>
