<?xml version="1.0" encoding="utf-8"?>
<!-- Generator: Adobe Illustrator 24.2.3, SVG Export Plug-In . SVG Version: 6.00 Build 0)  -->
<svg version="1.1" id="Calque_1" xmlns="http://www.w3.org/2000/svg" xmlns:xlink="http://www.w3.org/1999/xlink" x="0px" y="0px"
	 viewBox="0 0 120 39" style="enable-background:new 0 0 120 39;" xml:space="preserve">
<style type="text/css">
	.st0{fill:#F07F23;}
	.st1{enable-background:new    ;}
	.st2{fill:#FAF7F4;}
	.st3{fill:#29ACE3;}
</style>
<g>
	<g>
		<path class="st0" d="M25.58,21.93c-0.12-0.08-0.18-0.15-0.19-0.3c-0.14-2.27-0.96-4.28-2.46-5.98c-2.32-2.63-5.27-3.78-8.76-3.46
			c-2.09,0.19-3.95,1.01-5.54,2.4c-2.12,1.85-3.31,4.18-3.52,7c-0.01,0.17-0.07,0.26-0.21,0.36c-0.52,0.35-0.78,0.85-0.77,1.48
			c0,0.54,0,1.07,0,1.61c0.01,0,0.01,0,0.02,0c0,0.65-0.06,1.31,0.02,1.96c0.11,0.9,0.92,1.47,1.87,1.41
			c0.88-0.06,1.54-0.77,1.56-1.74c0.02-1.07,0.01-2.14,0-3.22c0-0.5-0.12-0.99-0.53-1.27c-0.39-0.27-0.44-0.56-0.35-0.96
			c0.03-0.11,0.04-0.23,0.06-0.34c0.88-5.29,6.47-8.54,11.47-6.59c3.35,1.3,5.18,3.83,5.59,7.39c0.02,0.16-0.05,0.23-0.16,0.3
			c-0.47,0.31-0.74,0.75-0.75,1.31c-0.02,0.84-0.02,1.68-0.02,2.52c0,0.44-0.05,0.89,0.06,1.32c0.06,0.21-0.02,0.29-0.17,0.38
			c-1.02,0.64-2.15,0.96-3.34,1.13c-0.26,0.04-0.49,0.03-0.68-0.2c-0.12-0.14-0.32-0.2-0.5-0.21c-0.5-0.01-1-0.03-1.5,0
			c-0.54,0.03-0.96,0.51-0.94,1.03c0.01,0.55,0.44,0.98,1.02,0.99c0.44,0.01,0.89,0,1.33,0c0.33,0,0.6-0.12,0.79-0.38
			c0.11-0.15,0.24-0.18,0.41-0.19c1.46-0.16,2.85-0.54,4.08-1.36c0.16-0.11,0.28-0.12,0.46-0.04c1.2,0.52,2.44-0.3,2.44-1.6
			c0-1.07,0-2.14,0-3.22C26.37,22.79,26.11,22.28,25.58,21.93z"/>
		<path class="st0" d="M20,22.87c0-1.23,0-2.46,0-3.69c0-0.17-0.01-0.34-0.05-0.5c-0.21-0.91-0.96-1.5-1.9-1.51
			c-0.95,0-1.91,0-2.86,0c-0.96,0-1.92,0-2.88,0c-1.08,0.01-1.93,0.82-1.94,1.9c-0.02,1.3-0.02,2.59,0,3.89
			c0.01,1.03,0.78,1.83,1.81,1.9c0.1,0.01,0.14,0.03,0.13,0.14c-0.01,0.28,0,0.56,0,0.84c0,0.16,0.04,0.32,0.11,0.47
			c0.3,0.56,1.02,0.67,1.49,0.22c0.52-0.51,1.04-1.02,1.55-1.54c0.08-0.08,0.16-0.12,0.27-0.12c0.75,0.01,1.51,0,2.26,0
			C19.17,24.88,20,24.05,20,22.87z M15.54,23.97c-0.24,0-0.42,0.07-0.59,0.25c-0.51,0.52-1.03,1.03-1.55,1.55
			c-0.05,0.05-0.1,0.09-0.19,0.17c0-0.48,0-0.91,0-1.34c0-0.5-0.13-0.63-0.63-0.63c-0.19,0-0.39,0.01-0.58-0.04
			c-0.43-0.12-0.72-0.49-0.72-0.96c-0.01-1.29-0.01-2.58,0-3.87c0-0.6,0.42-1,1.02-1c1.11,0,2.22,0,3.33,0c0.8,0,1.61,0,2.41,0
			c0.62,0,1.04,0.4,1.04,1.02c0.01,1.27,0.01,2.55,0,3.82c0,0.63-0.42,1.03-1.07,1.03C17.19,23.97,16.36,23.97,15.54,23.97z"/>
		<path class="st0" d="M15.18,20.43c-0.36,0-0.67,0.3-0.67,0.66c-0.01,0.36,0.3,0.67,0.66,0.68s0.68-0.3,0.68-0.67
			C15.85,20.74,15.54,20.43,15.18,20.43z"/>
		<path class="st0" d="M17.37,20.43c-0.37-0.01-0.68,0.31-0.68,0.67s0.31,0.67,0.67,0.67s0.66-0.3,0.66-0.66
			C18.03,20.74,17.74,20.44,17.37,20.43z"/>
		<path class="st0" d="M13.01,20.43c-0.36-0.01-0.67,0.29-0.67,0.66c0,0.38,0.29,0.68,0.66,0.68c0.36,0,0.67-0.31,0.67-0.67
			C13.67,20.75,13.37,20.43,13.01,20.43z"/>
	</g>
	<g class="st1">
		<path class="st2" d="M33.57,27.5c-0.73-0.73-1.14-1.7-1.14-2.73c0-0.64,0.17-1.29,0.48-1.87l0.02-0.02l3.33-5.51h3.04L37.11,21
			c0.73,0.16,1.39,0.51,1.93,1.04c0.73,0.73,1.14,1.7,1.14,2.73s-0.41,1.99-1.14,2.73c-0.73,0.72-1.7,1.12-2.73,1.12
			C35.27,28.62,34.3,28.22,33.57,27.5z M35.04,24.77c0,0.7,0.58,1.28,1.28,1.28c0.7,0,1.26-0.58,1.26-1.28
			c0-0.72-0.56-1.29-1.26-1.29C35.61,23.48,35.04,24.06,35.04,24.77z"/>
		<path class="st2" d="M41.16,28.47l3.94-8.54h-3.55v-2.55h6.89v1.53l-4.42,9.56H41.16z"/>
		<path class="st2" d="M50.25,27.5c-0.73-0.73-1.14-1.7-1.14-2.73c0-0.64,0.17-1.29,0.48-1.87l0.01-0.02l3.33-5.51h3.04L53.78,21
			c0.73,0.16,1.39,0.51,1.93,1.04c0.73,0.73,1.14,1.7,1.14,2.73s-0.41,1.99-1.14,2.73c-0.73,0.72-1.7,1.12-2.73,1.12
			C51.95,28.62,50.98,28.22,50.25,27.5z M51.71,24.77c0,0.7,0.58,1.28,1.28,1.28s1.26-0.58,1.26-1.28c0-0.72-0.56-1.29-1.26-1.29
			S51.71,24.06,51.71,24.77z"/>
		<path class="st2" d="M61.42,28.47l3.94-8.54h-3.55v-2.55h6.89v1.53l-4.42,9.56H61.42z"/>
		<path class="st2" d="M73.87,28.47v-2.52h-4.53v-1.79l4.84-6.78h2.28v6.01h1.68v2.55h-1.68v2.52H73.87z M73.87,23.39v-1.31
			l-0.9,1.31H73.87z"/>
		<path class="st2" d="M82.82,25.88h3.29v2.59h-7.06v-2.15l4.3-5.03c0.12-0.17,0.19-0.36,0.19-0.56c0-0.53-0.42-0.97-0.95-0.97
			c-0.42,0-0.78,0.27-0.9,0.65L81.48,21l-2.49-0.53l0.19-0.7c0.2-0.73,0.65-1.39,1.26-1.85c0.62-0.48,1.36-0.73,2.15-0.73
			c1.95,0,3.52,1.59,3.52,3.54c0,0.75-0.23,1.48-0.69,2.09l-0.02,0.02L82.82,25.88z"/>
		<path class="st2" d="M91.77,27.55c-0.72-0.72-1.11-1.67-1.11-2.68v-0.69h2.6v0.69c0,0.65,0.53,1.18,1.18,1.18s1.18-0.53,1.18-1.18
			c0-0.64-0.54-1.15-1.21-1.15h-0.69v-2.29h0.69c0.42,0,0.78-0.03,0.78-1.07c0-0.41-0.34-0.76-0.75-0.76c-0.4,0-0.75,0.36-0.75,0.76
			v0.56h-2.6v-0.56c0-0.89,0.34-1.73,0.98-2.35c0.64-0.62,1.48-0.97,2.37-0.97c0.9,0,1.75,0.34,2.37,0.97c0.64,0.62,1,1.46,1,2.35
			c0,0.69-0.23,1.37-0.64,1.93c0.33,0.34,0.58,0.72,0.76,1.12c0.2,0.47,0.31,0.95,0.31,1.46c0,1.01-0.41,1.96-1.12,2.68
			c-0.7,0.7-1.65,1.09-2.68,1.09C93.43,28.64,92.48,28.25,91.77,27.55z"/>
		<path class="st2" d="M99.87,27.45c-0.17-0.17-0.31-0.34-0.45-0.53l-0.4-0.56l2.13-1.51l0.41,0.56c0.26,0.37,0.72,0.61,1.18,0.61
			c0.78,0,1.42-0.62,1.42-1.37c0-0.76-0.64-1.42-1.42-1.42c-0.2,0-0.42,0.09-0.64,0.2l-0.25,0.11l-2.21-0.61l1.5-5.56h5.48v2.57
			l-3.47-0.02l-0.2,0.78c1.01,0.05,1.95,0.45,2.65,1.14c0.78,0.75,1.2,1.75,1.2,2.8c0,1.06-0.42,2.06-1.2,2.8
			c-0.75,0.73-1.76,1.14-2.85,1.14C101.65,28.59,100.63,28.19,99.87,27.45z"/>
		<path class="st2" d="M108.88,27.59c-0.75-0.73-1.15-1.71-1.15-2.77c0-0.65,0.17-1.31,0.5-1.88c0.19-0.36,0.45-0.69,0.75-0.97
			c-0.31-0.5-0.47-1.06-0.47-1.64c0-0.86,0.33-1.64,0.92-2.24c0.61-0.59,1.4-0.9,2.24-0.9c0.86,0,1.65,0.31,2.24,0.9
			c0.61,0.61,0.93,1.39,0.93,2.24c0,0.58-0.16,1.14-0.47,1.64c0.3,0.28,0.54,0.61,0.75,0.97c0.33,0.58,0.5,1.23,0.5,1.88
			c0,1.06-0.42,2.04-1.17,2.77c-0.75,0.75-1.73,1.15-2.79,1.15C110.62,28.75,109.62,28.34,108.88,27.59z M110.33,24.82
			c0,0.75,0.61,1.36,1.34,1.36c0.75,0,1.36-0.61,1.36-1.36c0-0.73-0.61-1.34-1.36-1.34C110.93,23.48,110.33,24.09,110.33,24.82z
			 M111.1,20.33c0,0.31,0.27,0.58,0.56,0.58c0.31,0,0.58-0.26,0.58-0.58s-0.26-0.58-0.58-0.58C111.37,19.76,111.1,20.02,111.1,20.33
			z"/>
	</g>
	<g>
		<g>
			<path class="st3" d="M36.53,6.74l-2.13,5.18c-0.02,0.07-0.07,0.13-0.13,0.18s-0.12,0.07-0.19,0.07c-0.12,0-0.2-0.03-0.25-0.1
				s-0.08-0.14-0.09-0.22c0-0.04,0.01-0.09,0.02-0.14l2.35-5.7c0.04-0.08,0.09-0.15,0.15-0.19s0.13-0.06,0.21-0.05
				c0.08,0,0.15,0.02,0.21,0.06c0.06,0.04,0.11,0.1,0.13,0.18l2.34,5.65c0.02,0.05,0.03,0.1,0.03,0.15c0,0.11-0.04,0.2-0.11,0.26
				c-0.07,0.07-0.15,0.1-0.25,0.1c-0.08,0-0.15-0.02-0.21-0.07c-0.06-0.04-0.11-0.11-0.14-0.19l-2.16-5.18L36.53,6.74z M34.85,10.45
				l0.31-0.71h2.69l0.14,0.71H34.85z"/>
			<path class="st3" d="M40.37,6.78c-0.15,0-0.26-0.03-0.34-0.09c-0.07-0.06-0.11-0.15-0.11-0.28V6.28c0-0.13,0.04-0.22,0.12-0.28
				c0.08-0.06,0.19-0.09,0.33-0.09c0.15,0,0.25,0.03,0.33,0.09c0.07,0.06,0.11,0.15,0.11,0.28v0.13c0,0.13-0.04,0.22-0.11,0.28
				C40.62,6.75,40.51,6.78,40.37,6.78z M40.74,11.77c0,0.1-0.03,0.19-0.1,0.26c-0.07,0.07-0.16,0.11-0.26,0.11
				c-0.11,0-0.2-0.04-0.27-0.11s-0.1-0.16-0.1-0.26V7.76c0-0.1,0.03-0.19,0.1-0.26s0.16-0.11,0.27-0.11c0.1,0,0.19,0.04,0.26,0.11
				s0.1,0.16,0.1,0.26V11.77z"/>
			<path class="st3" d="M45.91,5.44c0.1,0,0.19,0.03,0.26,0.1c0.07,0.07,0.1,0.16,0.1,0.27v5.96c0,0.1-0.04,0.19-0.1,0.26
				c-0.07,0.07-0.16,0.11-0.26,0.11c-0.11,0-0.2-0.04-0.27-0.11s-0.1-0.16-0.1-0.26v-0.86l0.17-0.05c0,0.14-0.04,0.29-0.13,0.45
				s-0.21,0.31-0.37,0.45c-0.16,0.14-0.35,0.26-0.56,0.34c-0.21,0.09-0.44,0.13-0.69,0.13c-0.41,0-0.78-0.11-1.11-0.32
				s-0.58-0.5-0.78-0.87c-0.19-0.37-0.29-0.79-0.29-1.26c0-0.48,0.09-0.9,0.29-1.27c0.19-0.37,0.45-0.66,0.77-0.87
				s0.69-0.31,1.09-0.31c0.25,0,0.49,0.04,0.71,0.13c0.22,0.08,0.42,0.2,0.58,0.34c0.17,0.15,0.3,0.31,0.39,0.48
				s0.14,0.35,0.14,0.53l-0.24-0.05V5.81c0-0.1,0.04-0.19,0.1-0.26C45.71,5.48,45.8,5.44,45.91,5.44z M44.04,11.57
				c0.3,0,0.57-0.08,0.8-0.23s0.41-0.37,0.54-0.63c0.13-0.27,0.2-0.57,0.2-0.91s-0.07-0.64-0.2-0.91c-0.13-0.27-0.31-0.48-0.54-0.63
				c-0.23-0.15-0.5-0.23-0.8-0.23s-0.56,0.08-0.79,0.23s-0.42,0.37-0.55,0.63c-0.13,0.27-0.2,0.57-0.2,0.91
				c0,0.33,0.07,0.63,0.2,0.9c0.13,0.27,0.32,0.48,0.55,0.64S43.74,11.57,44.04,11.57z"/>
			<path class="st3" d="M49.78,12.24c-0.49,0-0.92-0.1-1.28-0.31s-0.64-0.49-0.84-0.85c-0.2-0.36-0.3-0.77-0.3-1.25
				c0-0.53,0.1-0.97,0.31-1.35s0.48-0.66,0.82-0.85c0.34-0.2,0.69-0.29,1.07-0.29c0.28,0,0.55,0.05,0.81,0.15s0.49,0.25,0.69,0.45
				s0.36,0.44,0.48,0.71s0.18,0.58,0.19,0.92c0,0.1-0.04,0.18-0.11,0.24c-0.07,0.06-0.16,0.1-0.25,0.1h-3.58l-0.16-0.62h3.48
				l-0.14,0.13v-0.2c-0.02-0.25-0.1-0.46-0.24-0.64c-0.14-0.18-0.31-0.32-0.52-0.41c-0.2-0.1-0.42-0.15-0.64-0.15
				c-0.18,0-0.36,0.03-0.54,0.1c-0.18,0.07-0.34,0.17-0.48,0.31s-0.26,0.32-0.34,0.54c-0.09,0.22-0.13,0.49-0.13,0.81
				c0,0.35,0.07,0.66,0.21,0.92c0.14,0.27,0.34,0.48,0.59,0.63c0.25,0.15,0.55,0.23,0.89,0.23c0.21,0,0.4-0.03,0.55-0.08
				c0.16-0.05,0.29-0.12,0.4-0.2s0.21-0.16,0.29-0.25c0.08-0.05,0.16-0.08,0.24-0.08s0.16,0.03,0.22,0.09s0.09,0.13,0.09,0.22
				c0,0.1-0.05,0.2-0.15,0.28c-0.17,0.19-0.41,0.35-0.69,0.49C50.41,12.17,50.1,12.24,49.78,12.24z"/>
			<path class="st3" d="M57.11,12.24c-0.43,0-0.81-0.1-1.14-0.29c-0.33-0.19-0.59-0.45-0.78-0.76s-0.29-0.64-0.29-0.99
				c0-0.28,0.05-0.54,0.16-0.79s0.27-0.47,0.48-0.67s0.49-0.35,0.82-0.48l0.5,0.51c-0.45,0.1-0.77,0.27-0.95,0.51
				s-0.27,0.51-0.27,0.8c0,0.24,0.06,0.47,0.17,0.7c0.11,0.22,0.29,0.4,0.53,0.54c0.24,0.14,0.54,0.21,0.89,0.21
				c0.36,0,0.67-0.06,0.93-0.19s0.49-0.3,0.67-0.52c0.18-0.22,0.33-0.46,0.44-0.73c0.11-0.27,0.19-0.53,0.24-0.81
				c0.01-0.07,0.04-0.13,0.09-0.17s0.12-0.06,0.22-0.06c0.11,0,0.19,0.04,0.26,0.13c0.06,0.08,0.09,0.18,0.07,0.3
				c-0.05,0.34-0.15,0.67-0.3,1c-0.15,0.33-0.35,0.62-0.6,0.88s-0.55,0.47-0.91,0.63S57.58,12.24,57.11,12.24z M60.33,12.14
				c-0.05,0-0.09-0.01-0.13-0.02s-0.07-0.03-0.09-0.04c-0.39-0.32-0.76-0.62-1.11-0.91c-0.35-0.28-0.68-0.58-1.01-0.88
				s-0.65-0.65-0.98-1.03c-0.21-0.24-0.4-0.47-0.58-0.69c-0.17-0.22-0.31-0.43-0.41-0.64s-0.15-0.43-0.15-0.65
				c0-0.28,0.07-0.54,0.22-0.78s0.35-0.42,0.62-0.57s0.59-0.21,0.96-0.21c0.43,0,0.79,0.08,1.1,0.23c0.3,0.15,0.51,0.35,0.62,0.58
				c0.01,0.01,0.02,0.03,0.03,0.08c0.01,0.05,0.02,0.1,0.02,0.16c0,0.07-0.03,0.14-0.09,0.2s-0.14,0.09-0.24,0.09
				c-0.06,0-0.11-0.01-0.15-0.04c-0.04-0.02-0.08-0.05-0.1-0.08c-0.12-0.2-0.27-0.34-0.46-0.44s-0.43-0.15-0.73-0.15
				c-0.34,0-0.59,0.09-0.77,0.26C56.73,6.78,56.64,7,56.64,7.26c0,0.19,0.06,0.38,0.17,0.58c0.11,0.2,0.25,0.4,0.42,0.59
				c0.17,0.2,0.33,0.38,0.48,0.56c0.22,0.25,0.46,0.49,0.72,0.74s0.51,0.48,0.76,0.7s0.49,0.42,0.72,0.61
				c0.23,0.18,0.42,0.34,0.58,0.47c0.05,0.05,0.09,0.1,0.12,0.15c0.02,0.05,0.04,0.11,0.04,0.17s-0.03,0.13-0.08,0.21
				C60.51,12.1,60.44,12.14,60.33,12.14z"/>
			<path class="st3" d="M66.01,12.24c-0.45,0-0.84-0.07-1.18-0.2c-0.34-0.13-0.66-0.34-0.98-0.63c-0.04-0.04-0.08-0.08-0.1-0.14
				c-0.03-0.05-0.04-0.11-0.04-0.17c0-0.1,0.03-0.18,0.1-0.26s0.16-0.11,0.26-0.11c0.08,0,0.16,0.03,0.23,0.1
				c0.24,0.23,0.49,0.4,0.77,0.53c0.27,0.12,0.58,0.18,0.93,0.18c0.27,0,0.5-0.04,0.72-0.13c0.21-0.08,0.38-0.2,0.51-0.35
				c0.13-0.15,0.19-0.33,0.19-0.53c0-0.24-0.07-0.44-0.2-0.6s-0.32-0.29-0.56-0.39s-0.52-0.19-0.83-0.27
				c-0.28-0.07-0.53-0.15-0.77-0.24c-0.23-0.09-0.43-0.21-0.61-0.35c-0.17-0.14-0.31-0.31-0.4-0.52c-0.09-0.2-0.14-0.44-0.14-0.72
				c0-0.34,0.09-0.65,0.27-0.9c0.18-0.26,0.43-0.46,0.76-0.6s0.69-0.22,1.11-0.22c0.37,0,0.72,0.06,1.05,0.18s0.59,0.29,0.79,0.5
				c0.12,0.11,0.18,0.23,0.18,0.34c0,0.08-0.04,0.16-0.11,0.24S67.8,7.09,67.7,7.09c-0.07,0-0.13-0.02-0.18-0.06
				c-0.1-0.11-0.23-0.22-0.39-0.31c-0.16-0.09-0.33-0.16-0.52-0.22c-0.18-0.05-0.37-0.08-0.56-0.08c-0.28,0-0.52,0.04-0.73,0.12
				c-0.21,0.08-0.38,0.19-0.49,0.34s-0.18,0.32-0.18,0.53c0,0.23,0.07,0.42,0.2,0.57s0.31,0.27,0.54,0.36s0.47,0.18,0.74,0.25
				c0.3,0.07,0.57,0.16,0.82,0.25s0.47,0.21,0.65,0.35c0.16,0.13,0.3,0.31,0.4,0.52s0.15,0.48,0.15,0.79c0,0.33-0.09,0.63-0.28,0.89
				s-0.44,0.46-0.77,0.62C66.78,12.16,66.41,12.24,66.01,12.24z"/>
			<path class="st3" d="M72.74,7.46c0.11,0,0.2,0.03,0.26,0.1s0.1,0.16,0.1,0.27v2.46c0,0.61-0.17,1.08-0.51,1.42
				c-0.34,0.34-0.82,0.5-1.43,0.5c-0.6,0-1.08-0.17-1.42-0.5s-0.51-0.81-0.51-1.42V7.83c0-0.11,0.03-0.2,0.1-0.27s0.16-0.1,0.26-0.1
				c0.11,0,0.2,0.03,0.26,0.1s0.1,0.16,0.1,0.27v2.46c0,0.41,0.11,0.72,0.32,0.93s0.51,0.32,0.89,0.32c0.39,0,0.69-0.11,0.9-0.32
				s0.32-0.52,0.32-0.93V7.83c0-0.11,0.03-0.2,0.1-0.27S72.63,7.46,72.74,7.46z"/>
			<path class="st3" d="M76.75,7.39c0.41,0,0.78,0.1,1.11,0.31s0.58,0.49,0.78,0.85c0.19,0.36,0.29,0.78,0.29,1.25
				s-0.09,0.88-0.29,1.25c-0.19,0.37-0.45,0.65-0.77,0.86s-0.69,0.31-1.09,0.31c-0.22,0-0.43-0.03-0.63-0.1s-0.38-0.16-0.54-0.27
				s-0.29-0.24-0.4-0.38s-0.19-0.28-0.24-0.43l0.2-0.12v2.66c0,0.1-0.03,0.19-0.1,0.26c-0.07,0.07-0.15,0.11-0.26,0.11
				c-0.1,0-0.19-0.03-0.26-0.1c-0.07-0.07-0.1-0.16-0.1-0.27V7.8c0-0.11,0.03-0.2,0.1-0.27s0.16-0.1,0.26-0.1
				c0.11,0,0.2,0.03,0.26,0.1c0.07,0.07,0.1,0.16,0.1,0.27v0.8l-0.14-0.07c0.04-0.15,0.12-0.3,0.22-0.44s0.24-0.26,0.39-0.37
				c0.15-0.11,0.33-0.19,0.52-0.25S76.55,7.39,76.75,7.39z M76.67,8.06c-0.3,0-0.57,0.08-0.8,0.23s-0.41,0.36-0.54,0.62
				s-0.19,0.56-0.19,0.9c0,0.33,0.06,0.63,0.19,0.9c0.13,0.27,0.31,0.47,0.54,0.63s0.5,0.23,0.8,0.23s0.57-0.08,0.8-0.23
				s0.41-0.36,0.54-0.63s0.2-0.56,0.2-0.9c0-0.34-0.07-0.64-0.2-0.9s-0.31-0.47-0.54-0.62C77.24,8.13,76.97,8.06,76.67,8.06z"/>
			<path class="st3" d="M82.32,7.39c0.41,0,0.78,0.1,1.11,0.31s0.58,0.49,0.78,0.85C84.4,8.91,84.5,9.33,84.5,9.8
				s-0.09,0.88-0.29,1.25c-0.19,0.37-0.45,0.65-0.77,0.86s-0.69,0.31-1.09,0.31c-0.22,0-0.43-0.03-0.63-0.1s-0.38-0.16-0.54-0.27
				s-0.29-0.24-0.4-0.38s-0.19-0.28-0.24-0.43l0.2-0.12v2.66c0,0.1-0.03,0.19-0.1,0.26c-0.07,0.07-0.15,0.11-0.26,0.11
				c-0.1,0-0.19-0.03-0.26-0.1c-0.07-0.07-0.1-0.16-0.1-0.27V7.8c0-0.11,0.03-0.2,0.1-0.27s0.16-0.1,0.26-0.1
				c0.11,0,0.2,0.03,0.26,0.1c0.07,0.07,0.1,0.16,0.1,0.27v0.8L80.6,8.53c0.04-0.15,0.12-0.3,0.22-0.44s0.24-0.26,0.39-0.37
				c0.15-0.11,0.33-0.19,0.52-0.25S82.11,7.39,82.32,7.39z M82.24,8.06c-0.3,0-0.57,0.08-0.8,0.23s-0.41,0.36-0.54,0.62
				s-0.2,0.55-0.2,0.89c0,0.33,0.06,0.63,0.19,0.9c0.13,0.27,0.31,0.47,0.54,0.63s0.5,0.23,0.8,0.23s0.57-0.08,0.8-0.23
				s0.41-0.36,0.54-0.63s0.2-0.56,0.2-0.9c0-0.34-0.07-0.64-0.2-0.9s-0.31-0.47-0.54-0.62C82.8,8.13,82.54,8.06,82.24,8.06z"/>
			<path class="st3" d="M90.02,9.79c0,0.47-0.1,0.89-0.31,1.26s-0.49,0.66-0.84,0.87s-0.75,0.32-1.19,0.32s-0.84-0.11-1.2-0.32
				s-0.64-0.5-0.85-0.87s-0.31-0.79-0.31-1.26s0.1-0.89,0.31-1.26s0.49-0.66,0.85-0.87s0.75-0.32,1.2-0.32
				c0.44,0,0.84,0.11,1.19,0.32s0.63,0.5,0.84,0.87S90.02,9.32,90.02,9.79z M89.29,9.79c0-0.35-0.07-0.66-0.21-0.92
				S88.75,8.4,88.5,8.24c-0.24-0.15-0.52-0.23-0.82-0.23c-0.31,0-0.58,0.08-0.83,0.23s-0.44,0.36-0.58,0.63
				c-0.15,0.26-0.22,0.57-0.22,0.92c0,0.34,0.07,0.65,0.22,0.92c0.14,0.27,0.34,0.48,0.58,0.63c0.24,0.15,0.52,0.23,0.83,0.23
				c0.3,0,0.58-0.08,0.82-0.23c0.25-0.15,0.44-0.36,0.58-0.63S89.29,10.13,89.29,9.79z"/>
			<path class="st3" d="M91.47,12.15c-0.1,0-0.19-0.04-0.26-0.11s-0.1-0.16-0.1-0.26V7.83c0-0.11,0.03-0.2,0.1-0.27
				s0.16-0.1,0.26-0.1c0.11,0,0.2,0.03,0.26,0.1s0.1,0.16,0.1,0.27v1.19l-0.11-0.19c0.04-0.19,0.1-0.37,0.19-0.55
				s0.21-0.34,0.36-0.48c0.14-0.14,0.31-0.25,0.5-0.34s0.39-0.12,0.62-0.12c0.13,0,0.26,0.03,0.37,0.1s0.17,0.15,0.17,0.27
				c0,0.13-0.03,0.22-0.1,0.29s-0.14,0.1-0.23,0.1c-0.08,0-0.15-0.02-0.23-0.05C93.3,8,93.21,7.98,93.1,7.98
				c-0.15,0-0.3,0.04-0.45,0.13c-0.15,0.08-0.28,0.2-0.41,0.35s-0.22,0.32-0.3,0.51c-0.08,0.19-0.11,0.39-0.11,0.61v2.2
				c0,0.1-0.04,0.19-0.1,0.26C91.66,12.11,91.57,12.15,91.47,12.15z"/>
			<path class="st3" d="M94.56,7.49h2.13c0.1,0,0.18,0.03,0.24,0.1c0.06,0.07,0.09,0.15,0.09,0.25c0,0.09-0.03,0.17-0.09,0.23
				s-0.14,0.1-0.24,0.1h-2.13c-0.09,0-0.17-0.03-0.24-0.1s-0.1-0.15-0.1-0.24c0-0.1,0.04-0.18,0.1-0.24S94.47,7.49,94.56,7.49z
				 M95.51,6.25c0.1,0,0.19,0.04,0.25,0.11c0.07,0.07,0.1,0.16,0.1,0.26v4.37c0,0.15,0.02,0.25,0.06,0.33
				c0.04,0.07,0.1,0.12,0.17,0.15s0.14,0.04,0.2,0.04s0.11-0.01,0.16-0.03c0.05-0.02,0.1-0.03,0.16-0.03c0.06,0,0.12,0.03,0.17,0.09
				c0.05,0.06,0.08,0.13,0.08,0.22c0,0.11-0.06,0.2-0.19,0.28s-0.27,0.11-0.43,0.11c-0.08,0-0.19-0.01-0.31-0.02
				s-0.25-0.05-0.37-0.12s-0.22-0.18-0.3-0.33s-0.12-0.37-0.12-0.65v-4.4c0-0.1,0.04-0.19,0.11-0.26
				C95.32,6.29,95.41,6.25,95.51,6.25z"/>
		</g>
	</g>
</g>
</svg>
