<svg xmlns="http://www.w3.org/2000/svg" xmlns:xlink="http://www.w3.org/1999/xlink" id="Calque_1" x="0px" y="0px" viewBox="0 0 70.44 45.04" style="enable-background:new 0 0 70.44 45.04;" xml:space="preserve"><style type="text/css">	.st0{display:none;fill:#1A2446;}	.st1{display:none;}	.st2{display:inline;fill:#1A2446;}	.st3{fill:#1A2446;}</style><path class="st0" d="M54.02,27.19c-0.49-3.67-2.56-6.18-6-7.54c-0.44-0.17-0.69-0.34-0.67-0.85c0.01-0.35-0.09-0.71-0.18-1.06 c-1.48-6.25-7.36-10.24-13.68-9.16c-4.68,0.8-7.79,3.58-9.4,8.03c-0.1,0.28-0.24,0.42-0.5,0.52c-4.72,1.83-7.5,6.78-6.61,11.74 c0.93,5.15,5.29,8.82,10.51,8.82c2.87,0,5.74,0,8.61,0c2.97,0,5.94,0,8.9,0c0.43,0,0.86-0.04,1.28-0.11 C51.31,36.72,54.7,32.21,54.02,27.19z M41.65,26.73c-1.73,1.73-3.45,3.46-5.18,5.18c-0.63,0.63-1.38,0.62-2.02-0.01 c-1.72-1.71-3.43-3.43-5.15-5.15c-0.44-0.44-0.63-0.94-0.38-1.54c0.25-0.59,0.74-0.82,1.36-0.82c0.74,0,1.47-0.01,2.21,0.01 c0.27,0.01,0.32-0.08,0.31-0.33c-0.02-0.85-0.01-1.69-0.01-2.54c0,0,0.01,0,0.01,0c0-0.9-0.07-1.81,0.02-2.7 c0.13-1.45,1.36-2.49,2.72-2.43c1.46,0.07,2.56,1.23,2.57,2.73c0.01,1.61,0.02,3.22-0.01,4.83c-0.01,0.39,0.12,0.45,0.46,0.44 c0.69-0.03,1.39-0.01,2.08-0.01c0.65,0,1.16,0.31,1.36,0.83C42.24,25.8,42.08,26.3,41.65,26.73z"></path><g class="st1">	<path class="st2" d="M50.67,15.86c-1.8-2.39-3.62-4.77-5.49-7.11c-1.18-1.49-3.56-1.48-4.74,0.01c-1.86,2.34-3.7,4.71-5.48,7.11  c-1.32,1.77-0.33,4.31,1.81,4.85c0.46,0.12,0.94,0.11,1.4,0.09c0.3-0.01,0.4,0.07,0.39,0.38c-0.02,1.65-0.01,3.3-0.01,4.95  c0,1.6,0,3.19,0,4.79c0,1.54,0.89,2.45,2.42,2.45c1.23,0,2.46,0,3.69,0c0.25,0,0.5-0.01,0.74-0.07c1.05-0.27,1.67-1.12,1.67-2.31  c0.01-1.92,0-3.85,0-5.77c0-1.36,0.01-2.72-0.01-4.08c0-0.26,0.06-0.35,0.33-0.33c0.3,0.02,0.6,0.01,0.9-0.01  c1.22-0.07,2.1-0.68,2.63-1.76C51.47,17.95,51.41,16.84,50.67,15.86z"></path>	<path class="st2" d="M34.06,25.33c-0.46-0.1-0.91-0.06-1.37-0.06c-0.28,0-0.37-0.05-0.37-0.36c0.02-1.69,0.01-3.38,0.01-5.06  c0-1.65,0-3.3,0-4.95c0-1.25-0.95-2.2-2.21-2.2c-1.33,0-2.67,0-4,0c-1.33,0-2.27,0.93-2.27,2.26c0,2.08,0,4.16,0,6.24  c0,1.24-0.01,2.49,0.01,3.73c0,0.28-0.07,0.36-0.35,0.34c-0.3-0.03-0.6-0.01-0.9,0c-1.67,0.03-3.12,1.69-2.96,3.35  c0.08,0.82,0.46,1.47,0.95,2.1c1.64,2.1,3.26,4.22,4.89,6.33c1.37,1.77,3.71,1.86,5.08,0.14c1.82-2.29,3.62-4.61,5.36-6.96  C37.29,28.41,36.27,25.82,34.06,25.33z"></path>	<path class="st2" d="M25.27,10.81c1.78,0,3.56,0,5.34,0c0.89,0,1.57-0.68,1.57-1.55c0-0.9-0.67-1.58-1.57-1.59  c-0.89,0-1.78,0-2.67,0s-1.78,0-2.67,0c-0.89,0-1.57,0.68-1.57,1.55C23.69,10.13,24.36,10.81,25.27,10.81z"></path>	<path class="st2" d="M45.37,35.32c-0.88,0-1.75,0-2.63,0c-0.9,0-1.81,0-2.71,0c-0.89,0-1.57,0.68-1.57,1.55  c0,0.9,0.67,1.59,1.57,1.59c1.78,0,3.56,0,5.34,0c0.89,0,1.57-0.68,1.57-1.55C46.95,36,46.28,35.32,45.37,35.32z"></path></g><g>	<path class="st3" d="M68.23,20.18c0-0.28,0-0.56-0.05-0.83c-0.66-3.62-3.39-5.89-7.07-5.9c-0.84,0-1.67,0-2.51,0  c-0.02,0-0.05,0-0.07,0h-4.05c-0.65,0-1.3,0.01-1.95,0.02c-0.11,0-0.21,0-0.29-0.02H48.7c-0.08,0.01-0.16,0.01-0.27,0.01  c-0.82-0.01-1.64-0.01-2.45-0.01h-5.92c-0.22,0-0.43,0-0.65,0c-2.35,0-4.7,0-7.06,0h-0.43c0,0,0,0,0,0c-7.4,0-14.8,0-22.2,0  c-3.13,0-5.7,1.82-6.69,4.69c-0.12,0.35-0.11,0.75-0.34,1.06c0,2.56,0,5.12,0,7.68c0.03,0.02,0.09,0.04,0.09,0.07  c0.56,3.33,3.67,5.71,7.4,5.7c16.85-0.07,33.71-0.03,50.56-0.03c0.28,0,0.56,0,0.83-0.01c3.81-0.18,6.65-3.13,6.65-6.94  C68.24,23.85,68.23,22.01,68.23,20.18z M65.41,26.38c-0.12,1.77-1.89,3.35-3.78,3.45c-0.17,0.01-0.34,0.01-0.51,0.01  c-17.11,0-34.22,0-51.33,0c-2.15,0-3.68-1.12-4.22-3.09c-0.09-0.32-0.12-0.67-0.12-1.01c0.01-1.96-0.08-3.93,0.04-5.89  c0.11-1.83,1.8-3.49,3.63-3.59c0.6-0.03,1.19-0.02,1.79-0.02c8.19,0,16.38,0,24.58,0c8.53,0,17.07,0,25.6,0  c2.2,0,3.66,1.07,4.25,3.05c0.08,0.28,0.09,0.55,0.1,0.82C65.49,22.2,65.55,24.29,65.41,26.38z"></path>	<path class="st3" d="M58.95,21.72c-0.22-0.06-0.46-0.07-0.69-0.07c-4.28,0-8.56,0-12.84-0.01c-0.32,0-0.65,0.01-0.94,0.15  c-0.55,0.26-0.86,0.7-0.82,1.32c0.04,0.61,0.36,1.03,0.95,1.22c0.29,0.09,0.58,0.11,0.88,0.11c2.11-0.01,4.22,0,6.33,0  c2.11,0,4.22,0,6.33,0c0.25,0,0.5,0,0.76-0.06c0.72-0.19,1.13-0.66,1.13-1.34C60.03,22.38,59.64,21.89,58.95,21.72z"></path>	<path class="st3" d="M12.23,21.65c-0.71,0.01-1.33,0.64-1.35,1.36c-0.01,0.74,0.62,1.41,1.35,1.41c0.73,0.01,1.37-0.64,1.37-1.39  C13.61,22.3,12.95,21.64,12.23,21.65z"></path>	<path class="st3" d="M20.44,21.65c-0.71,0-1.34,0.62-1.36,1.34c-0.02,0.74,0.59,1.41,1.33,1.43c0.72,0.02,1.38-0.63,1.39-1.37  C21.81,22.31,21.17,21.65,20.44,21.65z"></path>	<path class="st3" d="M28.59,21.66c-0.72,0.03-1.32,0.66-1.32,1.38c0,0.74,0.65,1.4,1.37,1.39c0.74-0.01,1.36-0.66,1.35-1.41  C29.98,22.27,29.31,21.62,28.59,21.66z"></path>	<path class="st3" d="M36.81,21.65c-0.71,0.01-1.33,0.64-1.35,1.35c-0.02,0.74,0.61,1.41,1.35,1.42c0.73,0.01,1.37-0.64,1.38-1.39  C38.19,22.3,37.53,21.64,36.81,21.65z"></path></g><path class="st0" d="M17.02,29.44c0-0.89,0.01-1.78,0-2.67c-0.01-1.05,0.41-1.87,1.28-2.45c0.23-0.16,0.33-0.31,0.35-0.59 c0.35-4.67,2.32-8.54,5.84-11.61c2.63-2.29,5.72-3.66,9.19-3.98c5.78-0.53,10.67,1.39,14.53,5.74c2.49,2.81,3.84,6.15,4.08,9.91 c0.02,0.25,0.12,0.36,0.31,0.49c0.89,0.58,1.32,1.42,1.31,2.49c-0.01,1.78,0,3.56,0,5.34c-0.01,2.15-2.06,3.5-4.05,2.65 c-0.31-0.13-0.5-0.12-0.77,0.07c-2.05,1.37-4.35,2-6.77,2.26c-0.28,0.03-0.5,0.07-0.69,0.32c-0.31,0.43-0.76,0.63-1.3,0.62 c-0.73-0.01-1.47,0.01-2.2-0.01c-0.95-0.02-1.66-0.72-1.68-1.64c-0.02-0.86,0.67-1.65,1.57-1.7c0.83-0.05,1.66-0.02,2.49,0 c0.31,0.01,0.64,0.1,0.84,0.34c0.32,0.39,0.69,0.4,1.12,0.34c1.96-0.28,3.83-0.82,5.53-1.88c0.25-0.15,0.37-0.27,0.28-0.63 c-0.19-0.71-0.1-1.46-0.1-2.19c0-1.39-0.01-2.78,0.03-4.18c0.02-0.93,0.46-1.66,1.24-2.17c0.19-0.13,0.3-0.24,0.27-0.5 c-0.69-5.91-3.72-10.1-9.28-12.26c-8.3-3.22-17.56,2.16-19.03,10.94c-0.03,0.19-0.06,0.38-0.1,0.57c-0.16,0.66-0.07,1.15,0.58,1.59 c0.69,0.47,0.88,1.29,0.88,2.11c0.01,1.78,0.03,3.56-0.01,5.34c-0.03,1.62-1.12,2.8-2.59,2.89c-1.57,0.1-2.91-0.84-3.1-2.33 c-0.13-1.07-0.03-2.16-0.03-3.24C17.04,29.44,17.03,29.44,17.02,29.44z"></path></svg>