<?xml version="1.0" encoding="utf-8"?>
<!-- Generator: Adobe Illustrator 24.2.3, SVG Export Plug-In . SVG Version: 6.00 Build 0)  -->
<svg version="1.1" id="Calque_1" xmlns="http://www.w3.org/2000/svg" xmlns:xlink="http://www.w3.org/1999/xlink" x="0px" y="0px"
	 viewBox="0 0 998.91 25" style="enable-background:new 0 0 998.91 25;" xml:space="preserve">
<style type="text/css">
	.st0{fill:#FFFFFF;}
</style>
<g>
	<path class="st0" d="M36.2,8.51C55.36,8.22,74.53,8,93.71,7.84l57.51-0.45c38.34-0.17,76.69-0.23,115.03-0.13
		c19.17,0.04,38.34,0.13,57.52,0.33l28.76,0.31l28.76,0.42c19.17,0.34,38.34,0.68,57.51,1.24l14.38,0.4l14.38,0.52l28.73,1.02
		c19.14,0.82,38.3,1.19,57.46,1.68l28.74,0.44l14.37,0.2l14.37,0.08c38.33,0.34,76.66-0.01,115-0.29
		c38.33-0.33,76.67-1.06,114.99-1.93c38.33-0.81,76.65-1.9,114.98-3.17c-19.15,0.98-38.3,1.82-57.46,2.56L870,12.16l-28.74,1
		c-38.33,1.17-76.66,2.16-115,2.77c-19.17,0.34-38.34,0.56-57.52,0.67l-28.76,0.11l-28.76-0.07l-14.38-0.05l-14.38-0.16l-28.76-0.37
		c-19.17-0.45-38.35-0.77-57.52-1.55l-28.74-1.09l-14.36-0.56l-14.37-0.44c-19.15-0.6-38.32-0.99-57.48-1.38
		c-38.33-0.75-76.66-1.05-115-1.48c-38.34-0.38-76.68-0.58-115.02-0.71C112.88,8.63,74.54,8.59,36.2,8.51z"/>
	<path class="st0" d="M956.2,10.54c-38.34-0.04-76.68-0.12-115.02-0.01c-38.34,0.02-76.68,0.11-115.01,0.4
		c-38.34,0.34-76.67,0.55-115,1.23c-19.16,0.36-38.33,0.71-57.48,1.3c-4.79,0.14-9.58,0.25-14.36,0.42l-14.36,0.55l-28.74,1.09
		c-19.17,0.79-38.34,1.13-57.51,1.59l-28.76,0.4l-14.38,0.18l-14.38,0.07l-28.76,0.12l-28.76-0.06
		c-19.17-0.07-38.35-0.25-57.52-0.54c-38.34-0.52-76.68-1.41-115.01-2.47L122.4,13.9l-28.74-1c-19.16-0.68-38.31-1.46-57.46-2.36
		c38.32,1.14,76.65,2.11,114.98,2.8c38.33,0.76,76.66,1.39,115,1.63c38.33,0.2,76.67,0.46,115,0.06l14.37-0.11l14.37-0.22
		l28.74-0.47c19.16-0.5,38.32-0.9,57.46-1.72l28.74-1.02l14.38-0.52c4.79-0.17,9.59-0.26,14.38-0.39
		c19.17-0.54,38.34-0.85,57.52-1.16l28.76-0.36l28.76-0.24c19.17-0.16,38.34-0.21,57.52-0.19c38.34-0.01,76.69,0.16,115.03,0.44
		l57.51,0.62C917.86,9.9,937.03,10.18,956.2,10.54z"/>
</g>
</svg>
