<?xml version="1.0" encoding="utf-8"?>
<!-- Generator: Adobe Illustrator 24.2.3, SVG Export Plug-In . SVG Version: 6.00 Build 0)  -->
<svg version="1.1" id="Calque_1" xmlns="http://www.w3.org/2000/svg" xmlns:xlink="http://www.w3.org/1999/xlink" x="0px" y="0px"
	 viewBox="0 0 170 170" style="enable-background:new 0 0 170 170;" xml:space="preserve">
<style type="text/css">
	.st0{fill:#253265;}
</style>
<g id="BG">
</g>
<g id="Object">
	<g>
		<ellipse class="st0" cx="89" cy="30.09" rx="18.5" ry="18.5"/>
		<path class="st0" d="M145.32,87.81c-1.13-0.35-2.3,0.09-2.91,1.1c-1.63,2.7-3.93,4.27-6.1,5.21
			c-6.22-17.89-23.46-31.27-51.12-31.27c-10.8,0-20,2.05-27.59,5.6c-5.7-2.94-15.06-6.05-25.14-2.36c-0.18,0.07-0.3,0.22-0.32,0.41
			c-0.02,0.14-1.04,10.38,5.75,19.47c-2.64,4.41-4.48,9.27-5.49,14.37l-6.4,1.74c-3.39,0.92-5.42,4.46-4.49,7.85l4.54,16.66
			c1.38,5.06,4.54,7.03,11.71,6.7l1.22,0.01c2.13,3.04,4.66,5.85,7.53,8.39l2.02,13.77c0,1.63,1.32,2.95,2.95,2.95h9
			c1.63,0,2.95-1.32,2.95-2.95l0.51-3.51c0.03,0.01,0.07,0.02,0.1,0.04c0.32,0.12,0.63,0.23,0.95,0.34c0.09,0.03,0.19,0.07,0.28,0.1
			c0.31,0.11,0.63,0.21,0.94,0.31c0.1,0.03,0.2,0.07,0.3,0.1c0.31,0.1,0.62,0.19,0.93,0.28c0.11,0.03,0.22,0.07,0.33,0.1
			c0.3,0.09,0.61,0.17,0.92,0.26c0.12,0.03,0.24,0.07,0.36,0.1c0.3,0.08,0.6,0.16,0.9,0.23c0.13,0.03,0.26,0.07,0.38,0.1
			c0.3,0.07,0.59,0.14,0.89,0.21c0.14,0.03,0.27,0.06,0.41,0.09c0.29,0.06,0.58,0.13,0.88,0.19c0.14,0.03,0.29,0.06,0.43,0.09
			c0.29,0.06,0.58,0.11,0.87,0.16c0.15,0.03,0.3,0.06,0.45,0.08c0.28,0.05,0.57,0.1,0.86,0.14c0.16,0.03,0.32,0.05,0.48,0.08
			c0.28,0.04,0.57,0.08,0.85,0.12c0.16,0.02,0.33,0.05,0.49,0.07c0.28,0.04,0.56,0.07,0.85,0.1c0.17,0.02,0.34,0.04,0.51,0.06
			c0.28,0.03,0.56,0.06,0.84,0.08c0.18,0.02,0.35,0.04,0.53,0.05c0.28,0.02,0.56,0.04,0.84,0.06c0.18,0.01,0.35,0.03,0.53,0.04
			c0.29,0.02,0.58,0.03,0.87,0.05c0.17,0.01,0.34,0.02,0.51,0.03c0.32,0.01,0.64,0.02,0.95,0.03c0.15,0,0.29,0.01,0.44,0.01
			c0.47,0.01,0.93,0.02,1.4,0.02c0.46,0,0.92-0.01,1.37-0.01c0.15,0,0.29-0.01,0.44-0.01c0.31-0.01,0.62-0.02,0.92-0.03
			c0.18-0.01,0.36-0.02,0.54-0.03c0.27-0.01,0.54-0.03,0.81-0.04c0.19-0.01,0.39-0.03,0.58-0.04c0.26-0.02,0.51-0.04,0.77-0.06
			c0.2-0.02,0.4-0.04,0.6-0.06c0.25-0.02,0.49-0.05,0.74-0.07c0.2-0.02,0.41-0.05,0.61-0.07c0.24-0.03,0.48-0.05,0.72-0.09
			c0.21-0.03,0.41-0.06,0.62-0.09c0.23-0.03,0.47-0.06,0.7-0.1c0.21-0.03,0.42-0.07,0.62-0.1c0.23-0.04,0.46-0.07,0.68-0.11
			c0.21-0.04,0.42-0.08,0.63-0.11c0.22-0.04,0.45-0.08,0.67-0.12c0.21-0.04,0.42-0.08,0.63-0.13c0.22-0.04,0.44-0.09,0.66-0.14
			c0.21-0.05,0.42-0.09,0.63-0.14c0.22-0.05,0.43-0.1,0.64-0.15c0.21-0.05,0.42-0.1,0.63-0.16c0.21-0.05,0.42-0.1,0.63-0.16
			c0.21-0.05,0.42-0.11,0.63-0.17s0.41-0.11,0.62-0.17s0.42-0.12,0.63-0.18c0.2-0.06,0.4-0.12,0.6-0.18
			c0.21-0.06,0.42-0.13,0.62-0.2c0.2-0.06,0.4-0.13,0.59-0.19c0.21-0.07,0.42-0.14,0.62-0.21c0.19-0.07,0.39-0.13,0.58-0.2
			c0.21-0.07,0.42-0.15,0.62-0.23c0.19-0.07,0.38-0.14,0.56-0.21c0.21-0.08,0.41-0.16,0.62-0.24c0.18-0.07,0.37-0.14,0.55-0.22
			c0.1-0.04,0.19-0.08,0.29-0.12l0.63,4.32c0,1.63,1.32,2.95,2.95,2.95h9c1.63,0,2.95-1.32,2.95-2.95l2.37-16.21
			c0.13-0.13,0.25-0.26,0.38-0.39c0.08-0.08,0.15-0.16,0.23-0.24c0.19-0.2,0.38-0.4,0.57-0.61c0.07-0.08,0.14-0.15,0.21-0.23
			c0.19-0.21,0.38-0.42,0.57-0.64c0.06-0.07,0.13-0.15,0.19-0.22c0.19-0.22,0.38-0.44,0.56-0.66c0.06-0.07,0.11-0.13,0.16-0.2
			c0.19-0.23,0.38-0.46,0.56-0.7c0.05-0.06,0.09-0.12,0.14-0.18c0.19-0.24,0.38-0.49,0.56-0.73c0.04-0.05,0.08-0.1,0.11-0.16
			c0.19-0.26,0.38-0.51,0.56-0.77c0.03-0.04,0.06-0.08,0.09-0.13c0.19-0.27,0.38-0.54,0.56-0.82c0.02-0.03,0.04-0.06,0.06-0.09
			c0.19-0.29,0.38-0.58,0.56-0.87c0.01-0.02,0.02-0.03,0.03-0.05c3.81-6.04,6.08-12.89,6.33-20.17l0,0
			c0.02-0.46,0.03-0.92,0.03-1.39c0-0.68-0.02-1.36-0.04-2.04c6.42-4.71,7.92-12.76,8.21-17.59
			C147.16,89.19,146.45,88.16,145.32,87.81z M49.74,103.38c-1.79,0-3.24-1.45-3.24-3.24s1.45-3.24,3.24-3.24s3.24,1.45,3.24,3.24
			C52.99,101.93,51.53,103.38,49.74,103.38z M99.72,76.75c-15.94-5.39-30.37-0.08-30.51-0.03l-1.58-4.18
			c0.65-0.24,16.09-5.92,33.52-0.03L99.72,76.75z"/>
	</g>
</g>
</svg>
