<svg xmlns="http://www.w3.org/2000/svg" xmlns:xlink="http://www.w3.org/1999/xlink" id="Calque_1" x="0px" y="0px" viewBox="0 0 500 430" style="enable-background:new 0 0 500 430;" xml:space="preserve"><style type="text/css">	.st0{fill:#F07F23;}	.st1{opacity:0.05;}	.st2{fill:#29ACE3;}</style><g>	<g>		<path class="st0" d="M32.85,261.27c0.49-1.62-0.43-3.33-2.05-3.82c-1.62-0.48-3.33,0.43-3.82,2.05   c-0.32,1.05-7.76,25.99-9.88,57.69c-2.83,42.32,5.5,76.13,24.08,97.77c0.61,0.71,1.46,1.07,2.33,1.07c0.71,0,1.42-0.24,1.99-0.74   c1.28-1.1,1.43-3.04,0.33-4.32C3.32,361.44,32.55,262.27,32.85,261.27z"></path>		<path class="st0" d="M477.92,313.58c-22.54-45.51-13.13-90.75-13.03-91.2c0.36-1.65-0.69-3.28-2.34-3.64s-3.28,0.69-3.64,2.34   c-0.42,1.93-10,47.73,13.53,95.22c0.53,1.08,1.62,1.71,2.75,1.71c0.46,0,0.92-0.1,1.36-0.32   C478.05,316.93,478.67,315.09,477.92,313.58z"></path>		<path class="st0" d="M408.48,57.83c-0.48-0.15-48.46-15.08-70.36,23.88c-0.83,1.48-0.31,3.34,1.17,4.17   c0.48,0.27,0.99,0.39,1.5,0.39c1.07,0,2.11-0.56,2.67-1.56c8.11-14.43,21.09-22.38,38.58-23.63c13.32-0.96,24.4,2.52,24.57,2.58   c1.61,0.52,3.34-0.37,3.85-1.98C410.98,60.08,410.1,58.35,408.48,57.83z"></path>	</g>	<g class="st1">		<path class="st2" d="M228.92,81.79c-15.45-8.68-34.35-5.58-46.26,6.41c0,0-0.02,0.02-0.09,0.07c-0.23,0.26-1.05,1.15-2.37,2.62   c-15.54,17.49-99.88,117.58-99.48,228.37c0.13,37.58,12.4,75.57,29.96,110.74h130.29c-15.18-35.32-27.22-74.98-26.29-110.78   c2.27-87.29,28.59-179.99,32-191.7c0.12-0.4,0.21-0.7,0.27-0.89c0.07-0.24,0.1-0.36,0.1-0.36   C252.02,109.42,244.89,90.77,228.92,81.79z"></path>		<path class="st2" d="M423.99,301.41c-25.22-67.69,1.27-165.64,2.05-168.46c0-0.02,0.02-0.04,0.01-0.06   c5.07-16.94-2.03-35.7-18.07-44.7c-18.59-10.47-42.13-3.86-52.58,14.74c0,0,0,0.01-0.02,0.05c-0.16,0.34-1.04,2.16-2.43,5.24   c-13.1,28.75-72.8,168.03-37.36,245.11c12.39,26.96,27.2,52.25,40.95,76.67h126C462.27,388.15,441.75,349.09,423.99,301.41z"></path>	</g></g></svg>