<svg xmlns="http://www.w3.org/2000/svg" xmlns:xlink="http://www.w3.org/1999/xlink" id="Calque_1" x="0px" y="0px" viewBox="0 0 500 430" style="enable-background:new 0 0 500 430;" xml:space="preserve"><style type="text/css">	.st0{opacity:0.05;}	.st1{fill:#29ACE3;}	.st2{fill:#F07F23;}</style><g>	<g class="st0">		<path class="st1" d="M238.3,130.69c-2.36-3.36-45.92-65.2-65.13-130.55H55.21c4.91,15.03,11.32,29.79,18.66,43.99   c40.07,77.56,107.64,138.64,107.64,138.64l0.56-0.52c2.03,1.81,4.27,3.4,6.72,4.8c18.46,10.37,41.83,3.83,52.21-14.65   c7.64-13.58,6.1-29.82-2.61-41.58C238.38,130.76,238.33,130.73,238.3,130.69z"></path>		<path class="st1" d="M437.35,119.85c-16.89-45.86-35.87-82.17-54.08-119.7H268.37c34.26,63.98,75.48,118.65,56.24,178.98   c-20.42,64.05-35.81,117.24-42.02,139.04c-1.54,3.43-2.51,6.98-2.98,10.56c0,0.01-0.02,0.05-0.02,0.05l0.01,0.01   c-1.95,15.04,5.19,30.47,19.24,38.36c18.46,10.37,41.84,3.82,52.23-14.65c0,0,0,0,0.01-0.01   C352.55,350.45,464.68,194.05,437.35,119.85z"></path>	</g>	<g>		<path class="st2" d="M266.61,94.37c-0.93-1.18-2.65-1.39-3.83-0.46c-1.18,0.93-1.39,2.64-0.46,3.83   c0.31,0.4,30.85,39.97,10.25,73.26c-0.79,1.28-0.4,2.96,0.88,3.75c0.45,0.28,0.94,0.41,1.43,0.41c0.91,0,1.81-0.46,2.32-1.29   c9.39-15.16,10.5-33.76,3.22-53.79C275.01,105.16,266.95,94.81,266.61,94.37z"></path>		<path class="st2" d="M27.65,19.47c-0.21-1.49-1.59-2.52-3.09-2.31c-1.49,0.21-2.53,1.59-2.31,3.08   c0.24,1.67,6.13,41.34,30.71,77.35c0.53,0.77,1.38,1.19,2.26,1.19c0.53,0,1.06-0.15,1.53-0.48c1.24-0.85,1.56-2.54,0.72-3.79   C33.63,59.6,27.71,19.87,27.65,19.47z"></path>		<path class="st2" d="M10.93,36.99c-0.28-1.48-1.71-2.44-3.19-2.17c-1.48,0.28-2.45,1.71-2.17,3.19   c0.17,0.91,4.33,22.41,12.77,37.17c0.5,0.88,1.42,1.37,2.37,1.37c0.46,0,0.92-0.12,1.35-0.36c1.31-0.75,1.76-2.41,1.01-3.72   C15.1,58.52,10.97,37.21,10.93,36.99z"></path>		<path class="st2" d="M487.5,80.45c-43.95,1.92-63.74-72.97-63.93-73.72c-0.37-1.46-1.86-2.34-3.32-1.96   c-1.46,0.37-2.34,1.86-1.96,3.32c0.21,0.81,5.21,20.03,16.1,39.33c14.25,25.25,32,38.53,51.45,38.53c0.63,0,1.27-0.01,1.91-0.04   c1.5-0.07,2.67-1.34,2.6-2.85C490.28,81.55,488.99,80.36,487.5,80.45z"></path>	</g></g></svg>