<?xml version="1.0" encoding="utf-8"?>
<!-- Generator: Adobe Illustrator 24.2.3, SVG Export Plug-In . SVG Version: 6.00 Build 0)  -->
<svg version="1.1" id="Calque_1" xmlns="http://www.w3.org/2000/svg" xmlns:xlink="http://www.w3.org/1999/xlink" x="0px" y="0px"
	 viewBox="0 0 56.69 58.72" style="enable-background:new 0 0 56.69 58.72;" xml:space="preserve">
<style type="text/css">
	.st0{fill:#253265;}
</style>
<path class="st0" d="M26.75,3.85c1.06,0,2.13,0,3.19,0c0.87,0.11,1.74,0.2,2.61,0.34c4.77,0.82,9,2.81,12.62,6.02
	c4.46,3.95,7.25,8.87,8.3,14.75c0.17,0.93,0.26,1.87,0.39,2.8c0,1.06,0,2.13,0,3.19c-0.03,0.13-0.07,0.25-0.08,0.38
	c-0.3,3.92-1.42,7.59-3.46,10.94c-4.05,6.66-9.9,10.75-17.58,12.2c-0.92,0.17-1.86,0.26-2.8,0.39c-1.06,0-2.13,0-3.19,0
	c-0.11-0.03-0.22-0.07-0.33-0.08c-4.35-0.33-8.38-1.66-12.01-4.09c-6.09-4.08-9.84-9.73-11.19-16.95c-0.17-0.93-0.26-1.87-0.39-2.8
	c0-1.06,0-2.13,0-3.19c0.08-0.62,0.14-1.25,0.23-1.87c0.8-5.56,3.15-10.37,7.08-14.38c3.82-3.89,8.43-6.33,13.8-7.27
	C24.88,4.08,25.82,3.98,26.75,3.85z M14.52,27.84c0.13-3.57,0.7-7.04,1.72-10.36c-1.8-0.81-3.54-1.59-5.32-2.39
	c-2.99,3.69-4.69,7.92-5.04,12.74C8.78,27.84,11.62,27.84,14.52,27.84z M5.88,30.88c0.37,4.84,2.07,9.08,5.05,12.74
	c1.81-0.81,3.54-1.59,5.24-2.35c-0.37-1.69-0.8-3.39-1.09-5.11c-0.29-1.74-0.43-3.51-0.64-5.28C11.62,30.88,8.79,30.88,5.88,30.88z
	 M50.81,27.85c-0.36-4.83-2.06-9.07-5.05-12.75c-1.81,0.81-3.56,1.6-5.32,2.39c1.04,3.35,1.58,6.82,1.73,10.35
	C45.06,27.85,47.89,27.85,50.81,27.85z M42.17,30.88c-0.15,3.55-0.69,7.02-1.72,10.35c1.8,0.81,3.54,1.59,5.32,2.39
	c2.99-3.71,4.69-7.94,5.04-12.75C47.89,30.88,45.06,30.88,42.17,30.88z M19.11,18.38c-0.93,3.03-1.46,6.19-1.59,9.44
	c3.13,0,6.22,0,9.29,0c0-2.84,0-5.63,0-8.33C24.24,19.12,21.7,18.76,19.11,18.38z M29.88,19.49c0,2.72,0,5.53,0,8.34
	c3.11,0,6.19,0,9.29,0c-0.14-3.27-0.65-6.44-1.59-9.45C34.97,18.76,32.43,19.13,29.88,19.49z M17.52,30.88
	c0.14,3.28,0.66,6.44,1.59,9.46c2.59-0.37,5.14-0.74,7.71-1.11c0-2.73,0-5.52,0-8.35C23.72,30.88,20.65,30.88,17.52,30.88z
	 M29.86,30.87c0,2.84,0,5.64,0,8.35c2.58,0.37,5.13,0.74,7.72,1.11c0.93-3.04,1.46-6.2,1.58-9.46
	C36.04,30.87,32.98,30.87,29.86,30.87z M29.86,16.34c1.86,0.01,5.88-0.59,6.67-1.01c-0.55-1.04-1.06-2.1-1.65-3.11
	c-0.99-1.69-2.18-3.22-3.8-4.36c-0.37-0.26-0.78-0.46-1.22-0.72C29.86,10.27,29.86,13.29,29.86,16.34z M36.59,43.18
	c-2.32-0.32-4.49-0.63-6.72-0.93c0,3.17,0,6.2,0,9.35C33.29,49.75,34.98,46.63,36.59,43.18z M26.83,7.11
	c-3.43,1.88-5.13,4.98-6.67,8.31c2.24,0.54,4.42,0.86,6.67,0.93C26.83,13.29,26.83,10.28,26.83,7.11z M20.14,43.19
	c0.86,2.04,1.83,3.79,3.09,5.37c0.8,1.01,1.7,1.91,2.81,2.58c0.24,0.15,0.51,0.26,0.78,0.39c0-3.11,0-6.14,0-9.29
	C24.58,42.56,22.41,42.87,20.14,43.19z M43.62,12.83c-2.38-2.17-4.95-3.71-7.86-4.68c1.52,1.98,2.68,4.14,3.68,6.49
	C40.84,14.04,42.18,13.46,43.62,12.83z M20.92,50.56c-1.52-1.98-2.67-4.15-3.67-6.48c-1.4,0.61-2.75,1.19-4.17,1.81
	C15.43,48.05,18,49.59,20.92,50.56z M35.76,50.57c2.93-0.98,5.5-2.53,7.86-4.69c-1.46-0.63-2.8-1.21-4.19-1.81
	C38.44,46.44,37.27,48.6,35.76,50.57z M17.26,14.64c0.98-2.37,2.16-4.52,3.67-6.5c-2.92,0.99-5.5,2.52-7.85,4.69
	C14.53,13.46,15.87,14.04,17.26,14.64z"/>
</svg>
