<?xml version="1.0" encoding="utf-8"?>
<!-- Generator: Adobe Illustrator 24.2.3, SVG Export Plug-In . SVG Version: 6.00 Build 0)  -->
<svg version="1.1" id="Calque_1" xmlns="http://www.w3.org/2000/svg" xmlns:xlink="http://www.w3.org/1999/xlink" x="0px" y="0px"
	 viewBox="0 0 25 25" style="enable-background:new 0 0 25 25;" xml:space="preserve">
<style type="text/css">
	.st0{fill:#F07F25;}
</style>
<path class="st0" d="M24.48,12.59c-0.02-0.67-0.38-1-0.8-1.42c-0.58-0.58-1.15-1.15-1.73-1.73c-1.71-1.71-3.42-3.42-5.13-5.13
	c-1.12-1.12-2.22-2.26-3.36-3.36c-0.02-0.02-0.04-0.04-0.06-0.06c-0.49-0.49-1.32-0.49-1.8,0C10.65,1.82,9.72,2.76,8.78,3.7
	C7.05,5.43,5.33,7.15,3.6,8.88c-0.65,0.65-1.31,1.31-1.96,1.96c-0.36,0.36-0.94,0.8-1.08,1.32c-0.06,0.23-0.05,0.49-0.05,0.73
	c0,0.36,0,0.72,0,1.09c0,1.12,0,2.25,0,3.37c0,1.92-0.02,3.84,0,5.75c0,0.04,0,0.07,0,0.11c0,0.69,0.58,1.27,1.27,1.27
	c2.42,0,4.84,0,7.26,0c3.83,0,7.67,0,11.5,0c0.89,0,1.77,0,2.66,0c0,0,0,0,0,0c0,0,0,0,0,0c0,0,0,0,0,0c0.33,0,0.65-0.15,0.89-0.38
	c0,0,0,0,0-0.01c0.23-0.22,0.37-0.52,0.37-0.85c0-0.01,0.01-0.02,0.01-0.04c0-1.65,0-3.29,0-4.94
	C24.48,16.37,24.52,14.47,24.48,12.59z M15.94,21.93c-3.83,0-7.67,0-11.5,0c-0.46,0-0.92,0-1.38,0c0-2.7,0-5.39,0-8.09
	c0-0.27,0-0.54,0-0.81c1.08-1.08,2.17-2.17,3.26-3.26c1.92-1.92,3.84-3.84,5.75-5.75c0.14-0.14,0.28-0.28,0.42-0.42
	c0.91,0.91,1.82,1.82,2.73,2.73c1.92,1.92,3.84,3.84,5.75,5.75c0.32,0.32,0.64,0.64,0.95,0.95c0,2.95,0,5.89,0,8.84
	c0,0.02,0,0.04,0,0.07C19.94,21.93,17.94,21.93,15.94,21.93z"/>
</svg>
