<?xml version="1.0" encoding="utf-8"?>
<!-- Generator: Adobe Illustrator 24.2.3, SVG Export Plug-In . SVG Version: 6.00 Build 0)  -->
<svg version="1.1" id="Calque_1" xmlns="http://www.w3.org/2000/svg" xmlns:xlink="http://www.w3.org/1999/xlink" x="0px" y="0px"
	 viewBox="0 0 325 115" style="enable-background:new 0 0 325 115;" xml:space="preserve">
<style type="text/css">
	.st0{fill:#FFFFFF;}
</style>
<g>
	<g>
		<g>
			<path class="st0" d="M234.72,97.35c-11.71,0-23.42,0-35.13,0c-0.47,0-0.9-0.04-1.16,0.51c-0.2,0.41-0.65,0.54-1.12,0.54
				c-4.39,0-8.78,0-13.17,0c-0.47,0-0.94-0.11-1.13-0.52c-0.29-0.59-0.75-0.54-1.24-0.54c-11.45,0-22.89,0-34.34,0
				c-1.71,0-1.71,0-1.7,1.74c0,1.25,0.3,1.56,1.53,1.56c28.98,0,57.96,0,86.94,0.01c0.64,0,1.14-0.16,1.49-0.7c0-0.88,0-1.76,0-2.64
				C235.36,97.33,235.04,97.35,234.72,97.35z"/>
			<path class="st0" d="M154.91,95.35c23.86,0,47.72,0,71.58,0c2.31,0,3.37-1.07,3.37-3.39c0-15.16,0-30.33,0-45.49
				c0-2.4-1.02-3.42-3.41-3.42c-11.92,0-23.83,0-35.75,0s-23.83,0-35.75,0c-2.39,0-3.41,1.02-3.41,3.42c0,15.16,0,30.33,0,45.49
				C151.55,94.28,152.61,95.35,154.91,95.35z M154.98,45.44c11.92,0.02,23.83,0.02,35.75,0.02c11.86,0,23.72,0,35.57,0
				c1.14,0,1.14,0,1.14,1.14c0,15.08-0.01,30.15,0.02,45.23c0,0.88-0.21,1.13-1.11,1.13c-23.77-0.03-47.55-0.02-71.32,0
				c-0.85,0-1.07-0.24-1.07-1.08c0.02-15.14,0.02-30.27,0-45.41C153.95,45.65,154.17,45.44,154.98,45.44z"/>
		</g>
		<g>
			<path class="st0" d="M322.15,78.48c0-6.82,0-13.65,0-20.47c0-1.65-1.1-2.74-2.75-2.74c-6.64,0-13.27,0.02-19.91-0.02
				c-1.55-0.01-2.79,1.26-2.79,2.78c0.03,13.62,0.02,27.23,0.02,40.85c0,1.68,1.09,2.77,2.77,2.77c6.62,0,13.24-0.02,19.86,0.02
				c1.6,0.01,2.83-1.28,2.82-2.8C322.12,92.06,322.15,85.27,322.15,78.48z M306.75,56.83c0.16-0.23,0.69-0.06,1.06-0.07
				c0.54-0.01,1.09,0,1.63,0c0.81,0,1.62,0.01,2.43-0.01c0.28-0.01,0.31,0.1,0.25,0.32c-0.01,0.03-0.02,0.06-0.03,0.09
				c-0.1,0.35-0.09,0.85-0.32,1.02c-0.24,0.18-0.71,0.06-1.09,0.07c-1.1,0-2.21-0.01-3.31,0.01c-0.26,0-0.39-0.06-0.43-0.33
				C306.9,57.55,306.57,57.09,306.75,56.83z M320.65,78.47c0,6.72,0,13.43,0,20.15c0,1.14-0.39,1.52-1.55,1.52
				c-6.47,0-12.93,0-19.4,0c-1.1,0-1.5-0.4-1.5-1.48c0-13.48,0-26.95,0-40.43c0-1.07,0.4-1.47,1.46-1.47c1.67,0,3.33,0.01,5-0.01
				c0.36-0.01,0.47,0.12,0.54,0.44c0.14,0.65,0.32,1.29,0.48,1.94c0.1,0.42,0.36,0.63,0.8,0.63c1.96,0,3.93,0,5.89,0
				c0.44,0,0.69-0.22,0.79-0.64c0.18-0.71,0.37-1.41,0.53-2.12c0.04-0.2,0.12-0.24,0.3-0.24c1.82,0.01,3.65-0.01,5.47,0.01
				c0.7,0.01,1.14,0.48,1.17,1.19c0.01,0.12,0,0.25,0,0.37C320.65,65.04,320.65,71.76,320.65,78.47z"/>
			<path class="st0" d="M311.61,97.9c-0.72-0.01-1.43,0-2.15,0c-0.73,0-1.46,0-2.2,0c-0.52,0-0.82,0.28-0.82,0.74
				c0,0.46,0.3,0.75,0.81,0.75c1.45,0,2.9,0,4.35,0c0.51,0,0.82-0.29,0.82-0.74C312.42,98.19,312.12,97.9,311.61,97.9z"/>
		</g>
		<g>
			<path class="st0" d="M298.28,44.73c0-2.06-0.72-3.78-2.4-5.04c-0.78-0.58-1.69-0.83-2.59-1.09c-13.17,0-26.34,0-39.51,0
				c-0.52,0.18-1.06,0.32-1.55,0.56c-2.31,1.16-3.32,3.11-3.32,5.63c0,17.03,0,34.07,0,51.1c0,0.6,0.03,1.21,0.08,1.81
				c0.24,2.79,2.69,5.11,5.61,5.11c12.66,0.01,25.33,0.01,37.99,0c0.84,0,1.65-0.19,2.41-0.57c2.26-1.15,3.27-3.06,3.28-5.53
				c0.01-8.28,0.01-16.55,0.01-24.83C298.28,62.83,298.28,53.78,298.28,44.73z M295.93,96.89c0,2.19-1.4,3.58-3.66,3.62
				c-1.07,0.02-2.13,0-3.2,0c-11.29,0-22.57,0-33.86,0c-0.67,0-1.34-0.02-1.95-0.33c-1.37-0.69-2-1.8-2-3.33
				c0.01-8.74,0-17.47,0-26.21c0-8.72,0-17.43,0-26.15c0-1.73,0.94-3.01,2.52-3.45c0.44-0.12,0.91-0.14,1.36-0.14
				c12.31,0,24.62,0,36.93,0c2.03,0,3.33,0.94,3.77,2.69c0.08,0.31,0.08,0.62,0.08,0.93C295.93,61.98,295.93,79.44,295.93,96.89z"/>
			<path class="st0" d="M273.59,45.45C273.59,45.45,273.59,45.45,273.59,45.45c0.56,0,1.31,0.22,1.63-0.05
				c0.37-0.33,0.08-1.1,0.12-1.67c0-0.04-0.01-0.08,0-0.13c0.06-0.37-0.12-0.46-0.46-0.45c-0.83,0.02-1.67,0.03-2.5,0
				c-0.47-0.02-0.57,0.16-0.53,0.58c0.06,0.57-0.24,1.35,0.12,1.67C272.28,45.67,273.03,45.45,273.59,45.45z"/>
			<path class="st0" d="M273.6,91.33c-2.19,0-4.01,1.83-4.01,4.03c0,2.2,1.82,4.04,4.01,4.04c2.19,0,4.01-1.84,4.01-4.04
				C277.61,93.16,275.79,91.33,273.6,91.33z M273.58,97.05c-0.94-0.01-1.7-0.78-1.68-1.72c0.02-0.92,0.77-1.66,1.68-1.67
				c0.93-0.01,1.71,0.76,1.71,1.7C275.29,96.3,274.53,97.06,273.58,97.05z"/>
		</g>
	</g>
	<g>
		<path class="st0" d="M130.37,11.59H6.97c-2.32,0-4.21,1.89-4.21,4.21v74.9c0,2.32,1.89,4.21,4.21,4.21h123.39
			c2.32,0,4.21-1.89,4.21-4.21v-74.9C134.57,13.48,132.68,11.59,130.37,11.59z M5.91,15.79c0-0.59,0.48-1.06,1.06-1.06h123.39
			c0.59,0,1.06,0.48,1.06,1.06v74.9c0,0.59-0.48,1.06-1.06,1.06H6.97c-0.59,0-1.06-0.48-1.06-1.06V15.79z"/>
		<path class="st0" d="M88.25,98.39H49.09c-1.22,0-2.22,0.99-2.22,2.22c0,1.22,0.99,2.22,2.22,2.22h39.15
			c1.22,0,2.22-0.99,2.22-2.22C90.46,99.38,89.47,98.39,88.25,98.39z"/>
	</g>
</g>
</svg>
