<?xml version="1.0" encoding="utf-8"?>
<!-- Generator: Adobe Illustrator 24.2.3, SVG Export Plug-In . SVG Version: 6.00 Build 0)  -->
<svg version="1.1" id="Calque_1" xmlns="http://www.w3.org/2000/svg" xmlns:xlink="http://www.w3.org/1999/xlink" x="0px" y="0px"
	 viewBox="0 0 240 100" style="enable-background:new 0 0 240 100;" xml:space="preserve">
<style type="text/css">
	.st0{fill:#FFFFFF;}
	.st1{fill-rule:evenodd;clip-rule:evenodd;fill:url(#path1192_1_);}
	.st2{fill-rule:evenodd;clip-rule:evenodd;fill:url(#path1203_1_);}
	.st3{fill-rule:evenodd;clip-rule:evenodd;fill:url(#path1210_1_);}
	.st4{fill-rule:evenodd;clip-rule:evenodd;fill:url(#path1223_1_);}
</style>
<path class="st0" d="M223.01,9.68H15.51c-4.81,0-8.72,3.91-8.72,8.72v60.85c0,4.81,3.91,8.72,8.72,8.72h207.5
	c4.81,0,8.72-3.91,8.72-8.72V18.4C231.73,13.59,227.82,9.68,223.01,9.68z M229.73,79.25c0,3.71-3.01,6.72-6.72,6.72H15.51
	c-3.7,0-6.72-3.01-6.72-6.72V18.4c0-3.7,3.01-6.72,6.72-6.72h207.5c3.71,0,6.72,3.01,6.72,6.72V79.25z"/>
<g>
	
		<linearGradient id="path1192_1_" gradientUnits="userSpaceOnUse" x1="3214.8196" y1="1384.4595" x2="3186.4199" y2="1399.1191" gradientTransform="matrix(1.3204 0 0 2.558 -4198.2139 -3517.5176)">
		<stop  offset="0" style="stop-color:#4696D2"/>
		<stop  offset="7.000000e-03" style="stop-color:#4598D3"/>
		<stop  offset="0.26" style="stop-color:#3FB9EB"/>
		<stop  offset="0.512" style="stop-color:#4AC1ED"/>
		<stop  offset="0.76" style="stop-color:#5CC4E6"/>
		<stop  offset="1" style="stop-color:#60C4E5"/>
	</linearGradient>
	<path id="path1192" class="st1" d="M21.4,20.32c-0.64,0.72-1.01,1.82-1.01,3.25v50.87c0,1.43,0.37,2.53,1.03,3.22l0.17,0.15
		l27.48-28.5v-0.64l-27.5-28.5L21.4,20.32z"/>
	
		<linearGradient id="path1203_1_" gradientUnits="userSpaceOnUse" x1="3788.0293" y1="3002.1113" x2="3736.3125" y2="3002.1113" gradientTransform="matrix(1.0374 0 0 0.8735 -3856.3989 -2573.3398)">
		<stop  offset="0" style="stop-color:#FFE00A"/>
		<stop  offset="0.409" style="stop-color:#FBBC0F"/>
		<stop  offset="0.775" style="stop-color:#F7A418"/>
		<stop  offset="1" style="stop-color:#F59A1B"/>
	</linearGradient>
	<path id="path1203" class="st2" d="M58.22,58.85l-9.16-9.83l0,0l9.16-9.86l0.2,0.13l10.84,6.39c3.11,1.82,3.11,4.81,0,6.65
		l-10.84,6.39C58.41,58.72,58.22,58.85,58.22,58.85L58.22,58.85z"/>
	
		<linearGradient id="path1210_1_" gradientUnits="userSpaceOnUse" x1="2765.99" y1="2188.1919" x2="2735.6599" y2="2227.5396" gradientTransform="matrix(1.7038 0 0 1.3133 -4659.3008 -2819.5503)">
		<stop  offset="0" style="stop-color:#E8404A"/>
		<stop  offset="1" style="stop-color:#C31262"/>
	</linearGradient>
	<path id="path1210" class="st3" d="M58.41,58.72L49.05,49L21.4,77.69c1.01,1.13,2.71,1.25,4.61,0.15L58.41,58.72"/>
	
		<linearGradient id="path1223_1_" gradientUnits="userSpaceOnUse" x1="2742.6311" y1="2151.9521" x2="2756.1746" y2="2169.5325" gradientTransform="matrix(1.7038 0 0 1.3126 -4659.3008 -2820.6421)">
		<stop  offset="0" style="stop-color:#32A071"/>
		<stop  offset="0.069" style="stop-color:#2DA771"/>
		<stop  offset="0.476" style="stop-color:#4FB26F"/>
		<stop  offset="0.801" style="stop-color:#61B668"/>
		<stop  offset="1" style="stop-color:#64B664"/>
	</linearGradient>
	<path id="path1223" class="st4" d="M58.41,39.29L26.01,20.2c-1.9-1.13-3.6-0.97-4.61,0.15L49.05,49L58.41,39.29z"/>
</g>
<g>
	<path class="st0" d="M87.51,47.7c-0.9,0-1.72-0.11-2.44-0.34c-0.72-0.23-1.41-0.62-2.07-1.19c-0.17-0.14-0.3-0.3-0.39-0.48
		c-0.09-0.18-0.14-0.36-0.14-0.54c0-0.3,0.11-0.56,0.32-0.78c0.21-0.23,0.48-0.34,0.8-0.34c0.25,0,0.47,0.08,0.66,0.23
		c0.49,0.4,0.98,0.7,1.46,0.91c0.48,0.21,1.08,0.31,1.79,0.31c0.48,0,0.92-0.07,1.32-0.22s0.72-0.35,0.97-0.6
		c0.25-0.25,0.37-0.54,0.37-0.86c0-0.39-0.12-0.72-0.35-0.99c-0.23-0.27-0.59-0.5-1.07-0.69c-0.48-0.19-1.08-0.33-1.82-0.44
		c-0.7-0.1-1.31-0.26-1.84-0.47c-0.53-0.21-0.97-0.48-1.33-0.81s-0.62-0.72-0.8-1.16c-0.18-0.45-0.27-0.95-0.27-1.5
		c0-0.84,0.22-1.56,0.65-2.15c0.43-0.59,1.02-1.05,1.75-1.36s1.55-0.46,2.44-0.46c0.84,0,1.62,0.13,2.33,0.38s1.3,0.57,1.75,0.96
		c0.38,0.3,0.56,0.64,0.56,1.03c0,0.28-0.11,0.54-0.33,0.78c-0.22,0.23-0.48,0.35-0.78,0.35c-0.19,0-0.37-0.06-0.52-0.17
		c-0.21-0.18-0.48-0.35-0.83-0.51c-0.35-0.16-0.72-0.3-1.1-0.41c-0.39-0.11-0.75-0.16-1.08-0.16c-0.56,0-1.02,0.07-1.4,0.21
		c-0.38,0.14-0.67,0.34-0.86,0.58c-0.19,0.25-0.29,0.53-0.29,0.85c0,0.39,0.11,0.71,0.34,0.96s0.55,0.45,0.98,0.6
		c0.43,0.15,0.94,0.28,1.53,0.4c0.78,0.14,1.46,0.31,2.04,0.5s1.08,0.44,1.46,0.75c0.39,0.3,0.68,0.68,0.87,1.14
		s0.29,1.02,0.29,1.68c0,0.84-0.23,1.56-0.7,2.17c-0.47,0.61-1.08,1.07-1.83,1.4C89.21,47.54,88.39,47.7,87.51,47.7z"/>
	<path class="st0" d="M109.97,33.88c0.3,0,0.58,0.11,0.85,0.34c0.27,0.23,0.41,0.53,0.41,0.92c0,0.12-0.02,0.25-0.06,0.39
		l-3.82,11.24c-0.08,0.23-0.22,0.41-0.42,0.53c-0.2,0.12-0.41,0.19-0.63,0.2c-0.22,0-0.44-0.06-0.65-0.19
		c-0.21-0.13-0.38-0.32-0.49-0.56l-2.87-6.51l0.17,0.12l-2.83,6.39c-0.12,0.25-0.28,0.43-0.49,0.56c-0.21,0.13-0.43,0.19-0.65,0.19
		c-0.21-0.01-0.41-0.08-0.62-0.2c-0.21-0.12-0.35-0.3-0.43-0.53l-3.82-11.24c-0.04-0.14-0.06-0.27-0.06-0.39
		c0-0.39,0.14-0.69,0.42-0.92c0.28-0.23,0.56-0.34,0.86-0.34c0.25,0,0.47,0.06,0.69,0.19c0.21,0.13,0.36,0.32,0.44,0.56l3.08,9.34
		l-0.43-0.02l2.75-6.61c0.1-0.23,0.25-0.42,0.45-0.55c0.19-0.14,0.41-0.2,0.66-0.18c0.25-0.01,0.46,0.05,0.66,0.18
		s0.34,0.32,0.43,0.55l2.52,6.32l-0.31,0.19l3.04-9.22c0.08-0.25,0.23-0.43,0.45-0.56C109.49,33.95,109.73,33.88,109.97,33.88z"/>
	<path class="st0" d="M114.18,33.94h6.49c0.34,0,0.62,0.11,0.84,0.32c0.23,0.21,0.34,0.49,0.34,0.82c0,0.32-0.11,0.58-0.34,0.78
		c-0.23,0.2-0.51,0.3-0.84,0.3h-5.43l0.17-0.33v3.78l-0.16-0.15h4.54c0.34,0,0.62,0.11,0.84,0.32c0.23,0.21,0.34,0.49,0.34,0.82
		c0,0.32-0.11,0.58-0.34,0.79c-0.23,0.2-0.51,0.3-0.84,0.3h-4.48l0.1-0.16v3.91l-0.16-0.17h5.41c0.34,0,0.62,0.11,0.84,0.34
		c0.23,0.23,0.34,0.49,0.34,0.78c0,0.32-0.11,0.59-0.34,0.79c-0.23,0.21-0.51,0.31-0.84,0.31h-6.49c-0.34,0-0.62-0.11-0.84-0.34
		c-0.23-0.23-0.34-0.51-0.34-0.84v-11.2c0-0.34,0.11-0.62,0.34-0.84C113.56,34.05,113.84,33.94,114.18,33.94z"/>
	<path class="st0" d="M133.57,34.6c0.34,0.17,0.53,0.43,0.59,0.79c0.06,0.36-0.04,0.69-0.28,0.99c-0.17,0.23-0.38,0.36-0.65,0.39
		c-0.27,0.03-0.53-0.03-0.8-0.16c-0.31-0.14-0.64-0.25-0.98-0.33c-0.34-0.08-0.7-0.12-1.08-0.12c-0.7,0-1.32,0.11-1.87,0.33
		c-0.55,0.22-1.02,0.53-1.4,0.94c-0.39,0.41-0.68,0.89-0.88,1.44c-0.2,0.56-0.3,1.17-0.3,1.84c0,0.79,0.11,1.47,0.34,2.05
		c0.23,0.58,0.54,1.07,0.94,1.45c0.4,0.39,0.87,0.68,1.41,0.86c0.54,0.19,1.13,0.28,1.76,0.28c0.35,0,0.7-0.03,1.05-0.1
		c0.35-0.06,0.68-0.18,1.01-0.35c0.27-0.13,0.54-0.17,0.8-0.14c0.26,0.04,0.49,0.17,0.67,0.41c0.26,0.32,0.35,0.66,0.28,1
		c-0.07,0.34-0.27,0.59-0.59,0.75c-0.34,0.17-0.68,0.31-1.04,0.42c-0.36,0.11-0.71,0.19-1.08,0.25c-0.36,0.06-0.73,0.09-1.1,0.09
		c-0.93,0-1.81-0.15-2.65-0.45c-0.83-0.3-1.58-0.74-2.23-1.32c-0.65-0.58-1.17-1.31-1.54-2.18s-0.56-1.88-0.56-3.03
		c0-0.99,0.17-1.91,0.51-2.75c0.34-0.84,0.83-1.57,1.45-2.18c0.63-0.61,1.37-1.09,2.22-1.43s1.78-0.51,2.79-0.51
		c0.57,0,1.12,0.06,1.67,0.19C132.59,34.17,133.1,34.35,133.57,34.6z"/>
	<path class="st0" d="M148.71,40.72c0,0.97-0.16,1.87-0.48,2.71c-0.32,0.84-0.78,1.58-1.37,2.22c-0.59,0.64-1.29,1.14-2.09,1.5
		c-0.81,0.36-1.69,0.54-2.65,0.54s-1.83-0.18-2.63-0.54c-0.8-0.36-1.5-0.86-2.08-1.5c-0.59-0.64-1.04-1.38-1.37-2.22
		c-0.32-0.84-0.48-1.74-0.48-2.71c0-0.97,0.16-1.87,0.48-2.71c0.32-0.84,0.78-1.58,1.37-2.22c0.59-0.64,1.28-1.14,2.08-1.5
		c0.8-0.36,1.68-0.54,2.63-0.54s1.84,0.18,2.65,0.54c0.81,0.36,1.5,0.86,2.09,1.5c0.59,0.64,1.04,1.38,1.37,2.22
		C148.55,38.85,148.71,39.75,148.71,40.72z M146.19,40.72c0-0.87-0.17-1.65-0.52-2.35c-0.35-0.7-0.83-1.26-1.43-1.68
		c-0.61-0.41-1.31-0.62-2.11-0.62s-1.5,0.21-2.11,0.62c-0.61,0.41-1.08,0.97-1.42,1.67c-0.34,0.7-0.51,1.49-0.51,2.36
		c0,0.87,0.17,1.65,0.51,2.35c0.34,0.7,0.82,1.26,1.42,1.68s1.31,0.62,2.11,0.62s1.5-0.21,2.11-0.62s1.08-0.97,1.43-1.68
		C146.01,42.37,146.19,41.59,146.19,40.72z"/>
	<path class="st0" d="M152.16,33.92c0.18,0,0.37,0.05,0.57,0.15c0.2,0.1,0.35,0.22,0.46,0.38l4.71,7.25l-0.97-0.04l4.83-7.21
		c0.25-0.35,0.56-0.52,0.95-0.52c0.31,0,0.59,0.11,0.83,0.33c0.25,0.22,0.37,0.5,0.37,0.85v11.22c0,0.34-0.11,0.62-0.33,0.84
		s-0.51,0.34-0.87,0.34c-0.36,0-0.66-0.11-0.88-0.34c-0.23-0.23-0.34-0.51-0.34-0.84V37.2l0.76,0.17l-3.95,6.03
		c-0.12,0.14-0.26,0.26-0.44,0.37s-0.35,0.15-0.53,0.14c-0.17,0.01-0.34-0.03-0.51-0.14c-0.17-0.1-0.32-0.23-0.44-0.37l-3.7-5.85
		l0.5-1.03v9.8c0,0.34-0.1,0.62-0.31,0.84c-0.21,0.23-0.48,0.34-0.81,0.34c-0.32,0-0.59-0.11-0.79-0.34
		c-0.21-0.23-0.31-0.51-0.31-0.84V35.1c0-0.32,0.12-0.6,0.36-0.83C151.53,34.04,151.82,33.92,152.16,33.92z"/>
	<path class="st0" d="M177.21,36.98l-4.19,9.84c-0.09,0.25-0.23,0.44-0.42,0.57s-0.39,0.2-0.61,0.2c-0.35,0-0.61-0.1-0.78-0.29
		s-0.25-0.43-0.25-0.72c0-0.12,0.02-0.24,0.06-0.37l4.83-11.59c0.1-0.26,0.26-0.46,0.47-0.6c0.21-0.14,0.44-0.2,0.69-0.17
		c0.23,0,0.45,0.07,0.65,0.2s0.35,0.33,0.44,0.57l4.77,11.36c0.06,0.17,0.1,0.32,0.1,0.46c0,0.35-0.11,0.63-0.34,0.83
		c-0.23,0.21-0.48,0.31-0.75,0.31c-0.23,0-0.44-0.07-0.63-0.21c-0.19-0.14-0.33-0.34-0.44-0.58l-4.17-9.71L177.21,36.98z
		 M173.63,44.46l1.07-2.23h5.23l0.37,2.23H173.63z"/>
	<path class="st0" d="M189.79,36.94c0.9,0,1.71,0.23,2.43,0.69s1.29,1.09,1.71,1.89c0.42,0.8,0.63,1.73,0.63,2.79
		s-0.21,1.99-0.63,2.8c-0.42,0.81-0.98,1.44-1.69,1.9s-1.5,0.69-2.37,0.69c-0.52,0-1-0.08-1.45-0.25c-0.45-0.17-0.85-0.38-1.19-0.64
		c-0.34-0.26-0.61-0.52-0.79-0.78c-0.19-0.26-0.28-0.49-0.28-0.67l0.6-0.25v5.1c0,0.34-0.11,0.62-0.33,0.84
		c-0.22,0.23-0.5,0.34-0.83,0.34s-0.61-0.11-0.83-0.33c-0.22-0.22-0.33-0.5-0.33-0.85V38.32c0-0.34,0.11-0.62,0.33-0.84
		c0.22-0.23,0.5-0.34,0.83-0.34s0.61,0.11,0.83,0.34c0.22,0.23,0.33,0.51,0.33,0.84v0.95l-0.33-0.17c0-0.17,0.09-0.37,0.27-0.61
		c0.18-0.24,0.43-0.48,0.74-0.72c0.31-0.24,0.67-0.44,1.08-0.59C188.9,37.02,189.33,36.94,189.79,36.94z M189.5,39.08
		c-0.57,0-1.07,0.14-1.49,0.43c-0.43,0.28-0.76,0.67-1,1.15c-0.24,0.48-0.36,1.04-0.36,1.66c0,0.61,0.12,1.16,0.36,1.66
		c0.24,0.5,0.57,0.89,1,1.17c0.43,0.28,0.92,0.43,1.49,0.43s1.06-0.14,1.48-0.43c0.42-0.28,0.75-0.67,0.99-1.17
		c0.24-0.5,0.36-1.05,0.36-1.66c0-0.62-0.12-1.17-0.36-1.66c-0.24-0.48-0.57-0.87-0.99-1.15C190.56,39.22,190.06,39.08,189.5,39.08z
		"/>
	<path class="st0" d="M201.96,36.94c0.9,0,1.71,0.23,2.43,0.69s1.29,1.09,1.71,1.89c0.42,0.8,0.63,1.73,0.63,2.79
		s-0.21,1.99-0.63,2.8c-0.42,0.81-0.98,1.44-1.69,1.9s-1.5,0.69-2.37,0.69c-0.52,0-1-0.08-1.45-0.25c-0.45-0.17-0.85-0.38-1.19-0.64
		c-0.34-0.26-0.61-0.52-0.79-0.78c-0.19-0.26-0.28-0.49-0.28-0.67l0.6-0.25v5.1c0,0.34-0.11,0.62-0.33,0.84
		c-0.22,0.23-0.5,0.34-0.83,0.34s-0.61-0.11-0.83-0.33c-0.22-0.22-0.33-0.5-0.33-0.85V38.32c0-0.34,0.11-0.62,0.33-0.84
		c0.22-0.23,0.5-0.34,0.83-0.34s0.61,0.11,0.83,0.34c0.22,0.23,0.33,0.51,0.33,0.84v0.95l-0.33-0.17c0-0.17,0.09-0.37,0.27-0.61
		c0.18-0.24,0.43-0.48,0.74-0.72c0.31-0.24,0.67-0.44,1.08-0.59C201.07,37.02,201.5,36.94,201.96,36.94z M201.66,39.08
		c-0.57,0-1.07,0.14-1.49,0.43c-0.43,0.28-0.76,0.67-1,1.15c-0.24,0.48-0.36,1.04-0.36,1.66c0,0.61,0.12,1.16,0.36,1.66
		c0.24,0.5,0.57,0.89,1,1.17c0.43,0.28,0.92,0.43,1.49,0.43s1.06-0.14,1.48-0.43c0.42-0.28,0.75-0.67,0.99-1.17
		c0.24-0.5,0.36-1.05,0.36-1.66c0-0.62-0.12-1.17-0.36-1.66c-0.24-0.48-0.57-0.87-0.99-1.15C202.73,39.22,202.23,39.08,201.66,39.08
		z"/>
	<path class="st0" d="M208.16,45.9c-0.13-0.18-0.19-0.41-0.17-0.7s0.18-0.53,0.5-0.74c0.21-0.13,0.43-0.18,0.66-0.17
		c0.23,0.02,0.46,0.14,0.68,0.36c0.38,0.38,0.77,0.67,1.18,0.87c0.41,0.21,0.93,0.31,1.55,0.31c0.19-0.01,0.41-0.04,0.64-0.09
		s0.44-0.15,0.61-0.31c0.17-0.16,0.26-0.41,0.26-0.75c0-0.28-0.1-0.51-0.29-0.68c-0.19-0.17-0.45-0.31-0.77-0.43
		s-0.67-0.23-1.06-0.33c-0.4-0.12-0.81-0.25-1.23-0.39c-0.42-0.14-0.8-0.33-1.15-0.55c-0.35-0.23-0.63-0.53-0.85-0.9
		c-0.22-0.37-0.33-0.85-0.33-1.41c0-0.65,0.18-1.19,0.54-1.65c0.36-0.45,0.83-0.8,1.41-1.05c0.57-0.25,1.18-0.37,1.81-0.37
		c0.4,0,0.82,0.05,1.26,0.15c0.44,0.1,0.86,0.25,1.26,0.46c0.4,0.21,0.74,0.49,1.01,0.84c0.14,0.19,0.23,0.43,0.25,0.7
		c0.03,0.27-0.1,0.52-0.37,0.74c-0.19,0.15-0.42,0.22-0.68,0.2c-0.26-0.02-0.47-0.11-0.64-0.26c-0.22-0.28-0.51-0.51-0.88-0.68
		s-0.79-0.25-1.27-0.25c-0.19,0-0.4,0.02-0.63,0.07c-0.23,0.05-0.42,0.14-0.59,0.29c-0.17,0.15-0.25,0.38-0.25,0.71
		c0,0.3,0.1,0.53,0.29,0.71c0.19,0.17,0.46,0.32,0.79,0.43c0.33,0.11,0.68,0.22,1.06,0.32c0.39,0.1,0.78,0.23,1.18,0.37
		c0.4,0.14,0.77,0.33,1.1,0.56c0.33,0.23,0.61,0.53,0.81,0.9c0.21,0.37,0.31,0.84,0.31,1.4c0,0.66-0.19,1.22-0.58,1.69
		c-0.39,0.46-0.87,0.82-1.45,1.06c-0.58,0.24-1.18,0.36-1.78,0.36c-0.76,0-1.52-0.13-2.29-0.4
		C209.29,47.04,208.66,46.57,208.16,45.9z"/>
	<path class="st0" d="M86.32,54.59l-3.42,8.5c-0.04,0.09-0.09,0.16-0.15,0.21c-0.07,0.05-0.14,0.07-0.23,0.07
		c-0.14,0-0.24-0.04-0.31-0.11c-0.07-0.07-0.1-0.16-0.1-0.26c-0.01-0.05,0-0.1,0.01-0.17l3.72-9.1c0.04-0.1,0.09-0.18,0.16-0.22
		s0.15-0.06,0.25-0.06c0.1,0,0.19,0.03,0.26,0.08c0.07,0.05,0.12,0.12,0.16,0.2l3.71,9.06c0.02,0.06,0.03,0.11,0.03,0.17
		c0,0.13-0.04,0.23-0.13,0.3c-0.08,0.07-0.18,0.11-0.3,0.11c-0.09,0-0.18-0.03-0.25-0.08c-0.07-0.05-0.12-0.12-0.16-0.2l-3.51-8.57
		L86.32,54.59z M83.72,60.51l0.35-0.83h4.37l0.17,0.83H83.72z"/>
	<path class="st0" d="M95.34,56.1c0.64,0,1.21,0.16,1.7,0.47c0.49,0.31,0.89,0.75,1.18,1.3s0.44,1.18,0.44,1.9s-0.15,1.35-0.44,1.9
		c-0.29,0.55-0.69,0.99-1.18,1.31c-0.5,0.32-1.06,0.48-1.68,0.48c-0.33,0-0.64-0.05-0.94-0.15c-0.3-0.1-0.57-0.23-0.81-0.4
		c-0.24-0.17-0.46-0.37-0.65-0.6c-0.19-0.23-0.34-0.48-0.45-0.74l0.25-0.2v4.38c0,0.11-0.04,0.21-0.12,0.3
		c-0.08,0.08-0.18,0.13-0.3,0.13s-0.23-0.04-0.31-0.13c-0.08-0.08-0.13-0.18-0.13-0.3v-9.19c0-0.12,0.04-0.23,0.12-0.31
		c0.08-0.08,0.19-0.13,0.32-0.13c0.12,0,0.22,0.04,0.3,0.13c0.08,0.08,0.12,0.19,0.12,0.31v1.52l-0.2-0.11
		c0.09-0.29,0.23-0.55,0.42-0.78c0.18-0.23,0.4-0.43,0.64-0.59c0.24-0.16,0.51-0.29,0.8-0.37C94.72,56.14,95.02,56.1,95.34,56.1z
		 M95.27,56.89c-0.51,0-0.95,0.12-1.34,0.37s-0.69,0.59-0.91,1.01c-0.22,0.43-0.33,0.92-0.33,1.49c0,0.55,0.11,1.05,0.33,1.49
		c0.22,0.44,0.52,0.79,0.91,1.04c0.39,0.25,0.83,0.37,1.34,0.37c0.5,0,0.94-0.12,1.32-0.37c0.38-0.25,0.68-0.59,0.9-1.04
		c0.22-0.44,0.33-0.94,0.33-1.49c0-0.55-0.11-1.05-0.33-1.48c-0.22-0.43-0.52-0.77-0.9-1.02C96.21,57.02,95.77,56.89,95.27,56.89z"
		/>
	<path class="st0" d="M103.88,56.1c0.64,0,1.21,0.16,1.7,0.47c0.49,0.31,0.89,0.75,1.18,1.3s0.44,1.18,0.44,1.9s-0.15,1.35-0.44,1.9
		c-0.29,0.55-0.69,0.99-1.18,1.31c-0.5,0.32-1.06,0.48-1.68,0.48c-0.33,0-0.64-0.05-0.94-0.15c-0.3-0.1-0.57-0.23-0.81-0.4
		c-0.24-0.17-0.46-0.37-0.65-0.6c-0.19-0.23-0.34-0.48-0.45-0.74l0.25-0.2v4.38c0,0.11-0.04,0.21-0.12,0.3
		c-0.08,0.08-0.18,0.13-0.3,0.13s-0.23-0.04-0.31-0.13c-0.08-0.08-0.13-0.18-0.13-0.3v-9.19c0-0.12,0.04-0.23,0.12-0.31
		c0.08-0.08,0.19-0.13,0.32-0.13c0.12,0,0.22,0.04,0.3,0.13c0.08,0.08,0.12,0.19,0.12,0.31v1.52l-0.2-0.11
		c0.09-0.29,0.23-0.55,0.42-0.78c0.18-0.23,0.4-0.43,0.64-0.59c0.24-0.16,0.51-0.29,0.8-0.37C103.26,56.14,103.56,56.1,103.88,56.1z
		 M103.81,56.89c-0.51,0-0.95,0.12-1.34,0.37s-0.69,0.59-0.91,1.01c-0.22,0.43-0.33,0.92-0.33,1.49c0,0.55,0.11,1.05,0.33,1.49
		c0.22,0.44,0.52,0.79,0.91,1.04c0.39,0.25,0.83,0.37,1.34,0.37c0.5,0,0.94-0.12,1.32-0.37c0.38-0.25,0.68-0.59,0.9-1.04
		c0.22-0.44,0.33-0.94,0.33-1.49c0-0.55-0.11-1.05-0.33-1.48c-0.22-0.43-0.52-0.77-0.9-1.02C104.75,57.02,104.31,56.89,103.81,56.89
		z"/>
	<path class="st0" d="M109.93,62.94c0,0.11-0.04,0.21-0.13,0.3c-0.08,0.08-0.18,0.13-0.3,0.13c-0.12,0-0.22-0.04-0.3-0.13
		c-0.08-0.08-0.12-0.18-0.12-0.3v-9.58c0-0.11,0.04-0.21,0.13-0.3c0.08-0.08,0.18-0.13,0.3-0.13c0.12,0,0.22,0.04,0.3,0.13
		c0.08,0.08,0.12,0.18,0.12,0.3V62.94z"/>
	<path class="st0" d="M112.63,55.09c-0.2,0-0.35-0.04-0.44-0.13c-0.1-0.09-0.15-0.22-0.15-0.39v-0.14c0-0.17,0.05-0.3,0.16-0.39
		c0.11-0.09,0.26-0.13,0.44-0.13c0.18,0,0.32,0.04,0.42,0.13c0.1,0.09,0.15,0.22,0.15,0.39v0.14c0,0.17-0.05,0.3-0.15,0.39
		C112.97,55.04,112.82,55.09,112.63,55.09z M113.06,62.94c0,0.11-0.04,0.21-0.13,0.3c-0.08,0.08-0.18,0.13-0.3,0.13
		c-0.13,0-0.23-0.04-0.31-0.13c-0.08-0.08-0.11-0.18-0.11-0.3v-6.48c0-0.11,0.04-0.21,0.12-0.3c0.08-0.08,0.18-0.13,0.3-0.13
		s0.22,0.04,0.3,0.13c0.08,0.08,0.12,0.18,0.12,0.3V62.94z"/>
	<path class="st0" d="M118.43,55.99c0.45,0,0.87,0.05,1.24,0.15c0.38,0.1,0.68,0.23,0.91,0.4c0.23,0.17,0.34,0.35,0.34,0.55
		c0,0.09-0.03,0.19-0.1,0.28c-0.07,0.09-0.16,0.13-0.27,0.13c-0.12,0-0.22-0.03-0.29-0.08c-0.07-0.05-0.14-0.12-0.21-0.2
		c-0.07-0.08-0.16-0.15-0.29-0.2c-0.12-0.07-0.3-0.12-0.53-0.16c-0.23-0.04-0.49-0.06-0.77-0.06c-0.53,0-1,0.13-1.42,0.39
		c-0.42,0.26-0.76,0.62-1,1.06s-0.37,0.94-0.37,1.49c0,0.56,0.12,1.07,0.35,1.52c0.23,0.45,0.56,0.81,0.97,1.06
		c0.41,0.26,0.9,0.39,1.45,0.39c0.37,0,0.65-0.03,0.87-0.1c0.21-0.07,0.39-0.14,0.53-0.23c0.19-0.1,0.32-0.2,0.4-0.3
		c0.08-0.1,0.19-0.15,0.32-0.15c0.12,0,0.21,0.04,0.28,0.11c0.06,0.07,0.09,0.16,0.09,0.27c0,0.15-0.11,0.32-0.33,0.5
		c-0.22,0.18-0.52,0.34-0.91,0.48c-0.39,0.14-0.83,0.2-1.34,0.2c-0.7,0-1.31-0.16-1.84-0.49c-0.53-0.33-0.95-0.78-1.24-1.35
		c-0.3-0.57-0.45-1.21-0.45-1.92c0-0.69,0.15-1.31,0.45-1.87s0.72-1.02,1.25-1.36C117.07,56.16,117.7,55.99,118.43,55.99z"/>
	<path class="st0" d="M128.46,56.16c0.12,0,0.22,0.04,0.3,0.13c0.08,0.08,0.12,0.19,0.12,0.31v6.34c0,0.11-0.04,0.21-0.13,0.3
		c-0.08,0.08-0.18,0.13-0.3,0.13c-0.13,0-0.24-0.04-0.31-0.13c-0.08-0.08-0.11-0.18-0.11-0.3v-1.68l0.24-0.1
		c0,0.25-0.07,0.52-0.22,0.8s-0.34,0.53-0.6,0.76c-0.25,0.23-0.55,0.42-0.89,0.56c-0.34,0.15-0.71,0.22-1.11,0.22
		c-0.64,0-1.21-0.16-1.71-0.49c-0.5-0.33-0.9-0.78-1.18-1.35c-0.29-0.57-0.43-1.22-0.43-1.93c0-0.73,0.15-1.38,0.44-1.94
		c0.29-0.56,0.69-1,1.18-1.32c0.5-0.32,1.06-0.48,1.68-0.48c0.4,0,0.78,0.07,1.13,0.21c0.35,0.14,0.66,0.33,0.92,0.58
		c0.26,0.24,0.47,0.52,0.62,0.84c0.15,0.32,0.23,0.64,0.23,0.98l-0.3-0.21V56.6c0-0.12,0.04-0.23,0.11-0.31
		C128.22,56.2,128.33,56.16,128.46,56.16z M125.53,62.71c0.5,0,0.94-0.13,1.32-0.39c0.39-0.26,0.69-0.62,0.91-1.07
		c0.22-0.46,0.33-0.97,0.33-1.53c0-0.54-0.11-1.04-0.33-1.49c-0.22-0.45-0.52-0.8-0.91-1.06c-0.38-0.26-0.83-0.39-1.32-0.39
		c-0.49,0-0.93,0.12-1.32,0.37c-0.39,0.25-0.7,0.59-0.92,1.04c-0.22,0.44-0.33,0.95-0.33,1.52c0,0.56,0.11,1.07,0.33,1.53
		c0.22,0.46,0.52,0.81,0.91,1.07C124.59,62.58,125.03,62.71,125.53,62.71z"/>
	<path class="st0" d="M130.63,56.19h3.28c0.11,0,0.21,0.04,0.28,0.12c0.08,0.08,0.11,0.18,0.11,0.29c0,0.11-0.04,0.21-0.11,0.28
		s-0.17,0.11-0.28,0.11h-3.28c-0.11,0-0.21-0.04-0.29-0.12c-0.08-0.08-0.12-0.18-0.12-0.29c0-0.11,0.04-0.21,0.12-0.28
		S130.52,56.19,130.63,56.19z M132.08,54.2c0.12,0,0.22,0.04,0.3,0.13c0.08,0.08,0.12,0.18,0.12,0.3v7.07
		c0,0.26,0.04,0.46,0.11,0.59c0.07,0.13,0.16,0.22,0.28,0.26c0.11,0.04,0.23,0.06,0.34,0.06c0.08,0,0.14-0.01,0.2-0.04
		c0.06-0.02,0.13-0.04,0.21-0.04c0.08,0,0.16,0.03,0.22,0.1c0.06,0.07,0.09,0.15,0.09,0.25c0,0.13-0.08,0.24-0.23,0.33
		s-0.33,0.13-0.54,0.13c-0.08,0-0.21-0.01-0.38-0.02c-0.17-0.01-0.34-0.07-0.52-0.15c-0.18-0.09-0.33-0.25-0.45-0.47
		s-0.18-0.55-0.18-0.97v-7.12c0-0.11,0.04-0.21,0.13-0.3C131.86,54.24,131.96,54.2,132.08,54.2z"/>
	<path class="st0" d="M136.27,55.09c-0.2,0-0.34-0.04-0.44-0.13c-0.1-0.09-0.15-0.22-0.15-0.39v-0.14c0-0.17,0.05-0.3,0.16-0.39
		c0.11-0.09,0.26-0.13,0.44-0.13c0.18,0,0.32,0.04,0.42,0.13c0.1,0.09,0.15,0.22,0.15,0.39v0.14c0,0.17-0.05,0.3-0.15,0.39
		C136.6,55.04,136.45,55.09,136.27,55.09z M136.69,62.94c0,0.11-0.04,0.21-0.13,0.3c-0.08,0.08-0.18,0.13-0.3,0.13
		c-0.13,0-0.23-0.04-0.31-0.13c-0.08-0.08-0.11-0.18-0.11-0.3v-6.48c0-0.11,0.04-0.21,0.12-0.3c0.08-0.08,0.18-0.13,0.3-0.13
		s0.22,0.04,0.3,0.13c0.08,0.08,0.12,0.18,0.12,0.3V62.94z"/>
	<path class="st0" d="M145.6,59.75c0,0.71-0.16,1.36-0.46,1.92c-0.31,0.57-0.73,1.01-1.27,1.34c-0.54,0.32-1.15,0.49-1.83,0.49
		c-0.67,0-1.27-0.16-1.81-0.49c-0.54-0.32-0.97-0.77-1.28-1.34c-0.32-0.57-0.47-1.21-0.47-1.92c0-0.72,0.16-1.37,0.47-1.93
		c0.31-0.56,0.74-1.01,1.28-1.34c0.54-0.33,1.14-0.49,1.81-0.49c0.69,0,1.3,0.16,1.83,0.49s0.96,0.77,1.27,1.34
		C145.44,58.39,145.6,59.03,145.6,59.75z M144.75,59.75c0-0.57-0.12-1.08-0.35-1.53c-0.23-0.45-0.56-0.8-0.96-1.05
		c-0.41-0.25-0.88-0.38-1.4-0.38c-0.51,0-0.97,0.13-1.38,0.38c-0.41,0.25-0.74,0.6-0.98,1.05s-0.36,0.96-0.36,1.53
		s0.12,1.08,0.36,1.52c0.24,0.44,0.57,0.79,0.98,1.05c0.41,0.26,0.87,0.39,1.38,0.39c0.53,0,0.99-0.13,1.4-0.39
		c0.41-0.26,0.73-0.61,0.96-1.05C144.63,60.83,144.75,60.33,144.75,59.75z"/>
	<path class="st0" d="M150.8,55.99c0.62,0,1.12,0.12,1.49,0.37s0.64,0.59,0.8,1.01c0.16,0.43,0.25,0.9,0.25,1.42v4.14
		c0,0.11-0.04,0.21-0.13,0.3c-0.08,0.08-0.18,0.13-0.3,0.13c-0.13,0-0.24-0.04-0.32-0.13c-0.08-0.08-0.12-0.18-0.12-0.3v-4.1
		c0-0.38-0.06-0.72-0.18-1.03c-0.12-0.31-0.32-0.56-0.59-0.74c-0.27-0.18-0.63-0.28-1.08-0.28c-0.4,0-0.79,0.09-1.15,0.28
		c-0.36,0.18-0.66,0.43-0.88,0.74c-0.23,0.31-0.34,0.65-0.34,1.03v4.1c0,0.11-0.04,0.21-0.13,0.3c-0.08,0.08-0.18,0.13-0.3,0.13
		c-0.13,0-0.24-0.04-0.32-0.13c-0.08-0.08-0.12-0.18-0.12-0.3v-6.31c0-0.11,0.04-0.21,0.13-0.3c0.08-0.08,0.19-0.13,0.31-0.13
		s0.22,0.04,0.3,0.13s0.12,0.18,0.12,0.3v1.18l-0.32,0.51c0.02-0.3,0.12-0.59,0.29-0.87c0.17-0.28,0.4-0.53,0.67-0.75
		c0.27-0.22,0.58-0.39,0.91-0.52C150.12,56.05,150.46,55.99,150.8,55.99z"/>
	<path class="st0" d="M162.9,54.59l-3.42,8.5c-0.04,0.09-0.09,0.16-0.16,0.21c-0.07,0.05-0.14,0.07-0.23,0.07
		c-0.14,0-0.24-0.04-0.31-0.11c-0.07-0.07-0.1-0.16-0.1-0.26c-0.01-0.05,0-0.1,0.01-0.17l3.72-9.1c0.04-0.1,0.09-0.18,0.16-0.22
		c0.07-0.04,0.15-0.06,0.25-0.06c0.1,0,0.19,0.03,0.26,0.08s0.12,0.12,0.16,0.2l3.71,9.06c0.02,0.06,0.03,0.11,0.03,0.17
		c0,0.13-0.04,0.23-0.13,0.3c-0.08,0.07-0.18,0.11-0.3,0.11c-0.09,0-0.18-0.03-0.25-0.08s-0.12-0.12-0.16-0.2l-3.51-8.57
		L162.9,54.59z M160.29,60.51l0.35-0.83h4.37l0.17,0.83H160.29z"/>
	<path class="st0" d="M171.89,55.99c0.62,0,1.12,0.12,1.49,0.37s0.64,0.59,0.8,1.01c0.16,0.43,0.25,0.9,0.25,1.42v4.14
		c0,0.11-0.04,0.21-0.13,0.3c-0.08,0.08-0.18,0.13-0.3,0.13c-0.13,0-0.24-0.04-0.32-0.13c-0.08-0.08-0.12-0.18-0.12-0.3v-4.1
		c0-0.38-0.06-0.72-0.18-1.03c-0.12-0.31-0.32-0.56-0.59-0.74c-0.27-0.18-0.63-0.28-1.08-0.28c-0.4,0-0.79,0.09-1.15,0.28
		c-0.36,0.18-0.66,0.43-0.88,0.74c-0.23,0.31-0.34,0.65-0.34,1.03v4.1c0,0.11-0.04,0.21-0.13,0.3c-0.08,0.08-0.18,0.13-0.3,0.13
		c-0.13,0-0.24-0.04-0.32-0.13c-0.08-0.08-0.12-0.18-0.12-0.3v-6.31c0-0.11,0.04-0.21,0.13-0.3c0.08-0.08,0.19-0.13,0.31-0.13
		s0.22,0.04,0.3,0.13s0.12,0.18,0.12,0.3v1.18l-0.32,0.51c0.02-0.3,0.12-0.59,0.29-0.87c0.17-0.28,0.4-0.53,0.67-0.75
		c0.27-0.22,0.58-0.39,0.91-0.52C171.22,56.05,171.55,55.99,171.89,55.99z"/>
	<path class="st0" d="M182.55,52.93c0.12,0,0.22,0.04,0.3,0.13c0.08,0.08,0.12,0.18,0.12,0.3v9.58c0,0.11-0.04,0.21-0.13,0.3
		c-0.08,0.08-0.18,0.13-0.3,0.13c-0.13,0-0.24-0.04-0.31-0.13c-0.08-0.08-0.11-0.18-0.11-0.3v-1.68l0.24-0.2
		c0,0.27-0.07,0.55-0.21,0.84c-0.14,0.29-0.34,0.55-0.6,0.79c-0.26,0.24-0.56,0.43-0.9,0.58c-0.34,0.15-0.71,0.23-1.11,0.23
		c-0.63,0-1.2-0.16-1.7-0.49c-0.5-0.33-0.9-0.77-1.19-1.34c-0.29-0.56-0.44-1.21-0.44-1.93c0-0.71,0.15-1.35,0.44-1.92
		c0.29-0.57,0.69-1.02,1.18-1.34c0.5-0.32,1.06-0.49,1.68-0.49c0.39,0,0.77,0.07,1.11,0.21s0.66,0.33,0.92,0.58s0.48,0.52,0.63,0.84
		c0.15,0.32,0.23,0.64,0.23,0.98l-0.3-0.21v-5.03c0-0.11,0.04-0.21,0.11-0.3C182.31,52.97,182.41,52.93,182.55,52.93z M179.61,62.71
		c0.51,0,0.95-0.13,1.33-0.39c0.38-0.26,0.68-0.61,0.9-1.06s0.33-0.96,0.33-1.53c0-0.56-0.11-1.07-0.33-1.51s-0.52-0.8-0.91-1.05
		c-0.38-0.25-0.83-0.38-1.32-0.38c-0.49,0-0.93,0.13-1.32,0.38c-0.39,0.25-0.7,0.6-0.92,1.05c-0.22,0.45-0.33,0.95-0.33,1.51
		c0,0.56,0.11,1.07,0.33,1.52c0.22,0.45,0.53,0.81,0.92,1.06C178.69,62.58,179.13,62.71,179.61,62.71z"/>
	<path class="st0" d="M185.6,63.36c-0.13,0-0.24-0.04-0.32-0.13c-0.08-0.08-0.12-0.18-0.12-0.3v-6.31c0-0.11,0.04-0.21,0.13-0.3
		c0.08-0.08,0.19-0.13,0.31-0.13s0.22,0.04,0.3,0.13s0.12,0.18,0.12,0.3v2.11l-0.21,0.04c0.03-0.33,0.11-0.66,0.25-0.98
		c0.14-0.32,0.32-0.62,0.56-0.89c0.23-0.27,0.51-0.49,0.84-0.66c0.32-0.17,0.69-0.25,1.09-0.25c0.17,0,0.33,0.04,0.49,0.11
		s0.24,0.19,0.24,0.35c0,0.14-0.04,0.25-0.11,0.32c-0.08,0.08-0.17,0.11-0.27,0.11c-0.08,0-0.18-0.02-0.28-0.07
		s-0.23-0.07-0.39-0.07c-0.26,0-0.53,0.08-0.79,0.23c-0.26,0.15-0.5,0.36-0.72,0.63c-0.22,0.26-0.39,0.56-0.51,0.88
		s-0.19,0.65-0.19,0.98v3.48c0,0.11-0.04,0.21-0.13,0.3C185.81,63.32,185.72,63.36,185.6,63.36z"/>
	<path class="st0" d="M197,59.75c0,0.71-0.16,1.36-0.46,1.92c-0.31,0.57-0.73,1.01-1.27,1.34c-0.54,0.32-1.15,0.49-1.83,0.49
		c-0.67,0-1.27-0.16-1.81-0.49c-0.54-0.32-0.97-0.77-1.28-1.34c-0.32-0.57-0.47-1.21-0.47-1.92c0-0.72,0.16-1.37,0.47-1.93
		c0.31-0.56,0.74-1.01,1.28-1.34c0.54-0.33,1.14-0.49,1.81-0.49c0.69,0,1.3,0.16,1.83,0.49s0.96,0.77,1.27,1.34
		C196.85,58.39,197,59.03,197,59.75z M196.16,59.75c0-0.57-0.12-1.08-0.35-1.53c-0.23-0.45-0.56-0.8-0.96-1.05
		c-0.41-0.25-0.88-0.38-1.4-0.38c-0.51,0-0.97,0.13-1.38,0.38c-0.41,0.25-0.74,0.6-0.98,1.05s-0.36,0.96-0.36,1.53
		s0.12,1.08,0.36,1.52c0.24,0.44,0.57,0.79,0.98,1.05c0.41,0.26,0.87,0.39,1.38,0.39c0.53,0,0.99-0.13,1.4-0.39
		c0.41-0.26,0.73-0.61,0.96-1.05C196.04,60.83,196.16,60.33,196.16,59.75z"/>
	<path class="st0" d="M199.2,55.09c-0.2,0-0.34-0.04-0.44-0.13c-0.1-0.09-0.15-0.22-0.15-0.39v-0.14c0-0.17,0.05-0.3,0.16-0.39
		c0.11-0.09,0.26-0.13,0.44-0.13c0.18,0,0.32,0.04,0.42,0.13c0.1,0.09,0.15,0.22,0.15,0.39v0.14c0,0.17-0.05,0.3-0.15,0.39
		C199.53,55.04,199.39,55.09,199.2,55.09z M199.63,62.94c0,0.11-0.04,0.21-0.13,0.3c-0.08,0.08-0.18,0.13-0.3,0.13
		c-0.13,0-0.23-0.04-0.31-0.13c-0.08-0.08-0.11-0.18-0.11-0.3v-6.48c0-0.11,0.04-0.21,0.12-0.3c0.08-0.08,0.18-0.13,0.3-0.13
		s0.22,0.04,0.3,0.13c0.08,0.08,0.12,0.18,0.12,0.3V62.94z"/>
	<path class="st0" d="M207.73,52.93c0.12,0,0.22,0.04,0.3,0.13c0.08,0.08,0.12,0.18,0.12,0.3v9.58c0,0.11-0.04,0.21-0.13,0.3
		c-0.08,0.08-0.18,0.13-0.3,0.13c-0.13,0-0.24-0.04-0.31-0.13c-0.08-0.08-0.11-0.18-0.11-0.3v-1.68l0.24-0.2
		c0,0.27-0.07,0.55-0.21,0.84c-0.14,0.29-0.34,0.55-0.6,0.79c-0.26,0.24-0.56,0.43-0.9,0.58c-0.34,0.15-0.71,0.23-1.11,0.23
		c-0.63,0-1.2-0.16-1.7-0.49c-0.5-0.33-0.9-0.77-1.19-1.34c-0.29-0.56-0.44-1.21-0.44-1.93c0-0.71,0.15-1.35,0.44-1.92
		c0.29-0.57,0.69-1.02,1.18-1.34c0.5-0.32,1.06-0.49,1.68-0.49c0.39,0,0.77,0.07,1.11,0.21s0.66,0.33,0.92,0.58s0.48,0.52,0.63,0.84
		c0.15,0.32,0.23,0.64,0.23,0.98l-0.3-0.21v-5.03c0-0.11,0.04-0.21,0.11-0.3C207.49,52.97,207.6,52.93,207.73,52.93z M204.8,62.71
		c0.51,0,0.95-0.13,1.33-0.39c0.38-0.26,0.68-0.61,0.9-1.06s0.33-0.96,0.33-1.53c0-0.56-0.11-1.07-0.33-1.51s-0.52-0.8-0.91-1.05
		c-0.38-0.25-0.83-0.38-1.32-0.38c-0.49,0-0.93,0.13-1.32,0.38c-0.39,0.25-0.7,0.6-0.92,1.05c-0.22,0.45-0.33,0.95-0.33,1.51
		c0,0.56,0.11,1.07,0.33,1.52c0.22,0.45,0.53,0.81,0.92,1.06C203.87,62.58,204.31,62.71,204.8,62.71z"/>
</g>
</svg>
