<svg xmlns="http://www.w3.org/2000/svg" xmlns:xlink="http://www.w3.org/1999/xlink" id="Calque_1" x="0px" y="0px" viewBox="0 0 70.4 45" style="enable-background:new 0 0 70.4 45;" xml:space="preserve"><style type="text/css">	.st0{display:none;}	.st1{display:inline;fill:#1A2446;}	.st2{display:none;fill:#1A2446;}	.st3{fill:#1A2446;}</style><g class="st0">	<path class="st1" d="M50.7,15.9c-1.8-2.4-3.6-4.8-5.5-7.1c-1.2-1.5-3.6-1.5-4.7,0c-1.9,2.3-3.7,4.7-5.5,7.1  c-1.3,1.8-0.3,4.3,1.8,4.8c0.5,0.1,0.9,0.1,1.4,0.1c0.3,0,0.4,0.1,0.4,0.4c0,1.6,0,3.3,0,4.9c0,1.6,0,3.2,0,4.8  c0,1.5,0.9,2.5,2.4,2.5c1.2,0,2.5,0,3.7,0c0.2,0,0.5,0,0.7-0.1c1-0.3,1.7-1.1,1.7-2.3c0-1.9,0-3.9,0-5.8c0-1.4,0-2.7,0-4.1  c0-0.3,0.1-0.4,0.3-0.3c0.3,0,0.6,0,0.9,0c1.2-0.1,2.1-0.7,2.6-1.8C51.5,17.9,51.4,16.8,50.7,15.9z"></path>	<path class="st1" d="M34.1,25.3c-0.5-0.1-0.9-0.1-1.4-0.1c-0.3,0-0.4,0-0.4-0.4c0-1.7,0-3.4,0-5.1c0-1.6,0-3.3,0-4.9  c0-1.2-1-2.2-2.2-2.2c-1.3,0-2.7,0-4,0s-2.3,0.9-2.3,2.3c0,2.1,0,4.2,0,6.2c0,1.2,0,2.5,0,3.7c0,0.3-0.1,0.4-0.4,0.3  c-0.3,0-0.6,0-0.9,0c-1.7,0-3.1,1.7-3,3.4c0.1,0.8,0.5,1.5,1,2.1c1.6,2.1,3.3,4.2,4.9,6.3c1.4,1.8,3.7,1.9,5.1,0.1  c1.8-2.3,3.6-4.6,5.4-7C37.3,28.4,36.3,25.8,34.1,25.3z"></path>	<path class="st1" d="M25.3,10.8c1.8,0,3.6,0,5.3,0c0.9,0,1.6-0.7,1.6-1.6c0-0.9-0.7-1.6-1.6-1.6c-0.9,0-1.8,0-2.7,0s-1.8,0-2.7,0  s-1.6,0.7-1.6,1.6C23.7,10.1,24.4,10.8,25.3,10.8z"></path>	<path class="st1" d="M45.4,35.3c-0.9,0-1.8,0-2.6,0c-0.9,0-1.8,0-2.7,0c-0.9,0-1.6,0.7-1.6,1.5c0,0.9,0.7,1.6,1.6,1.6  c1.8,0,3.6,0,5.3,0c0.9,0,1.6-0.7,1.6-1.5C47,36,46.3,35.3,45.4,35.3z"></path></g><g class="st0">	<path class="st1" d="M68.2,20.2c0-0.3,0-0.6-0.1-0.8c-0.7-3.6-3.4-5.9-7.1-5.9c-0.8,0-1.7,0-2.5,0c0,0,0,0-0.1,0h-4  c-0.7,0-1.3,0-2,0c-0.1,0-0.2,0-0.3,0h-3.5c-0.1,0-0.2,0-0.3,0c-0.8,0-1.6,0-2.5,0h-5.9c-0.2,0-0.4,0-0.7,0c-2.3,0-4.7,0-7.1,0  h-0.4l0,0c-7.4,0-14.8,0-22.2,0c-3.1,0-5.7,1.8-6.7,4.7c-0.1,0.4-0.1,0.8-0.3,1.1c0,2.6,0,5.1,0,7.7c0,0,0.1,0,0.1,0.1  c0.6,3.3,3.7,5.7,7.4,5.7c16.9-0.1,33.7,0,50.6,0c0.3,0,0.6,0,0.8,0c3.8-0.2,6.6-3.1,6.6-6.9C68.2,23.8,68.2,22,68.2,20.2z   M65.4,26.4c-0.1,1.8-1.9,3.4-3.8,3.5c-0.2,0-0.3,0-0.5,0c-17.1,0-34.2,0-51.3,0c-2.2,0-3.7-1.1-4.2-3.1c-0.1-0.3-0.1-0.7-0.1-1  c0-2-0.1-3.9,0-5.9c0.1-1.8,1.8-3.5,3.6-3.6c0.6,0,1.2,0,1.8,0c8.2,0,16.4,0,24.6,0c8.5,0,17.1,0,25.6,0c2.2,0,3.7,1.1,4.2,3  c0.1,0.3,0.1,0.5,0.1,0.8C65.5,22.2,65.6,24.3,65.4,26.4z"></path>	<path class="st1" d="M59,21.7c-0.2-0.1-0.5-0.1-0.7-0.1c-4.3,0-8.6,0-12.8,0c-0.3,0-0.7,0-0.9,0.1c-0.5,0.3-0.9,0.7-0.8,1.3  c0,0.6,0.4,1,1,1.2c0.3,0.1,0.6,0.1,0.9,0.1c2.1,0,4.2,0,6.3,0s4.2,0,6.3,0c0.2,0,0.5,0,0.8-0.1c0.7-0.2,1.1-0.7,1.1-1.3  C60,22.4,59.6,21.9,59,21.7z"></path>	<path class="st1" d="M12.2,21.6c-0.7,0-1.3,0.6-1.4,1.4c0,0.7,0.6,1.4,1.4,1.4c0.7,0,1.4-0.6,1.4-1.4  C13.6,22.3,12.9,21.6,12.2,21.6z"></path>	<path class="st1" d="M20.4,21.6c-0.7,0-1.3,0.6-1.4,1.3c0,0.7,0.6,1.4,1.3,1.4c0.7,0,1.4-0.6,1.4-1.4  C21.8,22.3,21.2,21.6,20.4,21.6z"></path>	<path class="st1" d="M28.6,21.7c-0.7,0-1.3,0.7-1.3,1.4c0,0.7,0.6,1.4,1.4,1.4c0.7,0,1.4-0.7,1.4-1.4C30,22.3,29.3,21.6,28.6,21.7z  "></path>	<path class="st1" d="M36.8,21.6c-0.7,0-1.3,0.6-1.3,1.4c0,0.7,0.6,1.4,1.3,1.4c0.7,0,1.4-0.6,1.4-1.4  C38.2,22.3,37.5,21.6,36.8,21.6z"></path></g><path class="st2" d="M17,29.4c0-0.9,0-1.8,0-2.7c0-1,0.4-1.9,1.3-2.5c0.2-0.2,0.3-0.3,0.4-0.6c0.4-4.7,2.3-8.5,5.8-11.6 c2.6-2.3,5.7-3.7,9.2-4c5.8-0.5,10.7,1.4,14.5,5.7c2.5,2.8,3.8,6.1,4.1,9.9c0,0.2,0.1,0.4,0.3,0.5c0.9,0.6,1.3,1.4,1.3,2.5 c0,1.8,0,3.6,0,5.3c0,2.2-2.1,3.5-4,2.7c-0.3-0.1-0.5-0.1-0.8,0.1c-2,1.4-4.3,2-6.8,2.3c-0.3,0-0.5,0.1-0.7,0.3 c-0.3,0.4-0.8,0.6-1.3,0.6c-0.7,0-1.5,0-2.2,0c-1,0-1.7-0.7-1.7-1.6c0-0.9,0.7-1.7,1.6-1.7c0.8,0,1.7,0,2.5,0c0.3,0,0.6,0.1,0.8,0.3 c0.3,0.4,0.7,0.4,1.1,0.3c2-0.3,3.8-0.8,5.5-1.9c0.2-0.2,0.4-0.3,0.3-0.6c-0.2-0.7-0.1-1.5-0.1-2.2c0-1.4,0-2.8,0-4.2 c0-0.9,0.5-1.7,1.2-2.2c0.2-0.1,0.3-0.2,0.3-0.5C49,17.9,46,13.7,40.4,11.5c-8.3-3.2-17.6,2.2-19,10.9c0,0.2-0.1,0.4-0.1,0.6 c-0.2,0.7-0.1,1.1,0.6,1.6c0.7,0.5,0.9,1.3,0.9,2.1c0,1.8,0,3.6,0,5.3c0,1.6-1.1,2.8-2.6,2.9c-1.6,0.1-2.9-0.8-3.1-2.3 C16.9,31.6,17,30.5,17,29.4C17,29.4,17,29.4,17,29.4z"></path><g>	<path class="st3" d="M30.6,41.2C20,41.2,11.4,32.6,11.4,22S20,2.8,30.6,2.8c1.4,0,2.5,1.1,2.5,2.5S32,7.8,30.6,7.8  c-7.8,0-14.2,6.4-14.2,14.2s6.4,14.2,14.2,14.2c1.4,0,2.5,1.1,2.5,2.5S32,41.2,30.6,41.2z"></path></g><g>	<path class="st3" d="M39.8,41.2c-1.4,0-2.5-1.1-2.5-2.5s1.1-2.5,2.5-2.5C47.6,36.2,54,29.8,54,22S47.6,7.8,39.8,7.8  c-1.4,0-2.5-1.1-2.5-2.5s1.1-2.5,2.5-2.5C50.4,2.8,59,11.4,59,22S50.4,41.2,39.8,41.2z"></path></g><g>	<path class="st3" d="M27.2,24.6c-1.4,0-2.5-1.1-2.5-2.5c0-1.4,1.1-2.5,2.5-2.5l18-0.2c0,0,0,0,0,0c1.4,0,2.5,1.1,2.5,2.5  c0,1.4-1.1,2.5-2.5,2.5L27.2,24.6C27.3,24.6,27.3,24.6,27.2,24.6z"></path></g></svg>