<svg xmlns="http://www.w3.org/2000/svg" width="24" height="28" viewBox="0 0 24 28" fill="none"><path d="M22.0004 20.92V23.92C22.0016 24.1985 21.9445 24.4741 21.8329 24.7293C21.7214 24.9845 21.5577 25.2136 21.3525 25.4018C21.1473 25.5901 20.905 25.7335 20.6412 25.8227C20.3773 25.9119 20.0978 25.945 19.8204 25.92C16.7433 25.5856 13.7874 24.5341 11.1904 22.85C8.77425 21.3146 6.72576 19.2661 5.19042 16.85C3.5004 14.2412 2.44866 11.271 2.12042 8.17997C2.09543 7.90344 2.1283 7.62474 2.21692 7.3616C2.30555 7.09846 2.44799 6.85666 2.63519 6.6516C2.82238 6.44653 3.05023 6.28268 3.30421 6.1705C3.5582 6.05831 3.83276 6.00024 4.11042 5.99997H7.11042C7.59573 5.9952 8.06621 6.16705 8.43418 6.48351C8.80215 6.79996 9.0425 7.23942 9.11042 7.71997C9.23704 8.68004 9.47187 9.6227 9.81042 10.53C9.94497 10.8879 9.97408 11.2769 9.89433 11.6509C9.81457 12.0248 9.62928 12.3681 9.36042 12.64L8.09042 13.91C9.51398 16.4135 11.5869 18.4864 14.0904 19.91L15.3604 18.64C15.6323 18.3711 15.9756 18.1858 16.3495 18.1061C16.7235 18.0263 17.1125 18.0554 17.4704 18.19C18.3777 18.5285 19.3204 18.7634 20.2804 18.89C20.7662 18.9585 21.2098 19.2032 21.527 19.5775C21.8441 19.9518 22.0126 20.4296 22.0004 20.92Z" stroke="#A0A8B2" stroke-width="2" stroke-linecap="round" stroke-linejoin="round"></path></svg>