<svg xmlns="http://www.w3.org/2000/svg" width="24" height="28" viewBox="0 0 24 28" fill="none"><path d="M21 14C21 21 12 27 12 27C12 27 3 21 3 14C3 11.6131 3.94821 9.32387 5.63604 7.63604C7.32387 5.94821 9.61305 5 12 5C14.3869 5 16.6761 5.94821 18.364 7.63604C20.0518 9.32387 21 11.6131 21 14Z" stroke="#A0A8B2" stroke-width="2" stroke-linecap="round" stroke-linejoin="round"></path><path d="M12 17C13.6569 17 15 15.6569 15 14C15 12.3431 13.6569 11 12 11C10.3431 11 9 12.3431 9 14C9 15.6569 10.3431 17 12 17Z" stroke="#A0A8B2" stroke-width="2" stroke-linecap="round" stroke-linejoin="round"></path></svg>