<svg xmlns="http://www.w3.org/2000/svg" width="24" height="28" viewBox="0 0 24 28" fill="none"><path d="M18 12C19.6569 12 21 10.6569 21 9C21 7.34315 19.6569 6 18 6C16.3431 6 15 7.34315 15 9C15 10.6569 16.3431 12 18 12Z" stroke="#A0A8B2" stroke-width="2" stroke-linecap="round" stroke-linejoin="round"></path><path d="M6 19C7.65685 19 9 17.6569 9 16C9 14.3431 7.65685 13 6 13C4.34315 13 3 14.3431 3 16C3 17.6569 4.34315 19 6 19Z" stroke="#A0A8B2" stroke-width="2" stroke-linecap="round" stroke-linejoin="round"></path><path d="M18 26C19.6569 26 21 24.6569 21 23C21 21.3431 19.6569 20 18 20C16.3431 20 15 21.3431 15 23C15 24.6569 16.3431 26 18 26Z" stroke="#A0A8B2" stroke-width="2" stroke-linecap="round" stroke-linejoin="round"></path><path d="M8.58984 17.51L15.4198 21.49" stroke="#A0A8B2" stroke-width="2" stroke-linecap="round" stroke-linejoin="round"></path><path d="M15.4098 10.51L8.58984 14.49" stroke="#A0A8B2" stroke-width="2" stroke-linecap="round" stroke-linejoin="round"></path></svg>