<svg xmlns="http://www.w3.org/2000/svg" width="32" height="24" viewBox="0 0 32 24" fill="none"><path d="M24.0001 9.33325H22.3201C21.8212 7.40125 20.7905 5.6479 19.3449 4.27245C17.8994 2.89699 16.097 1.95457 14.1426 1.55229C12.1882 1.15 10.1602 1.30397 8.28894 1.99671C6.41768 2.68944 4.77825 3.89317 3.55694 5.47109C2.33562 7.04902 1.58139 8.93789 1.37994 10.9231C1.1785 12.9082 1.53792 14.9101 2.41737 16.7012C3.29681 18.4923 4.66102 20.0008 6.35497 21.0553C8.04893 22.1098 10.0047 22.6681 12.0001 22.6666H24.0001C25.7682 22.6666 27.4639 21.9642 28.7141 20.714C29.9644 19.4637 30.6667 17.768 30.6667 15.9999C30.6667 14.2318 29.9644 12.5361 28.7141 11.2859C27.4639 10.0356 25.7682 9.33325 24.0001 9.33325Z" stroke="currentColor" stroke-width="2" stroke-linecap="round" stroke-linejoin="round" fill="none"></path></svg>